999
dxflib 2.0.4.8
  0
SECTION
  2
HEADER
  9
$ACADVER
  1
AC1015
  9
$HANDSEED
  5
FFFF
  9
$DIMASZ
 40
0.1
  9
$GRIDUNIT
 10
0.0
 20
0.0
  9
$DIMADEC
 70
2
  9
$DIMGAP
 40
0.025
  9
$SPLINESEGS
 70
8
  9
$AUPREC
 70
2
  9
$LUNITS
 70
2
  9
$DIMEXO
 40
0.025
  9
$INSUNITS
 70
1
  9
$DIMLUNIT
 70
2
  9
$DIMTXT
 40
0.1
  9
$GRIDMODE
 70
1
  9
$LUPREC
 70
4
  9
$PLIMMAX
 10
8.5
 20
11.0
  9
$PLIMMIN
 10
0.0
 20
0.0
  9
$PINSBASE
 10
1.9708588957055215
 20
4.4384907975460122
 30
0.0
  9
$DIMEXE
 40
0.05
  9
$DIMAUNIT
 70
0
  9
$AUNITS
 70
0
  0
ENDSEC
  0
SECTION
  2
TABLES
  0
TABLE
  2
VPORT
  5
8
100
AcDbSymbolTable
 70
1
  0
VPORT
  5
30
100
AcDbSymbolTableRecord
100
AcDbViewportTableRecord
  2
*Active
 70
0
 10
0.0
 20
0.0
 11
1.0
 21
1.0
 12
286.3055555555554861
 22
148.5
 13
0.0
 23
0.0
 14
10.0
 24
10.0
 15
10.0
 25
10.0
 16
0.0
 26
0.0
 36
1.0
 17
0.0
 27
0.0
 37
0.0
 40
297.0
 41
1.92798353909465
 42
50.0
 43
0.0
 44
0.0
 50
0.0
 51
0.0
 71
0
 72
100
 73
1
 74
3
 75
1
 76
1
 77
0
 78
0
281
0
 65
1
110
0.0
120
0.0
130
0.0
111
1.0
121
0.0
131
0.0
112
0.0
122
1.0
132
0.0
 79
0
146
0.0
  0
ENDTAB
  0
TABLE
  2
LTYPE
  5
5
100
AcDbSymbolTable
 70
21
  0
LTYPE
  5
14
100
AcDbSymbolTableRecord
100
AcDbLinetypeTableRecord
  2
ByBlock
 70
0
  3

 72
65
 73
0
 40
0.0
  0
LTYPE
  5
15
100
AcDbSymbolTableRecord
100
AcDbLinetypeTableRecord
  2
ByLayer
 70
0
  3

 72
65
 73
0
 40
0.0
  0
LTYPE
  5
16
100
AcDbSymbolTableRecord
100
AcDbLinetypeTableRecord
  2
CONTINUOUS
 70
0
  3
Solid line
 72
65
 73
0
 40
0.0
  0
LTYPE
  5
31
100
AcDbSymbolTableRecord
100
AcDbLinetypeTableRecord
  2
DOT
 70
0
  3
Dot . . . . . . . . . . . . . . . . . . . . . .
 72
65
 73
2
 40
6.3499999999999996
 49
0.0
 74
0
 49
-6.3499999999999996
 74
0
  0
LTYPE
  5
32
100
AcDbSymbolTableRecord
100
AcDbLinetypeTableRecord
  2
DOT2
 70
0
  3
Dot (.5x) .....................................
 72
65
 73
2
 40
3.1749999999999998
 49
0.0
 74
0
 49
-3.1749999999999998
 74
0
  0
LTYPE
  5
33
100
AcDbSymbolTableRecord
100
AcDbLinetypeTableRecord
  2
DOTX2
 70
0
  3
Dot (2x) .  .  .  .  .  .  .  .  .  .  .  .  .
 72
65
 73
2
 40
12.6999999999999993
 49
0.0
 74
0
 49
-12.6999999999999993
 74
0
  0
LTYPE
  5
34
100
AcDbSymbolTableRecord
100
AcDbLinetypeTableRecord
  2
DASHED
 70
0
  3
Dashed __ __ __ __ __ __ __ __ __ __ __ __ __ _
 72
65
 73
2
 40
19.0500000000000007
 49
12.6999999999999993
 74
0
 49
-6.3499999999999996
 74
0
  0
LTYPE
  5
35
100
AcDbSymbolTableRecord
100
AcDbLinetypeTableRecord
  2
DASHED2
 70
0
  3
Dashed (.5x) _ _ _ _ _ _ _ _ _ _ _ _ _ _ _ _ _
 72
65
 73
2
 40
9.5250000000000004
 49
6.3499999999999996
 74
0
 49
-3.1749999999999998
 74
0
  0
LTYPE
  5
36
100
AcDbSymbolTableRecord
100
AcDbLinetypeTableRecord
  2
DASHEDX2
 70
0
  3
Dashed (2x) ____  ____  ____  ____  ____  ___
 72
65
 73
2
 40
38.1000000000000014
 49
25.3999999999999986
 74
0
 49
-12.6999999999999993
 74
0
  0
LTYPE
  5
37
100
AcDbSymbolTableRecord
100
AcDbLinetypeTableRecord
  2
DASHDOT
 70
0
  3
Dash dot __ . __ . __ . __ . __ . __ . __ . __
 72
65
 73
4
 40
25.3999999999999986
 49
12.6999999999999993
 74
0
 49
-6.3499999999999996
 74
0
 49
0.0
 74
0
 49
-6.3499999999999996
 74
0
  0
LTYPE
  5
38
100
AcDbSymbolTableRecord
100
AcDbLinetypeTableRecord
  2
DASHDOT2
 70
0
  3
Dash dot (.5x) _._._._._._._._._._._._._._._.
 72
65
 73
4
 40
12.6999999999999993
 49
6.3499999999999996
 74
0
 49
-3.1749999999999998
 74
0
 49
0.0
 74
0
 49
-3.1749999999999998
 74
0
  0
LTYPE
  5
39
100
AcDbSymbolTableRecord
100
AcDbLinetypeTableRecord
  2
DASHDOTX2
 70
0
  3
Dash dot (2x) ____  .  ____  .  ____  .  ___
 72
65
 73
4
 40
50.7999999999999972
 49
25.3999999999999986
 74
0
 49
-12.6999999999999993
 74
0
 49
0.0
 74
0
 49
-12.6999999999999993
 74
0
  0
LTYPE
  5
3A
100
AcDbSymbolTableRecord
100
AcDbLinetypeTableRecord
  2
DIVIDE
 70
0
  3
Divide ____ . . ____ . . ____ . . ____ . . ____
 72
65
 73
6
 40
31.75
 49
12.6999999999999993
 74
0
 49
-6.3499999999999996
 74
0
 49
0.0
 74
0
 49
-6.3499999999999996
 74
0
 49
0.0
 74
0
 49
-6.3499999999999996
 74
0
  0
LTYPE
  5
3B
100
AcDbSymbolTableRecord
100
AcDbLinetypeTableRecord
  2
DIVIDE2
 70
0
  3
Divide (.5x) __..__..__..__..__..__..__..__.._
 72
65
 73
6
 40
15.875
 49
6.3499999999999996
 74
0
 49
-3.1749999999999998
 74
0
 49
0.0
 74
0
 49
-3.1749999999999998
 74
0
 49
0.0
 74
0
 49
-3.1749999999999998
 74
0
  0
LTYPE
  5
3C
100
AcDbSymbolTableRecord
100
AcDbLinetypeTableRecord
  2
DIVIDEX2
 70
0
  3
Divide (2x) ________  .  .  ________  .  .  _
 72
65
 73
6
 40
63.5
 49
25.3999999999999986
 74
0
 49
-12.6999999999999993
 74
0
 49
0.0
 74
0
 49
-12.6999999999999993
 74
0
 49
0.0
 74
0
 49
-12.6999999999999993
 74
0
  0
LTYPE
  5
3D
100
AcDbSymbolTableRecord
100
AcDbLinetypeTableRecord
  2
CENTER
 70
0
  3
Center ____ _ ____ _ ____ _ ____ _ ____ _ ____
 72
65
 73
4
 40
50.7999999999999972
 49
31.75
 74
0
 49
-6.3499999999999996
 74
0
 49
6.3499999999999996
 74
0
 49
-6.3499999999999996
 74
0
  0
LTYPE
  5
3E
100
AcDbSymbolTableRecord
100
AcDbLinetypeTableRecord
  2
CENTER2
 70
0
  3
Center (.5x) ___ _ ___ _ ___ _ ___ _ ___ _ ___
 72
65
 73
4
 40
28.5749999999999993
 49
19.0500000000000007
 74
0
 49
-3.1749999999999998
 74
0
 49
3.1749999999999998
 74
0
 49
-3.1749999999999998
 74
0
  0
LTYPE
  5
3F
100
AcDbSymbolTableRecord
100
AcDbLinetypeTableRecord
  2
CENTERX2
 70
0
  3
Center (2x) ________  __  ________  __  _____
 72
65
 73
4
 40
101.5999999999999943
 49
63.5
 74
0
 49
-12.6999999999999993
 74
0
 49
12.6999999999999993
 74
0
 49
-12.6999999999999993
 74
0
  0
LTYPE
  5
40
100
AcDbSymbolTableRecord
100
AcDbLinetypeTableRecord
  2
BORDER
 70
0
  3
Border __ __ . __ __ . __ __ . __ __ . __ __ .
 72
65
 73
6
 40
44.4500000000000028
 49
12.6999999999999993
 74
0
 49
-6.3499999999999996
 74
0
 49
12.6999999999999993
 74
0
 49
-6.3499999999999996
 74
0
 49
0.0
 74
0
 49
-6.3499999999999996
 74
0
  0
LTYPE
  5
41
100
AcDbSymbolTableRecord
100
AcDbLinetypeTableRecord
  2
BORDER2
 70
0
  3
Border (.5x) __.__.__.__.__.__.__.__.__.__.__.
 72
65
 73
6
 40
22.2250000000000014
 49
6.3499999999999996
 74
0
 49
-3.1749999999999998
 74
0
 49
6.3499999999999996
 74
0
 49
-3.1749999999999998
 74
0
 49
0.0
 74
0
 49
-3.1749999999999998
 74
0
  0
LTYPE
  5
42
100
AcDbSymbolTableRecord
100
AcDbLinetypeTableRecord
  2
BORDERX2
 70
0
  3
Border (2x) ____  ____  .  ____  ____  .  ___
 72
65
 73
6
 40
88.9000000000000057
 49
25.3999999999999986
 74
0
 49
-12.6999999999999993
 74
0
 49
25.3999999999999986
 74
0
 49
-12.6999999999999993
 74
0
 49
0.0
 74
0
 49
-12.6999999999999993
 74
0
  0
ENDTAB
  0
TABLE
  2
LAYER
  5
2
100
AcDbSymbolTable
 70
2
  0
LAYER
  5
10
100
AcDbSymbolTableRecord
100
AcDbLayerTableRecord
  2
0
 70
0
 62
7
  6
CONTINUOUS
370
0
390
F
  0
LAYER
  5
43
100
AcDbSymbolTableRecord
100
AcDbLayerTableRecord
  2
Bottom
 70
0
 62
7
  6
DASHED
370
0
390
F
  0
ENDTAB
  0
TABLE
  2
STYLE
  5
3
100
AcDbSymbolTable
 70
1
  0
STYLE
  5
11
100
AcDbSymbolTableRecord
100
AcDbTextStyleTableRecord
  2
Standard
 70
0
 40
0.0
 41
0.75
 50
0.0
 71
0
 42
2.5
  3
txt
  4

  0
ENDTAB
  0
TABLE
  2
VIEW
  5
6
100
AcDbSymbolTable
 70
0
  0
ENDTAB
  0
TABLE
  2
UCS
  5
7
100
AcDbSymbolTable
 70
0
  0
ENDTAB
  0
TABLE
  2
APPID
  5
9
100
AcDbSymbolTable
 70
1
  0
APPID
  5
12
100
AcDbSymbolTableRecord
100
AcDbRegAppTableRecord
  2
ACAD
 70
0
  0
ENDTAB
  0
TABLE
  2
DIMSTYLE
  5
A
100
AcDbSymbolTable
 70
1
100
AcDbDimStyleTable
 71
0
  0
DIMSTYLE
105
27
100
AcDbSymbolTableRecord
100
AcDbDimStyleTableRecord
  2
Standard
 41
0.1
 42
0.025
 43
3.75
 44
0.05
 70
0
 73
0
 74
0
 77
1
 78
8
140
0.1
141
2.5
143
0.03937007874016
147
0.025
171
3
172
1
271
2
272
2
274
3
278
44
283
0
284
8
340
11
  0
ENDTAB
  0
TABLE
  2
BLOCK_RECORD
  5
1
100
AcDbSymbolTable
 70
1
  0
BLOCK_RECORD
  5
1F
100
AcDbSymbolTableRecord
100
AcDbBlockTableRecord
  2
*Model_Space
340
22
  0
BLOCK_RECORD
  5
1B
100
AcDbSymbolTableRecord
100
AcDbBlockTableRecord
  2
*Paper_Space
340
1E
  0
BLOCK_RECORD
  5
23
100
AcDbSymbolTableRecord
100
AcDbBlockTableRecord
  2
*Paper_Space0
340
26
  0
BLOCK_RECORD
  5
44
100
AcDbSymbolTableRecord
100
AcDbBlockTableRecord
  2
dual_row_13
340
0
  0
BLOCK_RECORD
  5
45
100
AcDbSymbolTableRecord
100
AcDbBlockTableRecord
  2
dual_header-0
340
0
  0
BLOCK_RECORD
  5
46
100
AcDbSymbolTableRecord
100
AcDbBlockTableRecord
  2
dual_header-1
340
0
  0
BLOCK_RECORD
  5
47
100
AcDbSymbolTableRecord
100
AcDbBlockTableRecord
  2
rPI
340
0
  0
BLOCK_RECORD
  5
48
100
AcDbSymbolTableRecord
100
AcDbBlockTableRecord
  2
rPI-0
340
0
  0
BLOCK_RECORD
  5
49
100
AcDbSymbolTableRecord
100
AcDbBlockTableRecord
  2
rPi_holes
340
0
  0
ENDTAB
  0
ENDSEC
  0
SECTION
  2
BLOCKS
  0
BLOCK
  5
20
100
AcDbEntity
  8
0
100
AcDbBlockBegin
  2
*Model_Space
 70
0
 10
0.0
 20
0.0
 30
0.0
  3
*Model_Space
  1

  0
ENDBLK
  5
21
100
AcDbEntity
  8
0
100
AcDbBlockEnd
  0
BLOCK
  5
1C
100
AcDbEntity
 67
1
  8
0
100
AcDbBlockBegin
  2
*Paper_Space
 70
0
 10
0.0
 20
0.0
 30
0.0
  3
*Paper_Space
  1

  0
ENDBLK
  5
1D
100
AcDbEntity
 67
1
  8
0
100
AcDbBlockEnd
  0
BLOCK
  5
24
100
AcDbEntity
  8
0
100
AcDbBlockBegin
  2
*Paper_Space0
 70
0
 10
0.0
 20
0.0
 30
0.0
  3
*Paper_Space0
  1

  0
ENDBLK
  5
25
100
AcDbEntity
  8
0
100
AcDbBlockEnd
  0
BLOCK
  5
4A
100
AcDbEntity
  8
0
100
AcDbBlockBegin
  2
dual_row_13
 70
0
 10
0.0
 20
0.0
 30
0.0
  3
dual_row_13
  1

  0
LINE
  5
4B
100
AcDbEntity
100
AcDbLine
  8
0
 62
256
370
-1
  6
ByLayer
 10
0.0
 20
0.0
 30
0.0
 11
0.0
 21
0.1945
 31
0.0
  0
LINE
  5
4C
100
AcDbEntity
100
AcDbLine
  8
0
 62
256
370
-1
  6
ByLayer
 10
0.0
 20
0.1945
 30
0.0
 11
1.2935000000000001
 21
0.1945
 31
0.0
  0
LINE
  5
4D
100
AcDbEntity
100
AcDbLine
  8
0
 62
256
370
-1
  6
ByLayer
 10
1.2935000000000001
 20
0.0
 30
0.0
 11
0.0
 21
0.0
 31
0.0
  0
LINE
  5
4E
100
AcDbEntity
100
AcDbLine
  8
0
 62
256
370
-1
  6
ByLayer
 10
1.2935000000000001
 20
0.1945
 30
0.0
 11
1.2935000000000001
 21
0.0
 31
0.0
  0
CIRCLE
  5
4F
100
AcDbEntity
100
AcDbCircle
  8
0
 62
256
370
-1
  6
ByLayer
 10
0.64675
 20
0.14925
 30
0.0
 40
0.01175
  0
CIRCLE
  5
50
100
AcDbEntity
100
AcDbCircle
  8
0
 62
256
370
-1
  6
ByLayer
 10
0.64675
 20
0.04525
 30
0.0
 40
0.01175
  0
CIRCLE
  5
51
100
AcDbEntity
100
AcDbCircle
  8
0
 62
256
370
-1
  6
ByLayer
 10
0.0467500000000001
 20
0.14925
 30
0.0
 40
0.01175
  0
CIRCLE
  5
52
100
AcDbEntity
100
AcDbCircle
  8
0
 62
256
370
-1
  6
ByLayer
 10
0.1467500000000001
 20
0.14925
 30
0.0
 40
0.01175
  0
CIRCLE
  5
53
100
AcDbEntity
100
AcDbCircle
  8
0
 62
256
370
-1
  6
ByLayer
 10
0.2467500000000001
 20
0.14925
 30
0.0
 40
0.01175
  0
CIRCLE
  5
54
100
AcDbEntity
100
AcDbCircle
  8
0
 62
256
370
-1
  6
ByLayer
 10
0.3467500000000001
 20
0.14925
 30
0.0
 40
0.01175
  0
CIRCLE
  5
55
100
AcDbEntity
100
AcDbCircle
  8
0
 62
256
370
-1
  6
ByLayer
 10
0.5467500000000001
 20
0.14925
 30
0.0
 40
0.01175
  0
CIRCLE
  5
56
100
AcDbEntity
100
AcDbCircle
  8
0
 62
256
370
-1
  6
ByLayer
 10
0.4467500000000001
 20
0.14925
 30
0.0
 40
0.01175
  0
CIRCLE
  5
57
100
AcDbEntity
100
AcDbCircle
  8
0
 62
256
370
-1
  6
ByLayer
 10
0.3467500000000001
 20
0.04525
 30
0.0
 40
0.01175
  0
CIRCLE
  5
58
100
AcDbEntity
100
AcDbCircle
  8
0
 62
256
370
-1
  6
ByLayer
 10
0.4467500000000001
 20
0.04525
 30
0.0
 40
0.01175
  0
CIRCLE
  5
59
100
AcDbEntity
100
AcDbCircle
  8
0
 62
256
370
-1
  6
ByLayer
 10
0.5467500000000001
 20
0.04525
 30
0.0
 40
0.01175
  0
CIRCLE
  5
5A
100
AcDbEntity
100
AcDbCircle
  8
0
 62
256
370
-1
  6
ByLayer
 10
0.2467500000000001
 20
0.04525
 30
0.0
 40
0.01175
  0
CIRCLE
  5
5B
100
AcDbEntity
100
AcDbCircle
  8
0
 62
256
370
-1
  6
ByLayer
 10
0.1467500000000001
 20
0.04525
 30
0.0
 40
0.01175
  0
CIRCLE
  5
5C
100
AcDbEntity
100
AcDbCircle
  8
0
 62
256
370
-1
  6
ByLayer
 10
0.0467500000000001
 20
0.04525
 30
0.0
 40
0.01175
  0
CIRCLE
  5
5D
100
AcDbEntity
100
AcDbCircle
  8
0
 62
256
370
-1
  6
ByLayer
 10
0.84675
 20
0.04525
 30
0.0
 40
0.01175
  0
CIRCLE
  5
5E
100
AcDbEntity
100
AcDbCircle
  8
0
 62
256
370
-1
  6
ByLayer
 10
0.74675
 20
0.04525
 30
0.0
 40
0.01175
  0
CIRCLE
  5
5F
100
AcDbEntity
100
AcDbCircle
  8
0
 62
256
370
-1
  6
ByLayer
 10
0.74675
 20
0.14925
 30
0.0
 40
0.01175
  0
CIRCLE
  5
60
100
AcDbEntity
100
AcDbCircle
  8
0
 62
256
370
-1
  6
ByLayer
 10
0.84675
 20
0.14925
 30
0.0
 40
0.01175
  0
CIRCLE
  5
61
100
AcDbEntity
100
AcDbCircle
  8
0
 62
256
370
-1
  6
ByLayer
 10
0.94675
 20
0.14925
 30
0.0
 40
0.01175
  0
CIRCLE
  5
62
100
AcDbEntity
100
AcDbCircle
  8
0
 62
256
370
-1
  6
ByLayer
 10
1.0467500000000001
 20
0.14925
 30
0.0
 40
0.01175
  0
CIRCLE
  5
63
100
AcDbEntity
100
AcDbCircle
  8
0
 62
256
370
-1
  6
ByLayer
 10
1.0467500000000001
 20
0.04525
 30
0.0
 40
0.01175
  0
CIRCLE
  5
64
100
AcDbEntity
100
AcDbCircle
  8
0
 62
256
370
-1
  6
ByLayer
 10
0.94675
 20
0.04525
 30
0.0
 40
0.01175
  0
CIRCLE
  5
65
100
AcDbEntity
100
AcDbCircle
  8
0
 62
256
370
-1
  6
ByLayer
 10
1.1467500000000002
 20
0.14925
 30
0.0
 40
0.01175
  0
CIRCLE
  5
66
100
AcDbEntity
100
AcDbCircle
  8
0
 62
256
370
-1
  6
ByLayer
 10
1.2467500000000002
 20
0.14925
 30
0.0
 40
0.01175
  0
CIRCLE
  5
67
100
AcDbEntity
100
AcDbCircle
  8
0
 62
256
370
-1
  6
ByLayer
 10
1.2467500000000002
 20
0.04525
 30
0.0
 40
0.01175
  0
CIRCLE
  5
68
100
AcDbEntity
100
AcDbCircle
  8
0
 62
256
370
-1
  6
ByLayer
 10
1.1467500000000002
 20
0.04525
 30
0.0
 40
0.01175
  0
ENDBLK
  5
69
100
AcDbEntity
  8
0
100
AcDbBlockEnd
  0
BLOCK
  5
6A
100
AcDbEntity
  8
0
100
AcDbBlockBegin
  2
dual_header-0
 70
0
 10
0.0
 20
0.0
 30
0.0
  3
dual_header-0
  1

  0
INSERT
  5
6B
100
AcDbEntity
100
AcDbBlockReference
  8
0
 62
256
370
-1
  6
ByLayer
  2
dual_row_13
 10
0.0
 20
0.0
 30
0.0
  0
ENDBLK
  5
6C
100
AcDbEntity
  8
0
100
AcDbBlockEnd
  0
BLOCK
  5
6D
100
AcDbEntity
  8
0
100
AcDbBlockBegin
  2
dual_header-1
 70
0
 10
0.0
 20
0.0
 30
0.0
  3
dual_header-1
  1

  0
INSERT
  5
6E
100
AcDbEntity
100
AcDbBlockReference
  8
0
 62
256
370
-1
  6
ByLayer
  2
dual_row_13
 10
0.0
 20
0.0
 30
0.0
  0
ENDBLK
  5
6F
100
AcDbEntity
  8
0
100
AcDbBlockEnd
  0
BLOCK
  5
70
100
AcDbEntity
  8
0
100
AcDbBlockBegin
  2
rPI
 70
0
 10
0.0
 20
0.0
 30
0.0
  3
rPI
  1

  0
LINE
  5
71
100
AcDbEntity
100
AcDbLine
  8
0
 62
256
370
-1
  6
ByLayer
 10
-0.0554999999999997
 20
2.1234999999999999
 30
0.0
 11
0.7780000000000004
 21
2.1234999999999999
 31
0.0
  0
LINE
  5
72
100
AcDbEntity
100
AcDbLine
  8
0
 62
256
370
-1
  6
ByLayer
 10
-0.0554999999999998
 20
1.5024999999999999
 30
0.0
 11
0.7780000000000001
 21
1.5024999999999999
 31
0.0
  0
LINE
  5
73
100
AcDbEntity
100
AcDbLine
  8
0
 62
256
370
-1
  6
ByLayer
 10
0.7780000000000004
 20
2.1234999999999999
 30
0.0
 11
0.7780000000000001
 21
1.5024999999999999
 31
0.0
  0
LINE
  5
74
100
AcDbEntity
100
AcDbLine
  8
0
 62
256
370
-1
  6
ByLayer
 10
-0.286
 20
1.244
 30
0.0
 11
0.4019999999999999
 21
1.244
 31
0.0
  0
LINE
  5
75
100
AcDbEntity
100
AcDbLine
  8
0
 62
256
370
-1
  6
ByLayer
 10
-0.2859999999999999
 20
0.723
 30
0.0
 11
0.4020000000000001
 21
0.723
 31
0.0
  0
LINE
  5
76
100
AcDbEntity
100
AcDbLine
  8
0
 62
256
370
-1
  6
ByLayer
 10
0.4019999999999999
 20
1.244
 30
0.0
 11
0.4020000000000001
 21
0.723
 31
0.0
  0
LINE
  5
77
100
AcDbEntity
100
AcDbLine
  8
0
 62
256
370
-1
  6
ByLayer
 10
1.2880000000000003
 20
2.2439999999999998
 30
0.0
 11
1.2880000000000003
 21
1.7894999999999999
 31
0.0
  0
LINE
  5
78
100
AcDbEntity
100
AcDbLine
  8
0
 62
256
370
-1
  6
ByLayer
 10
1.8795000000000002
 20
2.2439999999999998
 30
0.0
 11
1.8795000000000002
 21
1.7894999999999999
 31
0.0
  0
LINE
  5
79
100
AcDbEntity
100
AcDbLine
  8
0
 62
256
370
-1
  6
ByLayer
 10
1.2880000000000003
 20
1.7894999999999999
 30
0.0
 11
1.8795000000000002
 21
1.7894999999999999
 31
0.0
  0
LINE
  5
7A
100
AcDbEntity
100
AcDbLine
  8
0
 62
256
370
-1
  6
ByLayer
 10
0.0
 20
0.723
 30
0.0
 11
-0.2859999999999999
 21
0.723
 31
0.0
  0
LINE
  5
7B
100
AcDbEntity
100
AcDbLine
  8
0
 62
256
370
-1
  6
ByLayer
 10
0.0000000000000001
 20
1.244
 30
0.0
 11
-0.286
 21
1.244
 31
0.0
  0
LINE
  5
7C
100
AcDbEntity
100
AcDbLine
  8
0
 62
256
370
-1
  6
ByLayer
 10
-0.286
 20
1.244
 30
0.0
 11
-0.2859999999999999
 21
0.723
 31
0.0
  0
LINE
  5
7D
100
AcDbEntity
100
AcDbLine
  8
0
 62
256
370
-1
  6
ByLayer
 10
0.0000000000000001
 20
1.244
 30
0.0
 11
0.0000000000000001
 21
1.5024999999999999
 31
0.0
  0
LINE
  5
7E
100
AcDbEntity
100
AcDbLine
  8
0
 62
256
370
-1
  6
ByLayer
 10
0.0000000000000001
 20
1.5024999999999999
 30
0.0
 11
-0.0554999999999998
 21
1.5024999999999999
 31
0.0
  0
LINE
  5
7F
100
AcDbEntity
100
AcDbLine
  8
0
 62
256
370
-1
  6
ByLayer
 10
0.0000000000000001
 20
2.1234999999999999
 30
0.0
 11
-0.0554999999999997
 21
2.1234999999999999
 31
0.0
  0
LINE
  5
80
100
AcDbEntity
100
AcDbLine
  8
0
 62
256
370
-1
  6
ByLayer
 10
-0.0554999999999997
 20
2.1234999999999999
 30
0.0
 11
-0.0554999999999998
 21
1.5024999999999999
 31
0.0
  0
LINE
  5
81
100
AcDbEntity
100
AcDbLine
  8
0
 62
256
370
-1
  6
ByLayer
 10
1.2880000000000003
 20
2.2439999999999998
 30
0.0
 11
1.2880000000000003
 21
2.2040000000000002
 31
0.0
  0
LINE
  5
82
100
AcDbEntity
100
AcDbLine
  8
0
 62
256
370
-1
  6
ByLayer
 10
1.8795000000000002
 20
2.2439999999999998
 30
0.0
 11
1.8795000000000002
 21
2.2039999999999997
 31
0.0
  0
LINE
  5
83
100
AcDbEntity
100
AcDbLine
  8
0
 62
256
370
-1
  6
ByLayer
 10
0.9219999999999998
 20
-0.1250000000000016
 30
0.0
 11
0.922
 21
0.0
 31
0.0
  0
LINE
  5
84
100
AcDbEntity
100
AcDbLine
  8
0
 62
256
370
-1
  6
ByLayer
 10
0.6565
 20
-0.1249999999999997
 30
0.0
 11
0.6565
 21
0.0
 31
0.0
  0
LINE
  5
85
100
AcDbEntity
100
AcDbLine
  8
0
 62
256
370
-1
  6
ByLayer
 10
1.3515000000000001
 20
-0.2780000000000005
 30
0.0
 11
1.6760000000000002
 21
-0.278
 31
0.0
  0
LINE
  5
86
100
AcDbEntity
100
AcDbLine
  8
0
 62
256
370
-1
  6
ByLayer
 10
3.3445
 20
0.5415000000000028
 30
0.0
 11
4.0265000000000004
 21
0.5414999999999951
 31
0.0
  0
LINE
  5
87
100
AcDbEntity
100
AcDbLine
  8
0
 62
256
370
-1
  6
ByLayer
 10
4.0265000000000004
 20
0.5414999999999951
 30
0.0
 11
4.0265000000000004
 21
1.4854999999999987
 31
0.0
  0
LINE
  5
88
100
AcDbEntity
100
AcDbLine
  8
0
 62
256
370
-1
  6
ByLayer
 10
4.0265000000000004
 20
1.4854999999999987
 30
0.0
 11
3.3445
 21
1.4854999999999998
 31
0.0
  0
LINE
  5
89
100
AcDbEntity
100
AcDbLine
  8
0
 62
256
370
-1
  6
ByLayer
 10
1.2880000000000003
 20
2.2439999999999998
 30
0.0
 11
1.8795000000000002
 21
2.2439999999999998
 31
0.0
  0
LINE
  5
8A
100
AcDbEntity
100
AcDbLine
  8
0
 62
256
370
-1
  6
ByLayer
 10
0.6565
 20
-0.1249999999999997
 30
0.0
 11
0.6565
 21
-0.1249999999999997
 31
0.0
  0
LINE
  5
8B
100
AcDbEntity
100
AcDbLine
  8
0
 62
256
370
-1
  6
ByLayer
 10
0.6565
 20
-0.1249999999999997
 30
0.0
 11
0.9219999999999998
 21
-0.1250000000000016
 31
0.0
  0
LINE
  5
8C
100
AcDbEntity
100
AcDbLine
  8
0
 62
256
370
-1
  6
ByLayer
 10
0.0374699488997226
 20
1.7744531628127143
 30
0.0
 11
0.0374699488997227
 21
1.7466760794793807
 31
0.0
  0
LINE
  5
8D
100
AcDbEntity
100
AcDbLine
  8
0
 62
256
370
-1
  6
ByLayer
 10
0.0374699488997227
 20
1.7466760794793807
 30
0.0
 11
0.0999699488997229
 21
1.7466760864238251
 31
0.0
  0
LINE
  5
8E
100
AcDbEntity
100
AcDbLine
  8
0
 62
256
370
-1
  6
ByLayer
 10
0.0999699488997229
 20
1.7466760864238251
 30
0.0
 11
0.099969955838132
 21
1.7744531628127143
 31
0.0
  0
LINE
  5
8F
100
AcDbEntity
100
AcDbLine
  8
0
 62
256
370
-1
  6
ByLayer
 10
0.0652477336219448
 20
1.7466760794793805
 30
0.0
 11
0.0652477336219448
 21
1.7675087183682694
 31
0.0
  0
LINE
  5
90
100
AcDbEntity
100
AcDbLine
  8
0
 62
256
370
-1
  6
ByLayer
 10
0.0999699488997228
 20
1.7952865030904916
 30
0.0
 11
0.0374699488997229
 21
1.7952864961460473
 31
0.0
  0
LINE
  5
91
100
AcDbEntity
100
AcDbLine
  8
0
 62
256
370
-1
  6
ByLayer
 10
0.0374699488997229
 20
1.7952864961460473
 30
0.0
 11
0.0999699558412523
 21
1.830008023923825
 31
0.0
  0
LINE
  5
92
100
AcDbEntity
100
AcDbLine
  8
0
 62
256
370
-1
  6
ByLayer
 10
0.0999699558412523
 20
1.830008023923825
 30
0.0
 11
0.0374699488997228
 21
1.8300080239238252
 31
0.0
  0
LINE
  5
93
100
AcDbEntity
100
AcDbLine
  8
0
 62
256
370
-1
  6
ByLayer
 10
0.0374699488997228
 20
1.8786184405904918
 30
0.0
 11
0.0374699488997229
 21
1.8508413572571585
 31
0.0
  0
LINE
  5
94
100
AcDbEntity
100
AcDbLine
  8
0
 62
256
370
-1
  6
ByLayer
 10
0.0374699488997229
 20
1.8508413572571585
 30
0.0
 11
0.0999699488997227
 21
1.8508413642016028
 31
0.0
  0
LINE
  5
95
100
AcDbEntity
100
AcDbLine
  8
0
 62
256
370
-1
  6
ByLayer
 10
0.0999699488997227
 20
1.8508413642016028
 30
0.0
 11
0.0999699558381318
 21
1.8786184405904918
 31
0.0
  0
LINE
  5
96
100
AcDbEntity
100
AcDbLine
  8
0
 62
256
370
-1
  6
ByLayer
 10
0.0652477336219448
 20
1.8508413572571585
 30
0.0
 11
0.065247733621945
 21
1.8716739961460473
 31
0.0
  0
LINE
  5
97
100
AcDbEntity
100
AcDbLine
  8
0
 62
256
370
-1
  6
ByLayer
 10
0.037469948899723
 20
1.8994510794793809
 30
0.0
 11
0.0374699488997228
 21
1.9411191350349366
 31
0.0
  0
LINE
  5
98
100
AcDbEntity
100
AcDbLine
  8
0
 62
256
370
-1
  6
ByLayer
 10
0.0374699488997228
 20
1.9202844128127141
 30
0.0
 11
0.0999699558480979
 21
1.9202844128127141
 31
0.0
  0
LINE
  5
99
100
AcDbEntity
100
AcDbLine
  8
0
 62
256
370
-1
  6
ByLayer
 10
3.5822473125417398
 20
1.2872043373134685
 30
0.0
 11
3.5722710694861837
 21
1.2676439206468029
 31
0.0
  0
ARC
  5
9A
100
AcDbEntity
  8
0
 62
256
370
-1
  6
ByLayer
100
AcDbCircle
 10
3.5625022500417396
 20
1.2808953095356912
 30
0.0
 40
0.0460069444444444
100
AcDbArc
 50
333.0745840000000157
 51
360.0
  0
ARC
  5
9B
100
AcDbEntity
  8
0
 62
256
370
-1
  6
ByLayer
100
AcDbCircle
 10
3.5946203125417395
 20
1.2808953095356912
 30
0.0
 40
0.0138888888888889
100
AcDbArc
 50
360.0
 51
152.9811800000000233
  0
ARC
  5
9C
100
AcDbEntity
  8
0
 62
256
370
-1
  6
ByLayer
100
AcDbCircle
 10
3.5598980903195172
 20
1.273950865091247
 30
0.0
 40
0.0138888888888889
100
AcDbArc
 50
180.0
 51
332.9811850000000391
  0
ARC
  5
9D
100
AcDbEntity
  8
0
 62
256
370
-1
  6
ByLayer
100
AcDbCircle
 10
3.5920161389306284
 20
1.2739508650912468
 30
0.0
 40
0.0460069444444444
100
AcDbArc
 50
153.0745799999999974
 51
180.0
  0
LINE
  5
9E
100
AcDbEntity
100
AcDbLine
  8
0
 62
256
370
-1
  6
ByLayer
 10
3.6085092014306284
 20
1.2392293340404148
 30
0.0
 11
3.6085092014306284
 21
1.1975612784848575
 31
0.0
  0
LINE
  5
9F
100
AcDbEntity
100
AcDbLine
  8
0
 62
256
370
-1
  6
ByLayer
 10
3.6085092014306284
 20
1.21839600070708
 30
0.0
 11
3.5460091944891912
 21
1.2183960007070809
 31
0.0
  0
LINE
  5
A0
100
AcDbEntity
100
AcDbLine
  8
0
 62
256
370
-1
  6
ByLayer
 10
3.5460092014306284
 20
1.1767272506723574
 30
0.0
 11
3.6085092014306284
 21
1.1558960007070804
 31
0.0
  0
LINE
  5
A1
100
AcDbEntity
100
AcDbLine
  8
0
 62
256
370
-1
  6
ByLayer
 10
3.6085092014306284
 20
1.1558960007070804
 30
0.0
 11
3.546009194516667
 21
1.1350605840404133
 31
0.0
  0
LINE
  5
A2
100
AcDbEntity
100
AcDbLine
  8
0
 62
256
370
-1
  6
ByLayer
 10
3.5633703125417395
 20
1.1709411395959683
 30
0.0
 11
3.5633703125417395
 21
1.1408487784848584
 31
0.0
  0
LINE
  5
A3
100
AcDbEntity
100
AcDbLine
  8
0
 62
256
370
-1
  6
ByLayer
 10
3.5460092014306284
 20
1.114227243762635
 30
0.0
 11
3.6085092014306284
 21
1.1142272507070796
 31
0.0
  0
LINE
  5
A4
100
AcDbEntity
100
AcDbLine
  8
0
 62
256
370
-1
  6
ByLayer
 10
3.6085092014306284
 20
1.1142272507070796
 30
0.0
 11
3.5460091944890988
 21
1.0795057229293024
 31
0.0
  0
LINE
  5
A5
100
AcDbEntity
100
AcDbLine
  8
0
 62
256
370
-1
  6
ByLayer
 10
3.5460091944890988
 20
1.0795057229293024
 30
0.0
 11
3.6085092014306284
 21
1.0795057229293019
 31
0.0
  0
LINE
  5
A6
100
AcDbEntity
100
AcDbLine
  8
0
 62
256
370
-1
  6
ByLayer
 10
3.5460092014306284
 20
1.0586716951168016
 30
0.0
 11
3.5460091944891912
 21
1.03783975070708
 31
0.0
  0
LINE
  5
A7
100
AcDbEntity
100
AcDbLine
  8
0
 62
256
370
-1
  6
ByLayer
 10
3.5598980903195172
 20
1.0239508618181925
 30
0.0
 11
3.5946203125417395
 21
1.0239508618181921
 31
0.0
  0
LINE
  5
A8
100
AcDbEntity
100
AcDbLine
  8
0
 62
256
370
-1
  6
ByLayer
 10
3.6085092014306284
 20
1.0378397507070805
 30
0.0
 11
3.6085092014306284
 21
1.0586730840404139
 31
0.0
  0
LINE
  5
A9
100
AcDbEntity
100
AcDbLine
  8
0
 62
256
370
-1
  6
ByLayer
 10
3.6085092014306284
 20
1.0586730840404139
 30
0.0
 11
3.5460092014306284
 21
1.0586716951168016
 31
0.0
  0
ARC
  5
AA
100
AcDbEntity
  8
0
 62
256
370
-1
  6
ByLayer
100
AcDbCircle
 10
3.5598980903195172
 20
1.0378397507070805
 30
0.0
 40
0.0138888888888889
100
AcDbArc
 50
180.0
 51
270.0
  0
ARC
  5
AB
100
AcDbEntity
  8
0
 62
256
370
-1
  6
ByLayer
100
AcDbCircle
 10
3.5946203125417395
 20
1.0378397507070802
 30
0.0
 40
0.0138888888888889
100
AcDbArc
 50
270.0
 51
360.0
  0
LINE
  5
AC
100
AcDbEntity
100
AcDbLine
  8
0
 62
256
370
-1
  6
ByLayer
 10
3.5460092014306284
 20
1.0031168340056913
 30
0.0
 11
3.6085092014306284
 21
0.9822855840404138
 31
0.0
  0
LINE
  5
AD
100
AcDbEntity
100
AcDbLine
  8
0
 62
256
370
-1
  6
ByLayer
 10
3.6085092014306284
 20
0.9822855840404138
 30
0.0
 11
3.546009194516667
 21
0.9614501673737463
 31
0.0
  0
LINE
  5
AE
100
AcDbEntity
100
AcDbLine
  8
0
 62
256
370
-1
  6
ByLayer
 10
3.5633703125417395
 20
0.9973307229293009
 30
0.0
 11
3.5633703125417395
 21
0.9672383618181902
 31
0.0
  0
LINE
  5
AF
100
AcDbEntity
100
AcDbLine
  8
0
 62
256
370
-1
  6
ByLayer
 10
3.5460092014306279
 20
0.9406168270959684
 30
0.0
 11
3.6085092014306279
 21
0.9406168340404144
 31
0.0
  0
LINE
  5
B0
100
AcDbEntity
100
AcDbLine
  8
0
 62
256
370
-1
  6
ByLayer
 10
3.6085092014306279
 20
0.9406168340404144
 30
0.0
 11
3.6085092014306279
 21
0.919783500707079
 31
0.0
  0
LINE
  5
B1
100
AcDbEntity
100
AcDbLine
  8
0
 62
256
370
-1
  6
ByLayer
 10
3.5946203125417391
 20
0.9058946118181898
 30
0.0
 11
3.5876758611528503
 21
0.9058946118181899
 31
0.0
  0
LINE
  5
B2
100
AcDbEntity
100
AcDbLine
  8
0
 62
256
370
-1
  6
ByLayer
 10
3.5737869792084056
 20
0.9197835007070789
 30
0.0
 11
3.5737869792084056
 21
0.9406168340404122
 31
0.0
  0
LINE
  5
B3
100
AcDbEntity
100
AcDbLine
  8
0
 62
256
370
-1
  6
ByLayer
 10
3.5737869792084056
 20
0.9197835007070789
 30
0.0
 11
3.5460091944889593
 21
0.9058946118181915
 31
0.0
  0
ARC
  5
B4
100
AcDbEntity
  8
0
 62
256
370
-1
  6
ByLayer
100
AcDbCircle
 10
3.5946203125417391
 20
0.9197835007070794
 30
0.0
 40
0.0138888888888889
100
AcDbArc
 50
270.0
 51
360.0
  0
ARC
  5
B5
100
AcDbEntity
  8
0
 62
256
370
-1
  6
ByLayer
100
AcDbCircle
 10
3.5876758611528503
 20
0.919783500707079
 30
0.0
 40
0.0138888888888889
100
AcDbArc
 50
180.0
 51
270.0
  0
LINE
  5
B6
100
AcDbEntity
100
AcDbLine
  8
0
 62
256
370
-1
  6
ByLayer
 10
3.5460092014306279
 20
0.8850605840056905
 30
0.0
 11
3.5460091944891907
 21
0.8642286395959684
 31
0.0
  0
LINE
  5
B7
100
AcDbEntity
100
AcDbLine
  8
0
 62
256
370
-1
  6
ByLayer
 10
3.5598980903195168
 20
0.8503397507070803
 30
0.0
 11
3.5946203125417391
 21
0.8503397507070792
 31
0.0
  0
LINE
  5
B8
100
AcDbEntity
100
AcDbLine
  8
0
 62
256
370
-1
  6
ByLayer
 10
3.6085092014306279
 20
0.8642286395959682
 30
0.0
 11
3.6085092014306279
 21
0.8850619729293009
 31
0.0
  0
LINE
  5
B9
100
AcDbEntity
100
AcDbLine
  8
0
 62
256
370
-1
  6
ByLayer
 10
3.6085092014306279
 20
0.8850619729293009
 30
0.0
 11
3.5460092014306279
 21
0.8850605840056905
 31
0.0
  0
ARC
  5
BA
100
AcDbEntity
  8
0
 62
256
370
-1
  6
ByLayer
100
AcDbCircle
 10
3.5598980903195168
 20
0.8642286395959692
 30
0.0
 40
0.0138888888888889
100
AcDbArc
 50
180.0
 51
270.0
  0
ARC
  5
BB
100
AcDbEntity
  8
0
 62
256
370
-1
  6
ByLayer
100
AcDbCircle
 10
3.5946203125417391
 20
0.8642286395959692
 30
0.0
 40
0.0138888888888889
100
AcDbArc
 50
270.0
 51
360.0
  0
LINE
  5
BC
100
AcDbEntity
100
AcDbLine
  8
0
 62
256
370
-1
  6
ByLayer
 10
3.5822473125417384
 20
0.7750508618181927
 30
0.0
 11
3.5722710694861828
 21
0.7554904451515234
 31
0.0
  0
ARC
  5
BD
100
AcDbEntity
  8
0
 62
256
370
-1
  6
ByLayer
100
AcDbCircle
 10
3.5625022500417387
 20
0.7687418340404122
 30
0.0
 40
0.0460069444444444
100
AcDbArc
 50
333.0745840000000157
 51
360.0
  0
ARC
  5
BE
100
AcDbEntity
  8
0
 62
256
370
-1
  6
ByLayer
100
AcDbCircle
 10
3.5946203125417386
 20
0.7687418340404131
 30
0.0
 40
0.0138888888888889
100
AcDbArc
 50
360.0
 51
152.9811800000000233
  0
ARC
  5
BF
100
AcDbEntity
  8
0
 62
256
370
-1
  6
ByLayer
100
AcDbCircle
 10
3.5598980903195163
 20
0.7617973895959674
 30
0.0
 40
0.0138888888888889
100
AcDbArc
 50
180.0
 51
332.9811850000000391
  0
ARC
  5
C0
100
AcDbEntity
  8
0
 62
256
370
-1
  6
ByLayer
100
AcDbCircle
 10
3.5920161389306275
 20
0.761797389595968
 30
0.0
 40
0.0460069444444444
100
AcDbArc
 50
153.0745799999999974
 51
180.0
  0
LINE
  5
C1
100
AcDbEntity
100
AcDbLine
  8
0
 62
256
370
-1
  6
ByLayer
 10
3.5460092014306279
 20
0.7270744696215251
 30
0.0
 11
3.5460091944891907
 21
0.7062425252118029
 31
0.0
  0
LINE
  5
C2
100
AcDbEntity
100
AcDbLine
  8
0
 62
256
370
-1
  6
ByLayer
 10
3.5598980903195168
 20
0.6923536363229139
 30
0.0
 11
3.5946203125417391
 21
0.6923536363229119
 31
0.0
  0
LINE
  5
C3
100
AcDbEntity
100
AcDbLine
  8
0
 62
256
370
-1
  6
ByLayer
 10
3.6085092014306279
 20
0.706242525211801
 30
0.0
 11
3.6085092014306279
 21
0.7270758585451345
 31
0.0
  0
LINE
  5
C4
100
AcDbEntity
100
AcDbLine
  8
0
 62
256
370
-1
  6
ByLayer
 10
3.6085092014306279
 20
0.7270758585451345
 30
0.0
 11
3.5460092014306279
 21
0.7270744696215251
 31
0.0
  0
ARC
  5
C5
100
AcDbEntity
  8
0
 62
256
370
-1
  6
ByLayer
100
AcDbCircle
 10
3.5598980903195168
 20
0.7062425252118021
 30
0.0
 40
0.0138888888888889
100
AcDbArc
 50
180.0
 51
270.0
  0
ARC
  5
C6
100
AcDbEntity
  8
0
 62
256
370
-1
  6
ByLayer
100
AcDbCircle
 10
3.5946203125417391
 20
0.7062425252118011
 30
0.0
 40
0.0138888888888889
100
AcDbArc
 50
270.0
 51
360.0
  0
LINE
  5
C7
100
AcDbEntity
100
AcDbLine
  8
0
 62
256
370
-1
  6
ByLayer
 10
2.0209999999999999
 20
0.0520000000000035
 30
0.0
 11
2.0209999999999999
 21
0.2464999999999999
 31
0.0
  0
LINE
  5
C8
100
AcDbEntity
100
AcDbLine
  8
0
 62
256
370
-1
  6
ByLayer
 10
2.0209999999999999
 20
0.2464999999999999
 30
0.0
 11
3.3144999999999998
 21
0.2465000000000011
 31
0.0
  0
LINE
  5
C9
100
AcDbEntity
100
AcDbLine
  8
0
 62
256
370
-1
  6
ByLayer
 10
3.3144999999999998
 20
0.0519999999999768
 30
0.0
 11
2.0209999999999999
 21
0.0520000000000035
 31
0.0
  0
LINE
  5
CA
100
AcDbEntity
100
AcDbLine
  8
0
 62
256
370
-1
  6
ByLayer
 10
3.3144999999999998
 20
0.2465000000000011
 30
0.0
 11
3.3144999999999998
 21
0.0519999999999768
 31
0.0
  0
CIRCLE
  5
CB
100
AcDbEntity
100
AcDbCircle
  8
0
 62
256
370
-1
  6
ByLayer
 10
2.6677499999999998
 20
0.2012500000000023
 30
0.0
 40
0.01175
  0
CIRCLE
  5
CC
100
AcDbEntity
100
AcDbCircle
  8
0
 62
256
370
-1
  6
ByLayer
 10
2.6677499999999998
 20
0.0972500000000017
 30
0.0
 40
0.01175
  0
CIRCLE
  5
CD
100
AcDbEntity
100
AcDbCircle
  8
0
 62
256
370
-1
  6
ByLayer
 10
2.0677500000000002
 20
0.201250000000003
 30
0.0
 40
0.01175
  0
CIRCLE
  5
CE
100
AcDbEntity
100
AcDbCircle
  8
0
 62
256
370
-1
  6
ByLayer
 10
2.1677499999999998
 20
0.2012500000000002
 30
0.0
 40
0.01175
  0
CIRCLE
  5
CF
100
AcDbEntity
100
AcDbCircle
  8
0
 62
256
370
-1
  6
ByLayer
 10
2.2677499999999999
 20
0.2012500000000038
 30
0.0
 40
0.01175
  0
CIRCLE
  5
D0
100
AcDbEntity
100
AcDbCircle
  8
0
 62
256
370
-1
  6
ByLayer
 10
2.36775
 20
0.2012500000000028
 30
0.0
 40
0.01175
  0
CIRCLE
  5
D1
100
AcDbEntity
100
AcDbCircle
  8
0
 62
256
370
-1
  6
ByLayer
 10
2.5677500000000002
 20
0.2012499999999978
 30
0.0
 40
0.01175
  0
CIRCLE
  5
D2
100
AcDbEntity
100
AcDbCircle
  8
0
 62
256
370
-1
  6
ByLayer
 10
2.4677500000000001
 20
0.2012499999999995
 30
0.0
 40
0.01175
  0
CIRCLE
  5
D3
100
AcDbEntity
100
AcDbCircle
  8
0
 62
256
370
-1
  6
ByLayer
 10
2.36775
 20
0.0972500000000045
 30
0.0
 40
0.01175
  0
CIRCLE
  5
D4
100
AcDbEntity
100
AcDbCircle
  8
0
 62
256
370
-1
  6
ByLayer
 10
2.4677500000000001
 20
0.0972499999999972
 30
0.0
 40
0.01175
  0
CIRCLE
  5
D5
100
AcDbEntity
100
AcDbCircle
  8
0
 62
256
370
-1
  6
ByLayer
 10
2.5677500000000002
 20
0.0972500000000003
 30
0.0
 40
0.01175
  0
CIRCLE
  5
D6
100
AcDbEntity
100
AcDbCircle
  8
0
 62
256
370
-1
  6
ByLayer
 10
2.2677499999999999
 20
0.0972500000000006
 30
0.0
 40
0.01175
  0
CIRCLE
  5
D7
100
AcDbEntity
100
AcDbCircle
  8
0
 62
256
370
-1
  6
ByLayer
 10
2.1677499999999998
 20
0.0972500000000066
 30
0.0
 40
0.01175
  0
CIRCLE
  5
D8
100
AcDbEntity
100
AcDbCircle
  8
0
 62
256
370
-1
  6
ByLayer
 10
2.0677500000000002
 20
0.0972500000000019
 30
0.0
 40
0.01175
  0
CIRCLE
  5
D9
100
AcDbEntity
100
AcDbCircle
  8
0
 62
256
370
-1
  6
ByLayer
 10
2.86775
 20
0.0972499999999987
 30
0.0
 40
0.01175
  0
CIRCLE
  5
DA
100
AcDbEntity
100
AcDbCircle
  8
0
 62
256
370
-1
  6
ByLayer
 10
2.7677499999999999
 20
0.0972500000000056
 30
0.0
 40
0.01175
  0
CIRCLE
  5
DB
100
AcDbEntity
100
AcDbCircle
  8
0
 62
256
370
-1
  6
ByLayer
 10
2.7677499999999999
 20
0.2012499999999992
 30
0.0
 40
0.01175
  0
CIRCLE
  5
DC
100
AcDbEntity
100
AcDbCircle
  8
0
 62
256
370
-1
  6
ByLayer
 10
2.86775
 20
0.2012499999999957
 30
0.0
 40
0.01175
  0
CIRCLE
  5
DD
100
AcDbEntity
100
AcDbCircle
  8
0
 62
256
370
-1
  6
ByLayer
 10
2.9677499999999997
 20
0.2012500000000035
 30
0.0
 40
0.01175
  0
CIRCLE
  5
DE
100
AcDbEntity
100
AcDbCircle
  8
0
 62
256
370
-1
  6
ByLayer
 10
3.0677500000000002
 20
0.2012499999999997
 30
0.0
 40
0.01175
  0
CIRCLE
  5
DF
100
AcDbEntity
100
AcDbCircle
  8
0
 62
256
370
-1
  6
ByLayer
 10
3.0677500000000002
 20
0.0972499999999986
 30
0.0
 40
0.01175
  0
CIRCLE
  5
E0
100
AcDbEntity
100
AcDbCircle
  8
0
 62
256
370
-1
  6
ByLayer
 10
2.9677499999999997
 20
0.0972499999999985
 30
0.0
 40
0.01175
  0
CIRCLE
  5
E1
100
AcDbEntity
100
AcDbCircle
  8
0
 62
256
370
-1
  6
ByLayer
 10
3.1677499999999998
 20
0.2012500000000041
 30
0.0
 40
0.01175
  0
CIRCLE
  5
E2
100
AcDbEntity
100
AcDbCircle
  8
0
 62
256
370
-1
  6
ByLayer
 10
3.2677500000000004
 20
0.2012500000000023
 30
0.0
 40
0.01175
  0
CIRCLE
  5
E3
100
AcDbEntity
100
AcDbCircle
  8
0
 62
256
370
-1
  6
ByLayer
 10
3.2677500000000004
 20
0.0972500000000142
 30
0.0
 40
0.01175
  0
CIRCLE
  5
E4
100
AcDbEntity
100
AcDbCircle
  8
0
 62
256
370
-1
  6
ByLayer
 10
3.1677499999999998
 20
0.0972500000000029
 30
0.0
 40
0.01175
  0
LINE
  5
E5
100
AcDbEntity
100
AcDbLine
  8
0
 62
256
370
-1
  6
ByLayer
 10
1.3192500000000003
 20
0.09
 30
0.0
 11
1.3192500000000003
 21
0.475
 31
0.0
  0
LINE
  5
E6
100
AcDbEntity
100
AcDbLine
  8
0
 62
256
370
-1
  6
ByLayer
 10
1.70825
 20
0.09
 30
0.0
 11
1.70825
 21
0.475
 31
0.0
  0
LINE
  5
E7
100
AcDbEntity
100
AcDbLine
  8
0
 62
256
370
-1
  6
ByLayer
 10
1.3192500000000003
 20
0.475
 30
0.0
 11
1.70825
 21
0.475
 31
0.0
  0
LINE
  5
E8
100
AcDbEntity
100
AcDbLine
  8
0
 62
256
370
-1
  6
ByLayer
 10
1.3515000000000001
 20
0.09
 30
0.0
 11
1.3515000000000001
 21
-0.2780000000000005
 31
0.0
  0
LINE
  5
E9
100
AcDbEntity
100
AcDbLine
  8
0
 62
256
370
-1
  6
ByLayer
 10
1.6760000000000002
 20
-0.278
 30
0.0
 11
1.6760000000000002
 21
0.09
 31
0.0
  0
LINE
  5
EA
100
AcDbEntity
100
AcDbLine
  8
0
 62
256
370
-1
  6
ByLayer
 10
1.3192500000000003
 20
0.09
 30
0.0
 11
1.70825
 21
0.09
 31
0.0
  0
LINE
  5
EB
100
AcDbEntity
100
AcDbLine
  8
0
 62
256
370
-1
  6
ByLayer
 10
0.0
 20
0.0
 30
0.0
 11
0.6565
 21
0.0
 31
0.0
  0
LINE
  5
EC
100
AcDbEntity
100
AcDbLine
  8
0
 62
256
370
-1
  6
DASHED
 10
0.78925
 20
0.0
 30
0.0
 11
0.78925
 21
0.002
 31
0.0
  0
LINE
  5
ED
100
AcDbEntity
100
AcDbLine
  8
0
 62
256
370
-1
  6
ByLayer
 10
0.78925
 20
0.002
 30
0.0
 11
1.0225
 21
0.002
 31
0.0
  0
LINE
  5
EE
100
AcDbEntity
100
AcDbLine
  8
0
 62
256
370
-1
  6
ByLayer
 10
0.78925
 20
0.002
 30
0.0
 11
0.556
 21
0.002
 31
0.0
  0
LINE
  5
EF
100
AcDbEntity
100
AcDbLine
  8
0
 62
256
370
-1
  6
ByLayer
 10
1.0225
 20
0.002
 30
0.0
 11
1.0225
 21
0.4615
 31
0.0
  0
LINE
  5
F0
100
AcDbEntity
100
AcDbLine
  8
0
 62
256
370
-1
  6
ByLayer
 10
0.556
 20
0.002
 30
0.0
 11
0.556
 21
0.4615
 31
0.0
  0
LINE
  5
F1
100
AcDbEntity
100
AcDbLine
  8
0
 62
256
370
-1
  6
ByLayer
 10
0.556
 20
0.4615
 30
0.0
 11
1.0225
 21
0.4615
 31
0.0
  0
LINE
  5
F2
100
AcDbEntity
100
AcDbLine
  8
0
 62
256
370
-1
  6
ByLayer
 10
3.3445
 20
0.0
 30
0.0
 11
1.6760000000000002
 21
0.0
 31
0.0
  0
LINE
  5
F3
100
AcDbEntity
100
AcDbLine
  8
0
 62
256
370
-1
  6
ByLayer
 10
1.3515000000000001
 20
0.0
 30
0.0
 11
0.922
 21
0.0
 31
0.0
  0
LINE
  5
F4
100
AcDbEntity
100
AcDbLine
  8
0
 62
256
370
-1
  6
ByLayer
 10
1.4012998769734561
 20
0.2082623235058592
 30
0.0
 11
1.4221332103067892
 21
0.1457623165644213
 31
0.0
  0
LINE
  5
F5
100
AcDbEntity
100
AcDbLine
  8
0
 62
256
370
-1
  6
ByLayer
 10
1.4221332103067892
 20
0.1457623165644213
 30
0.0
 11
1.4429665436401227
 21
0.2082623235058583
 31
0.0
  0
LINE
  5
F6
100
AcDbEntity
100
AcDbLine
  8
0
 62
256
370
-1
  6
ByLayer
 10
1.4638005714179005
 20
0.2082623235058605
 30
0.0
 11
1.4638005714526219
 21
0.1457623235058594
 31
0.0
  0
LINE
  5
F7
100
AcDbEntity
100
AcDbLine
  8
0
 62
256
370
-1
  6
ByLayer
 10
1.4846345992303995
 20
0.1457623235058591
 30
0.0
 11
1.5054665436401227
 21
0.1457623165644225
 31
0.0
  0
LINE
  5
F8
100
AcDbEntity
100
AcDbLine
  8
0
 62
256
370
-1
  6
ByLayer
 10
1.5193554325290115
 20
0.1596512123947477
 30
0.0
 11
1.5193554325290115
 21
0.1943734346169704
 31
0.0
  0
LINE
  5
F9
100
AcDbEntity
100
AcDbLine
  8
0
 62
256
370
-1
  6
ByLayer
 10
1.5054665436401227
 20
0.2082623235058609
 30
0.0
 11
1.4846332103067894
 21
0.2082623235058608
 31
0.0
  0
LINE
  5
FA
100
AcDbEntity
100
AcDbLine
  8
0
 62
256
370
-1
  6
ByLayer
 10
1.4846332103067894
 20
0.2082623235058608
 30
0.0
 11
1.4846345992303995
 21
0.1457623235058591
 31
0.0
  0
ARC
  5
FB
100
AcDbEntity
  8
0
 62
256
370
-1
  6
ByLayer
100
AcDbCircle
 10
1.5054665436401227
 20
0.159651212394749
 30
0.0
 40
0.0138888888888889
100
AcDbArc
 50
270.0
 51
0.0
  0
ARC
  5
FC
100
AcDbEntity
  8
0
 62
256
370
-1
  6
ByLayer
100
AcDbCircle
 10
1.5054665436401227
 20
0.1943734346169704
 30
0.0
 40
0.0138888888888889
100
AcDbArc
 50
0.0
 51
90.0
  0
LINE
  5
FD
100
AcDbEntity
100
AcDbLine
  8
0
 62
256
370
-1
  6
ByLayer
 10
1.5679658491956783
 20
0.2082623235058582
 30
0.0
 11
1.540188765862345
 21
0.2082623235058612
 31
0.0
  0
LINE
  5
FE
100
AcDbEntity
100
AcDbLine
  8
0
 62
256
370
-1
  6
ByLayer
 10
1.540188765862345
 20
0.2082623235058612
 30
0.0
 11
1.5401887728067893
 21
0.1457623235058609
 31
0.0
  0
LINE
  5
FF
100
AcDbEntity
100
AcDbLine
  8
0
 62
256
370
-1
  6
ByLayer
 10
1.5401887728067893
 20
0.1457623235058609
 30
0.0
 11
1.5679658491956783
 21
0.1457623165674491
 31
0.0
  0
LINE
  5
100
100
AcDbEntity
100
AcDbLine
  8
0
 62
256
370
-1
  6
ByLayer
 10
1.540188765862345
 20
0.1804845387836368
 30
0.0
 11
1.5610214047512339
 21
0.1804845387836365
 31
0.0
  0
LINE
  5
101
100
AcDbEntity
100
AcDbLine
  8
0
 62
256
370
-1
  6
ByLayer
 10
1.5887991825290115
 20
0.159651212394749
 30
0.0
 11
1.5887991825290115
 21
0.1943734346169717
 31
0.0
  0
LINE
  5
102
100
AcDbEntity
100
AcDbLine
  8
0
 62
256
370
-1
  6
ByLayer
 10
1.6026880714179004
 20
0.2082623235058602
 30
0.0
 11
1.6096318214179004
 21
0.2082623235058586
 31
0.0
  0
LINE
  5
103
100
AcDbEntity
100
AcDbLine
  8
0
 62
256
370
-1
  6
ByLayer
 10
1.6235207103067892
 20
0.1943734346169713
 30
0.0
 11
1.6235207103067892
 21
0.159651212394748
 31
0.0
  0
LINE
  5
104
100
AcDbEntity
100
AcDbLine
  8
0
 62
256
370
-1
  6
ByLayer
 10
1.6096318214179004
 20
0.1457623165644234
 30
0.0
 11
1.6026880714179004
 21
0.1457623165611067
 31
0.0
  0
ARC
  5
105
100
AcDbEntity
  8
0
 62
256
370
-1
  6
ByLayer
100
AcDbCircle
 10
1.6026880714179004
 20
0.1943734346169691
 30
0.0
 40
0.0138888888888889
100
AcDbArc
 50
90.0
 51
180.0
  0
ARC
  5
106
100
AcDbEntity
  8
0
 62
256
370
-1
  6
ByLayer
100
AcDbCircle
 10
1.6096318214179004
 20
0.1943734346169709
 30
0.0
 40
0.0138888888888889
100
AcDbArc
 50
0.0
 51
90.0
  0
ARC
  5
107
100
AcDbEntity
  8
0
 62
256
370
-1
  6
ByLayer
100
AcDbCircle
 10
1.6096318214179004
 20
0.1596512123947491
 30
0.0
 40
0.0138888888888889
100
AcDbArc
 50
270.0
 51
0.0
  0
ARC
  5
108
100
AcDbEntity
  8
0
 62
256
370
-1
  6
ByLayer
100
AcDbCircle
 10
1.6026880714179004
 20
0.1596512123947479
 30
0.0
 40
0.0138888888888889
100
AcDbArc
 50
180.0
 51
270.0
  0
LINE
  5
109
100
AcDbEntity
100
AcDbLine
  8
0
 62
256
370
-1
  6
ByLayer
 10
0.6616341673619821
 20
0.1457623165644213
 30
0.0
 11
0.6824654173272608
 21
0.2082623165644227
 31
0.0
  0
LINE
  5
10A
100
AcDbEntity
100
AcDbLine
  8
0
 62
256
370
-1
  6
ByLayer
 10
0.6824654173272608
 20
0.2082623165644227
 30
0.0
 11
0.7033008339939275
 21
0.1457623096504614
 31
0.0
  0
LINE
  5
10B
100
AcDbEntity
100
AcDbLine
  8
0
 62
256
370
-1
  6
ByLayer
 10
0.6674202784383719
 20
0.1631234276755334
 30
0.0
 11
0.6975126395494831
 21
0.1631234276755355
 31
0.0
  0
LINE
  5
10C
100
AcDbEntity
100
AcDbLine
  8
0
 62
256
370
-1
  6
ByLayer
 10
0.7241334728828164
 20
0.2082623165644221
 30
0.0
 11
0.7241334728828164
 21
0.163123427675534
 31
0.0
  0
LINE
  5
10D
100
AcDbEntity
100
AcDbLine
  8
0
 62
256
370
-1
  6
ByLayer
 10
0.7588556951050386
 20
0.1631234276755333
 30
0.0
 11
0.7588556951050386
 21
0.2082623165644222
 31
0.0
  0
ARC
  5
10E
100
AcDbEntity
  8
0
 62
256
370
-1
  6
ByLayer
100
AcDbCircle
 10
0.7414945839939274
 20
0.1631234276755327
 30
0.0
 40
0.0173611111111111
100
AcDbArc
 50
180.0
 51
0.0
  0
LINE
  5
10F
100
AcDbEntity
100
AcDbLine
  8
0
 62
256
370
-1
  6
ByLayer
 10
0.7796897229175377
 20
0.1457623165644237
 30
0.0
 11
0.8005216673272608
 21
0.1457623096229877
 31
0.0
  0
LINE
  5
110
100
AcDbEntity
100
AcDbLine
  8
0
 62
256
370
-1
  6
ByLayer
 10
0.8144105562161498
 20
0.1596512054533088
 30
0.0
 11
0.8144105562161498
 21
0.1943734276755327
 31
0.0
  0
LINE
  5
111
100
AcDbEntity
100
AcDbLine
  8
0
 62
256
370
-1
  6
ByLayer
 10
0.8005216673272608
 20
0.2082623165644224
 30
0.0
 11
0.7796883339939276
 21
0.2082623165644225
 31
0.0
  0
LINE
  5
112
100
AcDbEntity
100
AcDbLine
  8
0
 62
256
370
-1
  6
ByLayer
 10
0.7796883339939276
 20
0.2082623165644225
 30
0.0
 11
0.7796897229175377
 21
0.1457623165644237
 31
0.0
  0
ARC
  5
113
100
AcDbEntity
  8
0
 62
256
370
-1
  6
ByLayer
100
AcDbCircle
 10
0.8005216673272608
 20
0.1596512054533124
 30
0.0
 40
0.0138888888888889
100
AcDbArc
 50
270.0
 51
0.0
  0
ARC
  5
114
100
AcDbEntity
  8
0
 62
256
370
-1
  6
ByLayer
100
AcDbCircle
 10
0.8005216673272608
 20
0.1943734276755341
 30
0.0
 40
0.0138888888888889
100
AcDbArc
 50
0.0
 51
90.0
  0
LINE
  5
115
100
AcDbEntity
100
AcDbLine
  8
0
 62
256
370
-1
  6
ByLayer
 10
0.8352445839939274
 20
0.2082623165644225
 30
0.0
 11
0.8352445840286488
 21
0.1457623165644235
 31
0.0
  0
LINE
  5
116
100
AcDbEntity
100
AcDbLine
  8
0
 62
256
370
-1
  6
ByLayer
 10
0.8560779173272608
 20
0.159651205453311
 30
0.0
 11
0.8560779173272608
 21
0.1943734276755348
 31
0.0
  0
LINE
  5
117
100
AcDbEntity
100
AcDbLine
  8
0
 62
256
370
-1
  6
ByLayer
 10
0.8699668062161496
 20
0.2082623165644235
 30
0.0
 11
0.8769105562161497
 21
0.2082623165644236
 31
0.0
  0
LINE
  5
118
100
AcDbEntity
100
AcDbLine
  8
0
 62
256
370
-1
  6
ByLayer
 10
0.8907994451050386
 20
0.1943734276755349
 30
0.0
 11
0.8907994451050386
 21
0.1596512054533128
 31
0.0
  0
LINE
  5
119
100
AcDbEntity
100
AcDbLine
  8
0
 62
256
370
-1
  6
ByLayer
 10
0.8769105562161497
 20
0.1457623096229851
 30
0.0
 11
0.8699668062161496
 21
0.1457623096196689
 31
0.0
  0
ARC
  5
11A
100
AcDbEntity
  8
0
 62
256
370
-1
  6
ByLayer
100
AcDbCircle
 10
0.8699668062161496
 20
0.194373427675534
 30
0.0
 40
0.0138888888888889
100
AcDbArc
 50
90.0
 51
180.0
  0
ARC
  5
11B
100
AcDbEntity
  8
0
 62
256
370
-1
  6
ByLayer
100
AcDbCircle
 10
0.8769105562161497
 20
0.1943734276755347
 30
0.0
 40
0.0138888888888889
100
AcDbArc
 50
0.0
 51
90.0
  0
ARC
  5
11C
100
AcDbEntity
  8
0
 62
256
370
-1
  6
ByLayer
100
AcDbCircle
 10
0.8769105562161497
 20
0.1596512054533124
 30
0.0
 40
0.0138888888888889
100
AcDbArc
 50
270.0
 51
0.0
  0
ARC
  5
11D
100
AcDbEntity
  8
0
 62
256
370
-1
  6
ByLayer
100
AcDbCircle
 10
0.8699668062161496
 20
0.1596512054533121
 30
0.0
 40
0.0138888888888889
100
AcDbArc
 50
180.0
 51
270.0
  0
LINE
  5
11E
100
AcDbEntity
100
AcDbLine
  8
0
 62
256
370
-1
  6
ByLayer
 10
0.0385037791411075
 20
0.8995947661895316
 30
0.0
 11
0.0836426680299964
 21
0.8995947661895316
 31
0.0
  0
LINE
  5
11F
100
AcDbEntity
100
AcDbLine
  8
0
 62
256
370
-1
  6
ByLayer
 10
0.0836426680299964
 20
0.9343169884117538
 30
0.0
 11
0.0385037791411076
 21
0.9343169884117538
 31
0.0
  0
ARC
  5
120
100
AcDbEntity
  8
0
 62
256
370
-1
  6
ByLayer
100
AcDbCircle
 10
0.0836426680299964
 20
0.9169558773006427
 30
0.0
 40
0.0173611111111111
100
AcDbArc
 50
270.0
 51
90.0
  0
LINE
  5
121
100
AcDbEntity
100
AcDbLine
  8
0
 62
256
370
-1
  6
ByLayer
 10
0.0647656680299965
 20
0.9627308773006427
 30
0.0
 11
0.074741911085552
 21
0.9822912939673092
 31
0.0
  0
ARC
  5
122
100
AcDbEntity
  8
0
 62
256
370
-1
  6
ByLayer
100
AcDbCircle
 10
0.0845107305299964
 20
0.9690399050784204
 30
0.0
 40
0.0460069444444444
100
AcDbArc
 50
153.0745840000000157
 51
180.0
  0
ARC
  5
123
100
AcDbEntity
  8
0
 62
256
370
-1
  6
ByLayer
100
AcDbCircle
 10
0.0523926680299965
 20
0.9690399050784205
 30
0.0
 40
0.0138888888888889
100
AcDbArc
 50
180.0
 51
332.9811799999999948
  0
ARC
  5
124
100
AcDbEntity
  8
0
 62
256
370
-1
  6
ByLayer
100
AcDbCircle
 10
0.0871148902522187
 20
0.9759843495228648
 30
0.0
 40
0.0138888888888889
100
AcDbArc
 50
360.0
 51
152.9811850000000106
  0
ARC
  5
125
100
AcDbEntity
  8
0
 62
256
370
-1
  6
ByLayer
100
AcDbCircle
 10
0.0549968416411076
 20
0.9759843495228648
 30
0.0
 40
0.0460069444444444
100
AcDbArc
 50
333.074579999999969
 51
360.0
  0
LINE
  5
126
100
AcDbEntity
100
AcDbLine
  8
0
 62
256
370
-1
  6
ByLayer
 10
0.1010037791411075
 20
1.0107072694973092
 30
0.0
 11
0.0385037791411076
 21
1.0107058805736988
 31
0.0
  0
LINE
  5
127
100
AcDbEntity
100
AcDbLine
  8
0
 62
256
370
-1
  6
ByLayer
 10
0.0385037791411076
 20
1.0107058805736988
 30
0.0
 11
0.0385037791411075
 21
1.0280669916848098
 31
0.0
  0
LINE
  5
128
100
AcDbEntity
100
AcDbLine
  8
0
 62
256
370
-1
  6
ByLayer
 10
0.0662815638633298
 20
1.0107058805736988
 30
0.0
 11
0.0662815638633299
 21
1.0287621305736989
 31
0.0
  0
LINE
  5
129
100
AcDbEntity
100
AcDbLine
  8
0
 62
256
370
-1
  6
ByLayer
 10
0.0829482305299964
 20
1.0454281027959209
 30
0.0
 11
0.08433712636333
 21
1.0454281027959209
 31
0.0
  0
LINE
  5
12A
100
AcDbEntity
100
AcDbLine
  8
0
 62
256
370
-1
  6
ByLayer
 10
0.101003786084442
 20
1.0287621305736987
 30
0.0
 11
0.1010037791411075
 21
1.0107072694973092
 31
0.0
  0
ARC
  5
12B
100
AcDbEntity
  8
0
 62
256
370
-1
  6
ByLayer
100
AcDbCircle
 10
0.0523926680299965
 20
1.02806699168481
 30
0.0
 40
0.0138888888888889
100
AcDbArc
 50
360.0
 51
180.0
  0
ARC
  5
12C
100
AcDbEntity
  8
0
 62
256
370
-1
  6
ByLayer
100
AcDbCircle
 10
0.0829482305299965
 20
1.0287621305736987
 30
0.0
 40
0.0166666666666667
100
AcDbArc
 50
90.0
 51
180.0
  0
ARC
  5
12D
100
AcDbEntity
  8
0
 62
256
370
-1
  6
ByLayer
100
AcDbCircle
 10
0.0843371263633299
 20
1.0287621305736989
 30
0.0
 40
0.0166666666666667
100
AcDbArc
 50
360.0
 51
90.0
  0
LINE
  5
12E
100
AcDbEntity
100
AcDbLine
  8
0
 62
256
370
-1
  6
ByLayer
 10
1.4997041057427221
 20
2.1604633598037508
 30
0.0
 11
1.4997041126871666
 21
2.0979633598037508
 31
0.0
  0
LINE
  5
12F
100
AcDbEntity
100
AcDbLine
  8
0
 62
256
370
-1
  6
ByLayer
 10
1.5344263279649444
 20
2.0979633528620822
 30
0.0
 11
1.5344263279649444
 21
2.1604633598037513
 31
0.0
  0
LINE
  5
130
100
AcDbEntity
100
AcDbLine
  8
0
 62
256
370
-1
  6
ByLayer
 10
1.4997041057427223
 20
2.132685575081529
 30
0.0
 11
1.5344263279649444
 21
2.1326855750815286
 31
0.0
  0
LINE
  5
131
100
AcDbEntity
100
AcDbLine
  8
0
 62
256
370
-1
  6
ByLayer
 10
1.5552603557774434
 20
2.0979633598037504
 30
0.0
 11
1.5760923001871665
 21
2.0979633528623136
 31
0.0
  0
LINE
  5
132
100
AcDbEntity
100
AcDbLine
  8
0
 62
256
370
-1
  6
ByLayer
 10
1.5899811890760551
 20
2.1118522486926397
 30
0.0
 11
1.5899811890760553
 21
2.146574470914862
 31
0.0
  0
LINE
  5
133
100
AcDbEntity
100
AcDbLine
  8
0
 62
256
370
-1
  6
ByLayer
 10
1.5760923001871665
 20
2.1604633598037508
 30
0.0
 11
1.555258966853833
 21
2.1604633598037508
 31
0.0
  0
LINE
  5
134
100
AcDbEntity
100
AcDbLine
  8
0
 62
256
370
-1
  6
ByLayer
 10
1.555258966853833
 20
2.1604633598037508
 30
0.0
 11
1.5552603557774434
 21
2.0979633598037504
 31
0.0
  0
ARC
  5
135
100
AcDbEntity
  8
0
 62
256
370
-1
  6
ByLayer
100
AcDbCircle
 10
1.5760923001871667
 20
2.1118522486926397
 30
0.0
 40
0.0138888888888889
100
AcDbArc
 50
270.0
 51
0.0
  0
ARC
  5
136
100
AcDbEntity
  8
0
 62
256
370
-1
  6
ByLayer
100
AcDbCircle
 10
1.5760923001871665
 20
2.146574470914862
 30
0.0
 40
0.0138888888888889
100
AcDbArc
 50
0.0
 51
90.0
  0
LINE
  5
137
100
AcDbEntity
100
AcDbLine
  8
0
 62
256
370
-1
  6
ByLayer
 10
1.6108152168885543
 20
2.0979633598037504
 30
0.0
 11
1.6108138279649442
 21
2.1604633598037508
 31
0.0
  0
LINE
  5
138
100
AcDbEntity
100
AcDbLine
  8
0
 62
256
370
-1
  6
ByLayer
 10
1.6108138279649442
 20
2.1604633598037508
 30
0.0
 11
1.6316471612982775
 21
2.1257411375815281
 31
0.0
  0
LINE
  5
139
100
AcDbEntity
100
AcDbLine
  8
0
 62
256
370
-1
  6
ByLayer
 10
1.6316471612982775
 20
2.1257411375815281
 30
0.0
 11
1.6524804946316107
 21
2.1604633598037508
 31
0.0
  0
LINE
  5
13A
100
AcDbEntity
100
AcDbLine
  8
0
 62
256
370
-1
  6
ByLayer
 10
1.6524804946316107
 20
2.1604633598037508
 30
0.0
 11
1.6524804946316107
 21
2.097963352834487
 31
0.0
  0
LINE
  5
13B
100
AcDbEntity
100
AcDbLine
  8
0
 62
256
370
-1
  6
ByLayer
 10
1.6733145224093888
 20
2.1604633598037504
 30
0.0
 11
1.6733145224441099
 21
2.0979633598037508
 31
0.0
  0
LINE
  5
13C
100
AcDbEntity
100
AcDbLine
  8
0
 62
256
370
-1
  6
DASHED
 10
3.3445
 20
2.0640000000000001
 30
0.0
 11
3.3645
 21
2.0640000000000001
 31
0.0
  0
LINE
  5
13D
100
AcDbEntity
100
AcDbLine
  8
0
 62
256
370
-1
  6
ByLayer
 10
3.3645
 20
2.0640000000000001
 30
0.0
 11
3.3645
 21
1.748
 31
0.0
  0
LINE
  5
13E
100
AcDbEntity
100
AcDbLine
  8
0
 62
256
370
-1
  6
ByLayer
 10
3.3645
 20
1.748
 30
0.0
 11
3.3445
 21
1.748
 31
0.0
  0
LINE
  5
13F
100
AcDbEntity
100
AcDbLine
  8
0
 62
256
370
-1
  6
ByLayer
 10
3.3645
 20
2.0640000000000001
 30
0.0
 11
3.1459999999999999
 21
2.0640000000000001
 31
0.0
  0
LINE
  5
140
100
AcDbEntity
100
AcDbLine
  8
0
 62
256
370
-1
  6
ByLayer
 10
3.3645
 20
1.748
 30
0.0
 11
3.1459999999999999
 21
1.748
 31
0.0
  0
LINE
  5
141
100
AcDbEntity
100
AcDbLine
  8
0
 62
256
370
-1
  6
ByLayer
 10
3.1459999999999999
 20
1.748
 30
0.0
 11
3.1459999999999999
 21
2.0640000000000001
 31
0.0
  0
MTEXT
  5
142
100
AcDbEntity
100
AcDbMText
  8
0
 62
256
370
-1
  6
ByLayer
 10
3.2863361963191333
 20
1.9742773006135659
 30
0.0
 40
0.0625
 41
100.0
 71
1
 72
2
  1
USB
  7
normallatin1
 50
-90.0
 73
0
 44
1.0
  0
LINE
  5
143
100
AcDbEntity
100
AcDbLine
  8
0
 62
256
370
-1
  6
DASHED
 10
2.7109999999999999
 20
1.5900000000000001
 30
0.0
 11
2.7109999999999999
 21
0.479
 31
0.0
  0
LINE
  5
144
100
AcDbEntity
100
AcDbLine
  8
0
 62
256
370
-1
  6
DASHED
 10
3.2109999999999999
 20
0.479
 30
0.0
 11
2.7109999999999999
 21
0.479
 31
0.0
  0
LINE
  5
145
100
AcDbEntity
100
AcDbLine
  8
0
 62
256
370
-1
  6
DASHED
 10
3.3100000000000001
 20
0.443
 30
0.0
 11
3.2109999999999999
 21
0.443
 31
0.0
  0
LINE
  5
146
100
AcDbEntity
100
AcDbLine
  8
0
 62
256
370
-1
  6
DASHED
 10
3.2109999999999999
 20
0.479
 30
0.0
 11
3.2109999999999999
 21
0.443
 31
0.0
  0
LINE
  5
147
100
AcDbEntity
100
AcDbLine
  8
0
 62
256
370
-1
  6
DASHED
 10
3.3100000000000001
 20
0.5415
 30
0.0
 11
3.3100000000000001
 21
0.443
 31
0.0
  0
LINE
  5
148
100
AcDbEntity
100
AcDbLine
  8
0
 62
256
370
-1
  6
DASHED
 10
3.3100000000000001
 20
1.4855
 30
0.0
 11
3.3100000000000001
 21
0.5415
 31
0.0
  0
LINE
  5
149
100
AcDbEntity
100
AcDbLine
  8
0
 62
256
370
-1
  6
DASHED
 10
3.3100000000000001
 20
1.4855
 30
0.0
 11
3.3100000000000001
 21
1.6259999999999999
 31
0.0
  0
LINE
  5
14A
100
AcDbEntity
100
AcDbLine
  8
0
 62
256
370
-1
  6
DASHED
 10
3.3100000000000001
 20
1.6259999999999999
 30
0.0
 11
3.2109999999999999
 21
1.6259999999999999
 31
0.0
  0
LINE
  5
14B
100
AcDbEntity
100
AcDbLine
  8
0
 62
256
370
-1
  6
DASHED
 10
3.2109999999999999
 20
1.6259999999999999
 30
0.0
 11
3.2109999999999999
 21
1.5900000000000001
 31
0.0
  0
LINE
  5
14C
100
AcDbEntity
100
AcDbLine
  8
0
 62
256
370
-1
  6
DASHED
 10
3.2109999999999999
 20
1.5900000000000001
 30
0.0
 11
2.7109999999999999
 21
1.5900000000000001
 31
0.0
  0
LINE
  5
14D
100
AcDbEntity
100
AcDbLine
  8
0
 62
256
370
-1
  6
ByLayer
 10
4.0265000000000004
 20
1.4854999999999987
 30
0.0
 11
3.3445
 21
1.4854999999999987
 31
0.0
  0
LINE
  5
14E
100
AcDbEntity
100
AcDbLine
  8
0
 62
256
370
-1
  6
ByLayer
 10
4.0265000000000004
 20
0.5414999999999951
 30
0.0
 11
3.3445
 21
0.5414999999999951
 31
0.0
  0
LINE
  5
14F
100
AcDbEntity
100
AcDbLine
  8
Bottom
 62
256
370
-1
  6
ByLayer
 10
3.3445
 20
1.4854999999999987
 30
0.0
 11
3.3100000000000001
 21
1.4854999999999987
 31
0.0
  0
LINE
  5
150
100
AcDbEntity
100
AcDbLine
  8
Bottom
 62
256
370
-1
  6
ByLayer
 10
3.3445
 20
0.5414999999999951
 30
0.0
 11
3.3100000000000001
 21
0.5414999999999951
 31
0.0
  0
LINE
  5
151
100
AcDbEntity
100
AcDbLine
  8
0
 62
256
370
-1
  6
ByLayer
 10
3.3445
 20
2.2040000000000002
 30
0.0
 11
3.3445
 21
2.0640000000000001
 31
0.0
  0
LINE
  5
152
100
AcDbEntity
100
AcDbLine
  8
Bottom
 62
256
370
-1
  6
ByLayer
 10
3.3445
 20
2.0640000000000001
 30
0.0
 11
3.3445
 21
1.748
 31
0.0
  0
LINE
  5
153
100
AcDbEntity
100
AcDbLine
  8
0
 62
256
370
-1
  6
ByLayer
 10
3.3445
 20
1.748
 30
0.0
 11
3.3445
 21
0.0
 31
0.0
  0
LINE
  5
154
100
AcDbEntity
100
AcDbLine
  8
0
 62
256
370
-1
  6
ByLayer
 10
1.8795000000000002
 20
2.2040000000000002
 30
0.0
 11
3.3445
 21
2.2040000000000002
 31
0.0
  0
LINE
  5
155
100
AcDbEntity
100
AcDbLine
  8
0
 62
256
370
-1
  6
ByLayer
 10
0.0000000000000001
 20
2.2039999999999997
 30
0.0
 11
1.288
 21
2.2039999999999997
 31
0.0
  0
LINE
  5
156
100
AcDbEntity
100
AcDbLine
  8
Bottom
 62
256
370
-1
  6
ByLayer
 10
1.288
 20
2.2039999999999997
 30
0.0
 11
1.8795000000000002
 21
2.2039999999999997
 31
0.0
  0
LINE
  5
157
100
AcDbEntity
100
AcDbLine
  8
0
 62
256
370
-1
  6
ByLayer
 10
0.0000000000000001
 20
2.1234999999999999
 30
0.0
 11
0.0000000000000001
 21
2.2039999999999997
 31
0.0
  0
LINE
  5
158
100
AcDbEntity
100
AcDbLine
  8
0
 62
256
370
-1
  6
ByLayer
 10
0.0
 20
0.723
 30
0.0
 11
0.0
 21
0.0
 31
0.0
  0
LINE
  5
159
100
AcDbEntity
100
AcDbLine
  8
0
 62
256
370
-1
  6
ByLayer
 10
0.0
 20
0.0
 30
0.0
 11
0.0
 21
0.723
 31
0.0
  0
LINE
  5
15A
100
AcDbEntity
100
AcDbLine
  8
Bottom
 62
256
370
-1
  6
ByLayer
 10
0.0000000000000001
 20
2.1234999999999999
 30
0.0
 11
0.0000000000000001
 21
1.5024999999999999
 31
0.0
  0
LINE
  5
15B
100
AcDbEntity
100
AcDbLine
  8
Bottom
 62
256
370
-1
  6
ByLayer
 10
0.0000000000000001
 20
1.244
 30
0.0
 11
0.0
 21
0.723
 31
0.0
  0
LINE
  5
15C
100
AcDbEntity
100
AcDbLine
  8
Bottom
 62
256
370
-1
  6
ByLayer
 10
0.6565
 20
0.0
 30
0.0
 11
0.922
 21
0.0
 31
0.0
  0
LINE
  5
15D
100
AcDbEntity
100
AcDbLine
  8
Bottom
 62
256
370
-1
  6
DASHED
 10
1.3514999999999999
 20
0.0
 30
0.0
 11
1.6759999999999999
 21
0.0
 31
0.0
  0
ENDBLK
  5
15E
100
AcDbEntity
  8
0
100
AcDbBlockEnd
  0
BLOCK
  5
15F
100
AcDbEntity
  8
0
100
AcDbBlockBegin
  2
rPI-0
 70
0
 10
0.0
 20
0.0
 30
0.0
  3
rPI-0
  1

  0
INSERT
  5
160
100
AcDbEntity
100
AcDbBlockReference
  8
Bottom
 62
256
370
-1
  6
ByLayer
  2
rPI
 10
0.0
 20
0.0
 30
0.0
  0
ENDBLK
  5
161
100
AcDbEntity
  8
0
100
AcDbBlockEnd
  0
BLOCK
  5
162
100
AcDbEntity
  8
0
100
AcDbBlockBegin
  2
rPi_holes
 70
0
 10
0.0
 20
0.0
 30
0.0
  3
rPi_holes
  1

  0
HATCH
  5
163
  8
0
 62
256
370
-1
  6
ByLayer
100
AcDbEntity
100
AcDbHatch
 10
0.0
 20
0.0
 30
0.0
210
0.0
220
0.0
230
1.0
  2
ANSI31
 70
0
 71
0
 91
1
 92
1
 93
4
 72
1
 10
-0.323
 20
1.244
 11
-0.323
 21
0.723
 72
1
 10
-0.323
 20
0.723
 11
-0.609
 21
0.723
 72
1
 10
-0.609
 20
0.723
 11
-0.609
 21
1.244
 72
1
 10
-0.609
 20
1.244
 11
-0.323
 21
1.244
 97
0
 75
0
 76
1
 52
0.0
 41
1.0
 77
0
 78
1
 53
45.0
 43
0.0
 44
0.0
 45
-0.0883883476483184
 46
0.0883883476483185
 79
0
 98
0
  0
INSERT
  5
164
100
AcDbEntity
100
AcDbBlockReference
  8
0
 62
256
370
-1
  6
ByLayer
  2
rPI-0
 10
0.0
 20
0.0
 30
0.0
  0
LINE
  5
165
100
AcDbEntity
100
AcDbLine
  8
0
 62
256
370
-1
  6
ByLayer
 10
-0.323
 20
1.244
 30
0.0
 11
-0.323
 21
0.723
 31
0.0
  0
LINE
  5
166
100
AcDbEntity
100
AcDbLine
  8
0
 62
256
370
-1
  6
ByLayer
 10
-0.3229999999999999
 20
2.1234999999999999
 30
0.0
 11
-0.3229999999999999
 21
1.5024999999999999
 31
0.0
  0
LINE
  5
167
100
AcDbEntity
100
AcDbLine
  8
0
 62
256
370
-1
  6
ByLayer
 10
-0.3229999999999999
 20
2.1234999999999999
 30
0.0
 11
-0.855
 21
2.1234999999999999
 31
0.0
  0
LINE
  5
168
100
AcDbEntity
100
AcDbLine
  8
0
 62
256
370
-1
  6
ByLayer
 10
-0.3229999999999999
 20
1.5024999999999999
 30
0.0
 11
-0.855
 21
1.5024999999999999
 31
0.0
  0
LINE
  5
169
100
AcDbEntity
100
AcDbLine
  8
0
 62
256
370
-1
  6
ByLayer
 10
-0.855
 20
2.1234999999999999
 30
0.0
 11
-0.855
 21
1.5024999999999999
 31
0.0
  0
LINE
  5
16A
100
AcDbEntity
100
AcDbLine
  8
0
 62
256
370
-1
  6
ByLayer
 10
-0.323
 20
1.244
 30
0.0
 11
-0.9329999999999999
 21
1.244
 31
0.0
  0
LINE
  5
16B
100
AcDbEntity
100
AcDbLine
  8
0
 62
256
370
-1
  6
ByLayer
 10
-0.323
 20
0.723
 30
0.0
 11
-0.9329999999999999
 21
0.723
 31
0.0
  0
LINE
  5
16C
100
AcDbEntity
100
AcDbLine
  8
0
 62
256
370
-1
  6
ByLayer
 10
-0.9329999999999999
 20
1.244
 30
0.0
 11
-0.9329999999999999
 21
0.723
 31
0.0
  0
LINE
  5
16D
100
AcDbEntity
100
AcDbLine
  8
0
 62
256
370
-1
  6
ByLayer
 10
1.8795000000000002
 20
2.2039999999999997
 30
0.0
 11
2.2395
 21
2.2039999999999997
 31
0.0
  0
LINE
  5
16E
100
AcDbEntity
100
AcDbLine
  8
0
 62
256
370
-1
  6
ByLayer
 10
2.2395
 20
2.2039999999999997
 30
0.0
 11
2.2395
 21
2.2664999999999997
 31
0.0
  0
CIRCLE
  5
16F
100
AcDbEntity
100
AcDbCircle
  8
0
 62
256
370
-1
  6
ByLayer
 10
2.2395
 20
2.2664999999999997
 30
0.0
 40
0.1255
  0
CIRCLE
  5
170
100
AcDbEntity
100
AcDbCircle
  8
0
 62
256
370
-1
  6
ByLayer
 10
2.2395
 20
2.2664999999999997
 30
0.0
 40
0.0695
  0
CIRCLE
  5
171
100
AcDbEntity
100
AcDbCircle
  8
0
 62
256
370
-1
  6
ByLayer
 10
0.2782
 20
-0.0625
 30
0.0
 40
0.1255
  0
CIRCLE
  5
172
100
AcDbEntity
100
AcDbCircle
  8
0
 62
256
370
-1
  6
ByLayer
 10
0.2782
 20
-0.0625
 30
0.0
 40
0.0695
  0
CIRCLE
  5
173
100
AcDbEntity
100
AcDbCircle
  8
0
 62
256
370
-1
  6
ByLayer
 10
3.4126476536363266
 20
0.3431094397710036
 30
0.0
 40
0.1255
  0
CIRCLE
  5
174
100
AcDbEntity
100
AcDbCircle
  8
0
 62
256
370
-1
  6
ByLayer
 10
3.4126476536363266
 20
0.3431094397710036
 30
0.0
 40
0.0695
  0
LINE
  5
175
100
AcDbEntity
100
AcDbLine
  8
0
 62
256
370
-1
  6
ByLayer
 10
3.4126476536363266
 20
0.3431094397710036
 30
0.0
 11
3.5381476536363268
 21
0.3431094397710036
 31
0.0
  0
LINE
  5
176
100
AcDbEntity
100
AcDbLine
  8
0
 62
256
370
-1
  6
ByLayer
 10
3.4126476536363266
 20
0.3431094397710036
 30
0.0
 11
3.4126476536363266
 21
0.2176094397710036
 31
0.0
  0
LINE
  5
177
100
AcDbEntity
100
AcDbLine
  8
0
 62
256
370
-1
  6
ByLayer
 10
0.2782
 20
-0.0625
 30
0.0
 11
0.4037
 21
-0.0625
 31
0.0
  0
LINE
  5
178
100
AcDbEntity
100
AcDbLine
  8
0
 62
256
370
-1
  6
ByLayer
 10
2.2395
 20
2.2664999999999997
 30
0.0
 11
2.3650000000000002
 21
2.2664999999999997
 31
0.0
  0
LINE
  5
179
100
AcDbEntity
100
AcDbLine
  8
0
 62
256
370
-1
  6
ByLayer
 10
0.2782
 20
-0.0625
 30
0.0
 11
0.2782
 21
-0.188
 31
0.0
  0
ENDBLK
  5
17A
100
AcDbEntity
  8
0
100
AcDbBlockEnd
  0
ENDSEC
  0
SECTION
  2
ENTITIES
  0
INSERT
  5
17B
100
AcDbEntity
100
AcDbBlockReference
  8
0
 62
256
370
-1
  6
ByLayer
  2
rPi_holes
 10
0.0
 20
0.0
 30
0.0
  0
ENDSEC
  0
SECTION
  2
OBJECTS
  0
DICTIONARY
  5
C
100
AcDbDictionary
280
0
281
1
  3
ACAD_GROUP
350
D
  3
ACAD_LAYOUT
350
1A
  3
ACAD_MLINESTYLE
350
17
  3
ACAD_PLOTSETTINGS
350
19
  3
ACAD_PLOTSTYLENAME
350
E
  3
AcDbVariableDictionary
350
17C
  0
DICTIONARY
  5
D
100
AcDbDictionary
280
0
281
1
  0
ACDBDICTIONARYWDFLT
  5
E
100
AcDbDictionary
281
1
  3
Normal
350
F
100
AcDbDictionaryWithDefault
340
F
  0
ACDBPLACEHOLDER
  5
F
  0
DICTIONARY
  5
17
100
AcDbDictionary
280
0
281
1
  3
Standard
350
18
  0
MLINESTYLE
  5
18
100
AcDbMlineStyle
  2
STANDARD
 70
0
  3

 62
256
 51
90.0
 52
90.0
 71
2
 49
0.5
 62
256
  6
BYLAYER
 49
-0.5
 62
256
  6
BYLAYER
  0
DICTIONARY
  5
19
100
AcDbDictionary
280
0
281
1
  0
DICTIONARY
  5
1A
100
AcDbDictionary
281
1
  3
Layout1
350
1E
  3
Layout2
350
26
  3
Model
350
22
  0
LAYOUT
  5
1E
100
AcDbPlotSettings
  1

  2
C:\Program Files\AutoCAD 2002\plotters\DWF ePlot (optimized for plotting).pc3
  4

  6

 40
0.0
 41
0.0
 42
0.0
 43
0.0
 44
0.0
 45
0.0
 46
0.0
 47
0.0
 48
0.0
 49
0.0
140
0.0
141
0.0
142
1.0
143
1.0
 70
688
 72
0
 73
0
 74
5
  7

 75
16
147
1.0
148
0.0
149
0.0
100
AcDbLayout
  1
Layout1
 70
1
 71
1
 10
0.0
 20
0.0
 11
420.0
 21
297.0
 12
0.0
 22
0.0
 32
0.0
 14
100000000000000000000.0
 24
100000000000000000000.0
 34
100000000000000000000.0
 15
-100000000000000000000.0
 25
-100000000000000000000.0
 35
-100000000000000000000.0
146
0.0
 13
0.0
 23
0.0
 33
0.0
 16
1.0
 26
0.0
 36
0.0
 17
0.0
 27
1.0
 37
0.0
 76
0
330
1B
  0
LAYOUT
  5
22
100
AcDbPlotSettings
  1

  2
C:\Program Files\AutoCAD 2002\plotters\DWF ePlot (optimized for plotting).pc3
  4

  6

 40
0.0
 41
0.0
 42
0.0
 43
0.0
 44
0.0
 45
0.0
 46
0.0
 47
0.0
 48
0.0
 49
0.0
140
0.0
141
0.0
142
1.0
143
1.0
 70
1712
 72
0
 73
0
 74
0
  7

 75
0
147
1.0
148
0.0
149
0.0
100
AcDbLayout
  1
Model
 70
1
 71
0
 10
0.0
 20
0.0
 11
12.0
 21
9.0
 12
0.0
 22
0.0
 32
0.0
 14
0.0
 24
0.0
 34
0.0
 15
0.0
 25
0.0
 35
0.0
146
0.0
 13
0.0
 23
0.0
 33
0.0
 16
1.0
 26
0.0
 36
0.0
 17
0.0
 27
1.0
 37
0.0
 76
0
330
1F
  0
LAYOUT
  5
26
100
AcDbPlotSettings
  1

  2
C:\Program Files\AutoCAD 2002\plotters\DWF ePlot (optimized for plotting).pc3
  4

  6

 40
0.0
 41
0.0
 42
0.0
 43
0.0
 44
0.0
 45
0.0
 46
0.0
 47
0.0
 48
0.0
 49
0.0
140
0.0
141
0.0
142
1.0
143
1.0
 70
688
 72
0
 73
0
 74
5
  7

 75
16
147
1.0
148
0.0
149
0.0
100
AcDbLayout
  1
Layout2
 70
1
 71
2
 10
0.0
 20
0.0
 11
12.0
 21
9.0
 12
0.0
 22
0.0
 32
0.0
 14
0.0
 24
0.0
 34
0.0
 15
0.0
 25
0.0
 35
0.0
146
0.0
 13
0.0
 23
0.0
 33
0.0
 16
1.0
 26
0.0
 36
0.0
 17
0.0
 27
1.0
 37
0.0
 76
0
330
23
  0
DICTIONARY
  5
17C
100
AcDbDictionary
281
1
  3
DIMASSOC
350
17E
  3
HIDETEXT
350
17D
  0
DICTIONARYVAR
  5
17D
100
DictionaryVariables
280
0
  1
2
  0
DICTIONARYVAR
  5
17E
100
DictionaryVariables
280
0
  1
1
  0
ENDSEC
  0
EOF
