999
dxflib 2.0.4.8
  0
SECTION
  2
HEADER
  9
$ACADVER
  1
AC1015
  9
$HANDSEED
  5
FFFF
  9
$DIMADEC
 70
2
  9
$GRIDUNIT
 10
0.01
 20
0.01
  9
$DIMASZ
 40
0.1
  9
$DIMGAP
 40
0.025
  9
$LUNITS
 70
2
  9
$AUPREC
 70
2
  9
$SPLINESEGS
 70
8
  9
$INSUNITS
 70
1
  9
$DIMEXO
 40
0.025
  9
$DIMLUNIT
 70
2
  9
$GRIDMODE
 70
1
  9
$DIMTXT
 40
0.1
  9
$LUPREC
 70
4
  9
$DIMSTYLE
  2
Standard
  9
$PLIMMIN
 10
0.0
 20
0.0
  9
$PLIMMAX
 10
11.0
 20
8.5
  9
$PINSBASE
 10
0.25
 20
0.25
 30
0.0
  9
$DIMEXE
 40
0.05
  9
$DIMAUNIT
 70
0
  9
$AUNITS
 70
0
  0
ENDSEC
  0
SECTION
  2
TABLES
  0
TABLE
  2
VPORT
  5
8
100
AcDbSymbolTable
 70
1
  0
VPORT
  5
30
100
AcDbSymbolTableRecord
100
AcDbViewportTableRecord
  2
*Active
 70
0
 10
0.0
 20
0.0
 11
1.0
 21
1.0
 12
286.3055555555554861
 22
148.5
 13
0.0
 23
0.0
 14
10.0
 24
10.0
 15
10.0
 25
10.0
 16
0.0
 26
0.0
 36
1.0
 17
0.0
 27
0.0
 37
0.0
 40
297.0
 41
1.92798353909465
 42
50.0
 43
0.0
 44
0.0
 50
0.0
 51
0.0
 71
0
 72
100
 73
1
 74
3
 75
1
 76
1
 77
0
 78
0
281
0
 65
1
110
0.0
120
0.0
130
0.0
111
1.0
121
0.0
131
0.0
112
0.0
122
1.0
132
0.0
 79
0
146
0.0
  0
ENDTAB
  0
TABLE
  2
LTYPE
  5
5
100
AcDbSymbolTable
 70
21
  0
LTYPE
  5
14
100
AcDbSymbolTableRecord
100
AcDbLinetypeTableRecord
  2
ByBlock
 70
0
  3

 72
65
 73
0
 40
0.0
  0
LTYPE
  5
15
100
AcDbSymbolTableRecord
100
AcDbLinetypeTableRecord
  2
ByLayer
 70
0
  3

 72
65
 73
0
 40
0.0
  0
LTYPE
  5
16
100
AcDbSymbolTableRecord
100
AcDbLinetypeTableRecord
  2
CONTINUOUS
 70
0
  3
Solid line
 72
65
 73
0
 40
0.0
  0
LTYPE
  5
31
100
AcDbSymbolTableRecord
100
AcDbLinetypeTableRecord
  2
DOT
 70
0
  3
Dot . . . . . . . . . . . . . . . . . . . . . .
 72
65
 73
2
 40
6.3499999999999996
 49
0.0
 74
0
 49
-6.3499999999999996
 74
0
  0
LTYPE
  5
32
100
AcDbSymbolTableRecord
100
AcDbLinetypeTableRecord
  2
DOT2
 70
0
  3
Dot (.5x) .....................................
 72
65
 73
2
 40
3.1749999999999998
 49
0.0
 74
0
 49
-3.1749999999999998
 74
0
  0
LTYPE
  5
33
100
AcDbSymbolTableRecord
100
AcDbLinetypeTableRecord
  2
DOTX2
 70
0
  3
Dot (2x) .  .  .  .  .  .  .  .  .  .  .  .  .
 72
65
 73
2
 40
12.6999999999999993
 49
0.0
 74
0
 49
-12.6999999999999993
 74
0
  0
LTYPE
  5
34
100
AcDbSymbolTableRecord
100
AcDbLinetypeTableRecord
  2
DASHED
 70
0
  3
Dashed __ __ __ __ __ __ __ __ __ __ __ __ __ _
 72
65
 73
2
 40
19.0500000000000007
 49
12.6999999999999993
 74
0
 49
-6.3499999999999996
 74
0
  0
LTYPE
  5
35
100
AcDbSymbolTableRecord
100
AcDbLinetypeTableRecord
  2
DASHED2
 70
0
  3
Dashed (.5x) _ _ _ _ _ _ _ _ _ _ _ _ _ _ _ _ _
 72
65
 73
2
 40
9.5250000000000004
 49
6.3499999999999996
 74
0
 49
-3.1749999999999998
 74
0
  0
LTYPE
  5
36
100
AcDbSymbolTableRecord
100
AcDbLinetypeTableRecord
  2
DASHEDX2
 70
0
  3
Dashed (2x) ____  ____  ____  ____  ____  ___
 72
65
 73
2
 40
38.1000000000000014
 49
25.3999999999999986
 74
0
 49
-12.6999999999999993
 74
0
  0
LTYPE
  5
37
100
AcDbSymbolTableRecord
100
AcDbLinetypeTableRecord
  2
DASHDOT
 70
0
  3
Dash dot __ . __ . __ . __ . __ . __ . __ . __
 72
65
 73
4
 40
25.3999999999999986
 49
12.6999999999999993
 74
0
 49
-6.3499999999999996
 74
0
 49
0.0
 74
0
 49
-6.3499999999999996
 74
0
  0
LTYPE
  5
38
100
AcDbSymbolTableRecord
100
AcDbLinetypeTableRecord
  2
DASHDOT2
 70
0
  3
Dash dot (.5x) _._._._._._._._._._._._._._._.
 72
65
 73
4
 40
12.6999999999999993
 49
6.3499999999999996
 74
0
 49
-3.1749999999999998
 74
0
 49
0.0
 74
0
 49
-3.1749999999999998
 74
0
  0
LTYPE
  5
39
100
AcDbSymbolTableRecord
100
AcDbLinetypeTableRecord
  2
DASHDOTX2
 70
0
  3
Dash dot (2x) ____  .  ____  .  ____  .  ___
 72
65
 73
4
 40
50.7999999999999972
 49
25.3999999999999986
 74
0
 49
-12.6999999999999993
 74
0
 49
0.0
 74
0
 49
-12.6999999999999993
 74
0
  0
LTYPE
  5
3A
100
AcDbSymbolTableRecord
100
AcDbLinetypeTableRecord
  2
DIVIDE
 70
0
  3
Divide ____ . . ____ . . ____ . . ____ . . ____
 72
65
 73
6
 40
31.75
 49
12.6999999999999993
 74
0
 49
-6.3499999999999996
 74
0
 49
0.0
 74
0
 49
-6.3499999999999996
 74
0
 49
0.0
 74
0
 49
-6.3499999999999996
 74
0
  0
LTYPE
  5
3B
100
AcDbSymbolTableRecord
100
AcDbLinetypeTableRecord
  2
DIVIDE2
 70
0
  3
Divide (.5x) __..__..__..__..__..__..__..__.._
 72
65
 73
6
 40
15.875
 49
6.3499999999999996
 74
0
 49
-3.1749999999999998
 74
0
 49
0.0
 74
0
 49
-3.1749999999999998
 74
0
 49
0.0
 74
0
 49
-3.1749999999999998
 74
0
  0
LTYPE
  5
3C
100
AcDbSymbolTableRecord
100
AcDbLinetypeTableRecord
  2
DIVIDEX2
 70
0
  3
Divide (2x) ________  .  .  ________  .  .  _
 72
65
 73
6
 40
63.5
 49
25.3999999999999986
 74
0
 49
-12.6999999999999993
 74
0
 49
0.0
 74
0
 49
-12.6999999999999993
 74
0
 49
0.0
 74
0
 49
-12.6999999999999993
 74
0
  0
LTYPE
  5
3D
100
AcDbSymbolTableRecord
100
AcDbLinetypeTableRecord
  2
CENTER
 70
0
  3
Center ____ _ ____ _ ____ _ ____ _ ____ _ ____
 72
65
 73
4
 40
50.7999999999999972
 49
31.75
 74
0
 49
-6.3499999999999996
 74
0
 49
6.3499999999999996
 74
0
 49
-6.3499999999999996
 74
0
  0
LTYPE
  5
3E
100
AcDbSymbolTableRecord
100
AcDbLinetypeTableRecord
  2
CENTER2
 70
0
  3
Center (.5x) ___ _ ___ _ ___ _ ___ _ ___ _ ___
 72
65
 73
4
 40
28.5749999999999993
 49
19.0500000000000007
 74
0
 49
-3.1749999999999998
 74
0
 49
3.1749999999999998
 74
0
 49
-3.1749999999999998
 74
0
  0
LTYPE
  5
3F
100
AcDbSymbolTableRecord
100
AcDbLinetypeTableRecord
  2
CENTERX2
 70
0
  3
Center (2x) ________  __  ________  __  _____
 72
65
 73
4
 40
101.5999999999999943
 49
63.5
 74
0
 49
-12.6999999999999993
 74
0
 49
12.6999999999999993
 74
0
 49
-12.6999999999999993
 74
0
  0
LTYPE
  5
40
100
AcDbSymbolTableRecord
100
AcDbLinetypeTableRecord
  2
BORDER
 70
0
  3
Border __ __ . __ __ . __ __ . __ __ . __ __ .
 72
65
 73
6
 40
44.4500000000000028
 49
12.6999999999999993
 74
0
 49
-6.3499999999999996
 74
0
 49
12.6999999999999993
 74
0
 49
-6.3499999999999996
 74
0
 49
0.0
 74
0
 49
-6.3499999999999996
 74
0
  0
LTYPE
  5
41
100
AcDbSymbolTableRecord
100
AcDbLinetypeTableRecord
  2
BORDER2
 70
0
  3
Border (.5x) __.__.__.__.__.__.__.__.__.__.__.
 72
65
 73
6
 40
22.2250000000000014
 49
6.3499999999999996
 74
0
 49
-3.1749999999999998
 74
0
 49
6.3499999999999996
 74
0
 49
-3.1749999999999998
 74
0
 49
0.0
 74
0
 49
-3.1749999999999998
 74
0
  0
LTYPE
  5
42
100
AcDbSymbolTableRecord
100
AcDbLinetypeTableRecord
  2
BORDERX2
 70
0
  3
Border (2x) ____  ____  .  ____  ____  .  ___
 72
65
 73
6
 40
88.9000000000000057
 49
25.3999999999999986
 74
0
 49
-12.6999999999999993
 74
0
 49
25.3999999999999986
 74
0
 49
-12.6999999999999993
 74
0
 49
0.0
 74
0
 49
-12.6999999999999993
 74
0
  0
ENDTAB
  0
TABLE
  2
LAYER
  5
2
100
AcDbSymbolTable
 70
1
  0
LAYER
  5
10
100
AcDbSymbolTableRecord
100
AcDbLayerTableRecord
  2
0
 70
0
 62
7
  6
CONTINUOUS
370
0
390
F
  0
ENDTAB
  0
TABLE
  2
STYLE
  5
3
100
AcDbSymbolTable
 70
1
  0
STYLE
  5
11
100
AcDbSymbolTableRecord
100
AcDbTextStyleTableRecord
  2
Standard
 70
0
 40
0.0
 41
0.75
 50
0.0
 71
0
 42
2.5
  3
txt
  4

  0
ENDTAB
  0
TABLE
  2
VIEW
  5
6
100
AcDbSymbolTable
 70
0
  0
ENDTAB
  0
TABLE
  2
UCS
  5
7
100
AcDbSymbolTable
 70
0
  0
ENDTAB
  0
TABLE
  2
APPID
  5
9
100
AcDbSymbolTable
 70
1
  0
APPID
  5
12
100
AcDbSymbolTableRecord
100
AcDbRegAppTableRecord
  2
ACAD
 70
0
  0
ENDTAB
  0
TABLE
  2
DIMSTYLE
  5
A
100
AcDbSymbolTable
 70
1
100
AcDbDimStyleTable
 71
0
  0
DIMSTYLE
105
27
100
AcDbSymbolTableRecord
100
AcDbDimStyleTableRecord
  2
Standard
 41
0.1
 42
0.025
 43
3.75
 44
0.05
 70
0
 73
0
 74
0
 77
1
 78
8
140
0.1
141
2.5
143
0.03937007874016
147
0.025
171
3
172
1
271
2
272
2
274
3
278
44
283
0
284
8
340
11
  0
ENDTAB
  0
TABLE
  2
BLOCK_RECORD
  5
1
100
AcDbSymbolTable
 70
1
  0
BLOCK_RECORD
  5
1F
100
AcDbSymbolTableRecord
100
AcDbBlockTableRecord
  2
*Model_Space
340
22
  0
BLOCK_RECORD
  5
1B
100
AcDbSymbolTableRecord
100
AcDbBlockTableRecord
  2
*Paper_Space
340
1E
  0
BLOCK_RECORD
  5
23
100
AcDbSymbolTableRecord
100
AcDbBlockTableRecord
  2
*Paper_Space0
340
26
  0
ENDTAB
  0
ENDSEC
  0
SECTION
  2
BLOCKS
  0
BLOCK
  5
20
100
AcDbEntity
  8
0
100
AcDbBlockBegin
  2
*Model_Space
 70
0
 10
0.0
 20
0.0
 30
0.0
  3
*Model_Space
  1

  0
ENDBLK
  5
21
100
AcDbEntity
  8
0
100
AcDbBlockEnd
  0
BLOCK
  5
1C
100
AcDbEntity
 67
1
  8
0
100
AcDbBlockBegin
  2
*Paper_Space
 70
0
 10
0.0
 20
0.0
 30
0.0
  3
*Paper_Space
  1

  0
ENDBLK
  5
1D
100
AcDbEntity
 67
1
  8
0
100
AcDbBlockEnd
  0
BLOCK
  5
24
100
AcDbEntity
  8
0
100
AcDbBlockBegin
  2
*Paper_Space0
 70
0
 10
0.0
 20
0.0
 30
0.0
  3
*Paper_Space0
  1

  0
ENDBLK
  5
25
100
AcDbEntity
  8
0
100
AcDbBlockEnd
  0
ENDSEC
  0
SECTION
  2
ENTITIES
  0
LINE
  5
43
100
AcDbEntity
100
AcDbLine
  8
0
 62
256
370
-1
  6
ByLayer
 10
0.0
 20
0.0
 30
0.0
 11
10.5
 21
0.0
 31
0.0
  0
LINE
  5
44
100
AcDbEntity
100
AcDbLine
  8
0
 62
256
370
-1
  6
ByLayer
 10
10.5
 20
0.0
 30
0.0
 11
10.5
 21
8.0
 31
0.0
  0
LINE
  5
45
100
AcDbEntity
100
AcDbLine
  8
0
 62
256
370
-1
  6
ByLayer
 10
0.0
 20
0.0
 30
0.0
 11
0.0000000000000005
 21
8.0
 31
0.0
  0
LINE
  5
46
100
AcDbEntity
100
AcDbLine
  8
0
 62
256
370
-1
  6
ByLayer
 10
0.0000000000000005
 20
8.0
 30
0.0
 11
10.5
 21
8.0
 31
0.0
  0
LINE
  5
47
100
AcDbEntity
100
AcDbLine
  8
0
 62
256
370
-1
  6
ByLayer
 10
10.5
 20
0.0
 30
0.0
 11
10.5
 21
1.0
 31
0.0
  0
LINE
  5
48
100
AcDbEntity
100
AcDbLine
  8
0
 62
256
370
-1
  6
ByLayer
 10
10.5
 20
1.0
 30
0.0
 11
8.5
 21
1.0
 31
0.0
  0
LINE
  5
49
100
AcDbEntity
100
AcDbLine
  8
0
 62
256
370
-1
  6
ByLayer
 10
8.5
 20
1.0
 30
0.0
 11
8.5
 21
0.0
 31
0.0
  0
LINE
  5
4A
100
AcDbEntity
100
AcDbLine
  8
0
 62
256
370
-1
  6
ByLayer
 10
8.5
 20
0.25
 30
0.0
 11
10.5
 21
0.25
 31
0.0
  0
LINE
  5
4B
100
AcDbEntity
100
AcDbLine
  8
0
 62
256
370
-1
  6
ByLayer
 10
8.5
 20
0.5
 30
0.0
 11
10.5
 21
0.5
 31
0.0
  0
LINE
  5
4C
100
AcDbEntity
100
AcDbLine
  8
0
 62
256
370
-1
  6
ByLayer
 10
8.5
 20
0.75
 30
0.0
 11
10.5
 21
0.75
 31
0.0
  0
MTEXT
  5
4D
100
AcDbEntity
100
AcDbMText
  8
0
 62
256
370
-1
  6
ByLayer
 10
8.8101667710435745
 20
0.9359042975629357
 30
0.0
 40
0.1
 41
100.0
 71
1
 72
2
  1
Jesse\~Merritt
  7
courier
 50
0.0
 73
1
 44
1.0
  0
MTEXT
  5
4E
100
AcDbEntity
100
AcDbMText
  8
0
 62
256
370
-1
  6
ByLayer
 10
8.579357290140841
 20
0.675539944105578
 30
0.0
 40
0.08
 41
100.0
 71
1
 72
2
  1
Hitec\~Servo\~Brackets
  7
courier
 50
0.0
 73
1
 44
1.0
  0
MTEXT
  5
4F
100
AcDbEntity
100
AcDbMText
  8
0
 62
256
370
-1
  6
ByLayer
 10
8.939645260330483
 20
0.4323455642275699
 30
0.0
 40
0.08
 41
100.0
 71
1
 72
2
  1
March\~12,\~2010
  7
courier
 50
0.0
 73
1
 44
1.0
  0
LINE
  5
50
100
AcDbEntity
100
AcDbLine
  8
0
 62
256
370
-1
  6
ByLayer
 10
2.54
 20
6.976
 30
0.0
 11
2.54
 21
6.0
 31
0.0
  0
LINE
  5
51
100
AcDbEntity
100
AcDbLine
  8
0
 62
256
370
-1
  6
ByLayer
 10
2.54
 20
6.0
 30
0.0
 11
4.4800000000000004
 21
6.0
 31
0.0
  0
LINE
  5
52
100
AcDbEntity
100
AcDbLine
  8
0
 62
256
370
-1
  6
ByLayer
 10
2.54
 20
6.976
 30
0.0
 11
4.4800000000000004
 21
6.976
 31
0.0
  0
LINE
  5
53
100
AcDbEntity
100
AcDbLine
  8
0
 62
256
370
-1
  6
ByLayer
 10
4.4800000000000004
 20
6.976
 30
0.0
 11
4.4800000000000004
 21
6.0
 31
0.0
  0
ARC
  5
54
100
AcDbEntity
  8
0
 62
256
370
-1
  6
ByLayer
100
AcDbCircle
 10
1.4879999999999998
 20
6.4879999999999995
 30
0.0
 40
0.4879999999999995
100
AcDbArc
 50
89.9999999999999716
 51
270.0
  0
ARC
  5
55
100
AcDbEntity
  8
0
 62
256
370
-1
  6
ByLayer
100
AcDbCircle
 10
5.532
 20
6.4879999999999995
 30
0.0
 40
0.4879999999999995
100
AcDbArc
 50
270.0
 51
90.0
  0
LINE
  5
56
100
AcDbEntity
100
AcDbLine
  8
0
 62
256
370
-1
  6
ByLayer
 10
1.4879999999999998
 20
6.976
 30
0.0
 11
2.54
 21
6.976
 31
0.0
  0
LINE
  5
57
100
AcDbEntity
100
AcDbLine
  8
0
 62
256
370
-1
  6
ByLayer
 10
1.4879999999999998
 20
6.0
 30
0.0
 11
2.54
 21
6.0
 31
0.0
  0
LINE
  5
58
100
AcDbEntity
100
AcDbLine
  8
0
 62
256
370
-1
  6
ByLayer
 10
4.4800000000000004
 20
6.0
 30
0.0
 11
5.532
 21
6.0
 31
0.0
  0
LINE
  5
59
100
AcDbEntity
100
AcDbLine
  8
0
 62
256
370
-1
  6
ByLayer
 10
4.4800000000000004
 20
6.976
 30
0.0
 11
5.532
 21
6.976
 31
0.0
  0
CIRCLE
  5
5A
100
AcDbEntity
100
AcDbCircle
  8
0
 62
256
370
-1
  6
ByLayer
 10
1.488
 20
6.4879999999999995
 30
0.0
 40
0.1575
  0
CIRCLE
  5
5B
100
AcDbEntity
100
AcDbCircle
  8
0
 62
256
370
-1
  6
ByLayer
 10
5.532
 20
6.4879999999999995
 30
0.0
 40
0.1575
  0
CIRCLE
  5
5C
100
AcDbEntity
100
AcDbCircle
  8
0
 62
256
370
-1
  6
ByLayer
 10
3.5099999999999998
 20
6.4879999999999995
 30
0.0
 40
0.1575
  0
CIRCLE
  5
5D
100
AcDbEntity
100
AcDbCircle
  8
0
 62
256
370
-1
  6
ByLayer
 10
8.9000000000000004
 20
6.5
 30
0.0
 40
0.1575
  0
LINE
  5
5E
100
AcDbEntity
100
AcDbLine
  8
0
 62
256
370
-1
  6
ByLayer
 10
8.9000000000000004
 20
6.5
 30
0.0
 11
8.9000000000000004
 21
6.8300000000000001
 31
0.0
  0
LINE
  5
5F
100
AcDbEntity
100
AcDbLine
  8
0
 62
256
370
-1
  6
ByLayer
 10
8.9000000000000004
 20
6.5
 30
0.0
 11
8.9000000000000004
 21
6.1699999999999999
 31
0.0
  0
LINE
  5
60
100
AcDbEntity
100
AcDbLine
  8
0
 62
256
370
-1
  6
ByLayer
 10
8.9000000000000004
 20
6.5
 30
0.0
 11
8.5700000000000003
 21
6.5
 31
0.0
  0
LINE
  5
61
100
AcDbEntity
100
AcDbLine
  8
0
 62
256
370
-1
  6
ByLayer
 10
8.9000000000000004
 20
6.5
 30
0.0
 11
9.2300000000000004
 21
6.5
 31
0.0
  0
LEADER
  5
62
  8
0
 62
256
370
-1
  6
ByLayer
100
AcDbEntity
100
AcDbLeader
  3
Standard
 71
1
 72
0
 73
3
 74
0
 75
0
 40
1.0
 41
10.0
 76
3
 10
9.0163677318904458
 20
6.6061357667078973
 10
9.1918468394633024
 20
6.7734138395653147
 10
9.520609612261353
 20
6.7734138395653147
  0
MTEXT
  5
63
100
AcDbEntity
100
AcDbMText
  8
0
 62
256
370
-1
  6
ByLayer
 10
9.5476312100255765
 20
6.8364642343485018
 30
0.0
 40
0.08
 41
100.0
 71
1
 72
2
  1
0.315
  7
courier
 50
0.0
 73
1
 44
1.0
  0
CIRCLE
  5
64
100
AcDbEntity
100
AcDbCircle
  8
0
 62
256
370
-1
  6
ByLayer
 10
8.9000000000000004
 20
4.7000000000000002
 30
0.0
 40
0.1575
  0
LINE
  5
65
100
AcDbEntity
100
AcDbLine
  8
0
 62
256
370
-1
  6
ByLayer
 10
8.9000000000000004
 20
4.7000000000000002
 30
0.0
 11
8.9000000000000004
 21
5.0300000000000002
 31
0.0
  0
LINE
  5
66
100
AcDbEntity
100
AcDbLine
  8
0
 62
256
370
-1
  6
ByLayer
 10
8.9000000000000004
 20
4.7000000000000002
 30
0.0
 11
8.9000000000000004
 21
4.3700000000000001
 31
0.0
  0
LINE
  5
67
100
AcDbEntity
100
AcDbLine
  8
0
 62
256
370
-1
  6
ByLayer
 10
8.9000000000000004
 20
4.7000000000000002
 30
0.0
 11
8.5700000000000003
 21
4.7000000000000002
 31
0.0
  0
LINE
  5
68
100
AcDbEntity
100
AcDbLine
  8
0
 62
256
370
-1
  6
ByLayer
 10
8.9000000000000004
 20
4.7000000000000002
 30
0.0
 11
9.2300000000000004
 21
4.7000000000000002
 31
0.0
  0
CIRCLE
  5
69
100
AcDbEntity
100
AcDbCircle
  8
0
 62
256
370
-1
  6
ByLayer
 10
8.2400000000000002
 20
4.7000000000000002
 30
0.0
 40
0.1575
  0
LINE
  5
6A
100
AcDbEntity
100
AcDbLine
  8
0
 62
256
370
-1
  6
ByLayer
 10
8.2400000000000002
 20
4.7000000000000002
 30
0.0
 11
8.2400000000000002
 21
5.0300000000000002
 31
0.0
  0
LINE
  5
6B
100
AcDbEntity
100
AcDbLine
  8
0
 62
256
370
-1
  6
ByLayer
 10
8.2400000000000002
 20
4.7000000000000002
 30
0.0
 11
8.2400000000000002
 21
4.3700000000000001
 31
0.0
  0
LINE
  5
6C
100
AcDbEntity
100
AcDbLine
  8
0
 62
256
370
-1
  6
ByLayer
 10
8.2400000000000002
 20
4.7000000000000002
 30
0.0
 11
7.9100000000000001
 21
4.7000000000000002
 31
0.0
  0
LINE
  5
6D
100
AcDbEntity
100
AcDbLine
  8
0
 62
256
370
-1
  6
ByLayer
 10
8.2400000000000002
 20
4.7000000000000002
 30
0.0
 11
8.5700000000000003
 21
4.7000000000000002
 31
0.0
  0
LINE
  5
6E
100
AcDbEntity
100
AcDbLine
  8
0
 62
256
370
-1
  6
ByLayer
 10
7.9100000000000001
 20
4.7000000000000002
 30
0.0
 11
7.9100000000000001
 21
4.7454999999999998
 31
0.0
  0
LINE
  5
6F
100
AcDbEntity
100
AcDbLine
  8
0
 62
256
370
-1
  6
ByLayer
 10
8.5700000000000003
 20
4.7000000000000002
 30
0.0
 11
8.5700000000000003
 21
4.7454999999999998
 31
0.0
  0
LINE
  5
70
100
AcDbEntity
100
AcDbLine
  8
0
 62
256
370
-1
  6
ByLayer
 10
9.2300000000000004
 20
4.7000000000000002
 30
0.0
 11
9.2300000000000004
 21
4.7454999999999998
 31
0.0
  0
LINE
  5
71
100
AcDbEntity
100
AcDbLine
  8
0
 62
256
370
-1
  6
ByLayer
 10
8.5700000000000003
 20
6.5
 30
0.0
 11
8.5700000000000003
 21
6.5454999999999997
 31
0.0
  0
LINE
  5
72
100
AcDbEntity
100
AcDbLine
  8
0
 62
256
370
-1
  6
ByLayer
 10
9.2300000000000004
 20
6.5
 30
0.0
 11
9.2300000000000004
 21
6.5454999999999997
 31
0.0
  0
LINE
  5
73
100
AcDbEntity
100
AcDbLine
  8
0
 62
256
370
-1
  6
ByLayer
 10
8.2400000000000002
 20
4.3700000000000001
 30
0.0
 11
8.2855000000000008
 21
4.3700000000000001
 31
0.0
  0
LINE
  5
74
100
AcDbEntity
100
AcDbLine
  8
0
 62
256
370
-1
  6
ByLayer
 10
8.2400000000000002
 20
5.0300000000000002
 30
0.0
 11
8.2855000000000008
 21
5.0300000000000002
 31
0.0
  0
LINE
  5
75
100
AcDbEntity
100
AcDbLine
  8
0
 62
256
370
-1
  6
ByLayer
 10
8.9000000000000004
 20
4.3700000000000001
 30
0.0
 11
8.9455000000000009
 21
4.3700000000000001
 31
0.0
  0
LINE
  5
76
100
AcDbEntity
100
AcDbLine
  8
0
 62
256
370
-1
  6
ByLayer
 10
8.9000000000000004
 20
5.0300000000000002
 30
0.0
 11
8.9455000000000009
 21
5.0300000000000002
 31
0.0
  0
LINE
  5
77
100
AcDbEntity
100
AcDbLine
  8
0
 62
256
370
-1
  6
ByLayer
 10
9.2300000000000004
 20
4.7000000000000002
 30
0.0
 11
9.275500000000001
 21
4.7000000000000002
 31
0.0
  0
LINE
  5
78
100
AcDbEntity
100
AcDbLine
  8
0
 62
256
370
-1
  6
ByLayer
 10
7.9100000000000001
 20
4.7000000000000002
 30
0.0
 11
7.9554999999999998
 21
4.7000000000000002
 31
0.0
  0
LINE
  5
79
100
AcDbEntity
100
AcDbLine
  8
0
 62
256
370
-1
  6
ByLayer
 10
8.9000000000000004
 20
6.1699999999999999
 30
0.0
 11
8.9455000000000009
 21
6.1699999999999999
 31
0.0
  0
LINE
  5
7A
100
AcDbEntity
100
AcDbLine
  8
0
 62
256
370
-1
  6
ByLayer
 10
9.2300000000000004
 20
6.5
 30
0.0
 11
9.275500000000001
 21
6.5
 31
0.0
  0
LINE
  5
7B
100
AcDbEntity
100
AcDbLine
  8
0
 62
256
370
-1
  6
ByLayer
 10
8.9000000000000004
 20
6.8300000000000001
 30
0.0
 11
8.9455000000000009
 21
6.8300000000000001
 31
0.0
  0
LINE
  5
7C
100
AcDbEntity
100
AcDbLine
  8
0
 62
256
370
-1
  6
ByLayer
 10
8.5700000000000003
 20
6.5
 30
0.0
 11
8.6155000000000008
 21
6.5
 31
0.0
  0
LINE
  5
7D
100
AcDbEntity
100
AcDbLine
  8
0
 62
256
370
-1
  6
ByLayer
 10
5.202
 20
6.4879999999999995
 30
0.0
 11
5.2474999999999996
 21
6.4879999999999995
 31
0.0
  0
LINE
  5
7E
100
AcDbEntity
100
AcDbLine
  8
0
 62
256
370
-1
  6
ByLayer
 10
5.8620000000000001
 20
6.4879999999999995
 30
0.0
 11
5.9074999999999998
 21
6.4879999999999995
 31
0.0
  0
LINE
  5
7F
100
AcDbEntity
100
AcDbLine
  8
0
 62
256
370
-1
  6
ByLayer
 10
5.532
 20
6.8179999999999996
 30
0.0
 11
5.5774999999999997
 21
6.8179999999999996
 31
0.0
  0
LINE
  5
80
100
AcDbEntity
100
AcDbLine
  8
0
 62
256
370
-1
  6
ByLayer
 10
5.0060000000000002
 20
6.0
 30
0.0
 11
5.0514999999999999
 21
6.0
 31
0.0
  0
LINE
  5
81
100
AcDbEntity
100
AcDbLine
  8
0
 62
256
370
-1
  6
ByLayer
 10
5.532
 20
6.1579999999999995
 30
0.0
 11
5.5774999999999997
 21
6.1579999999999995
 31
0.0
  0
LINE
  5
82
100
AcDbEntity
100
AcDbLine
  8
0
 62
256
370
-1
  6
ByLayer
 10
3.5099999999999998
 20
6.1579999999999995
 30
0.0
 11
3.5554999999999999
 21
6.1579999999999995
 31
0.0
  0
LINE
  5
83
100
AcDbEntity
100
AcDbLine
  8
0
 62
256
370
-1
  6
ByLayer
 10
3.8399999999999999
 20
6.4879999999999995
 30
0.0
 11
3.8855
 21
6.4879999999999995
 31
0.0
  0
LINE
  5
84
100
AcDbEntity
100
AcDbLine
  8
0
 62
256
370
-1
  6
ByLayer
 10
3.5099999999999998
 20
6.8179999999999996
 30
0.0
 11
3.5554999999999999
 21
6.8179999999999996
 31
0.0
  0
LINE
  5
85
100
AcDbEntity
100
AcDbLine
  8
0
 62
256
370
-1
  6
ByLayer
 10
3.1799999999999997
 20
6.4879999999999995
 30
0.0
 11
3.2254999999999998
 21
6.4879999999999995
 31
0.0
  0
LINE
  5
86
100
AcDbEntity
100
AcDbLine
  8
0
 62
256
370
-1
  6
ByLayer
 10
1.8180000000000001
 20
6.4879999999999995
 30
0.0
 11
1.8635000000000002
 21
6.4879999999999995
 31
0.0
  0
LINE
  5
87
100
AcDbEntity
100
AcDbLine
  8
0
 62
256
370
-1
  6
ByLayer
 10
1.488
 20
6.8179999999999996
 30
0.0
 11
1.5335000000000001
 21
6.8179999999999996
 31
0.0
  0
LINE
  5
88
100
AcDbEntity
100
AcDbLine
  8
0
 62
256
370
-1
  6
ByLayer
 10
1.1579999999999999
 20
6.4879999999999995
 30
0.0
 11
1.2035
 21
6.4879999999999995
 31
0.0
  0
LINE
  5
89
100
AcDbEntity
100
AcDbLine
  8
0
 62
256
370
-1
  6
ByLayer
 10
1.488
 20
6.1579999999999995
 30
0.0
 11
1.5335000000000001
 21
6.1579999999999995
 31
0.0
  0
LINE
  5
8A
100
AcDbEntity
100
AcDbLine
  8
0
 62
256
370
-1
  6
ByLayer
 10
1.1579999999999999
 20
6.4879999999999995
 30
0.0
 11
1.1579999999999999
 21
6.5334999999999992
 31
0.0
  0
LINE
  5
8B
100
AcDbEntity
100
AcDbLine
  8
0
 62
256
370
-1
  6
ByLayer
 10
1.8180000000000001
 20
6.4879999999999995
 30
0.0
 11
1.8180000000000001
 21
6.5334999999999992
 31
0.0
  0
LINE
  5
8C
100
AcDbEntity
100
AcDbLine
  8
0
 62
256
370
-1
  6
ByLayer
 10
1.488
 20
6.8179999999999996
 30
0.0
 11
1.488
 21
6.8634999999999993
 31
0.0
  0
LINE
  5
8D
100
AcDbEntity
100
AcDbLine
  8
0
 62
256
370
-1
  6
ByLayer
 10
1.488
 20
6.1579999999999995
 30
0.0
 11
1.488
 21
6.2034999999999991
 31
0.0
  0
LINE
  5
8E
100
AcDbEntity
100
AcDbLine
  8
0
 62
256
370
-1
  6
ByLayer
 10
3.5099999999999998
 20
6.1579999999999995
 30
0.0
 11
3.5099999999999998
 21
6.2034999999999991
 31
0.0
  0
LINE
  5
8F
100
AcDbEntity
100
AcDbLine
  8
0
 62
256
370
-1
  6
ByLayer
 10
3.8399999999999999
 20
6.4879999999999995
 30
0.0
 11
3.8399999999999999
 21
6.5334999999999992
 31
0.0
  0
LINE
  5
90
100
AcDbEntity
100
AcDbLine
  8
0
 62
256
370
-1
  6
ByLayer
 10
3.5099999999999998
 20
6.8179999999999996
 30
0.0
 11
3.5099999999999998
 21
6.8634999999999993
 31
0.0
  0
LINE
  5
91
100
AcDbEntity
100
AcDbLine
  8
0
 62
256
370
-1
  6
ByLayer
 10
3.1799999999999997
 20
6.4879999999999995
 30
0.0
 11
3.1799999999999997
 21
6.5334999999999992
 31
0.0
  0
LINE
  5
92
100
AcDbEntity
100
AcDbLine
  8
0
 62
256
370
-1
  6
ByLayer
 10
5.532
 20
6.1579999999999995
 30
0.0
 11
5.532
 21
6.2034999999999991
 31
0.0
  0
LINE
  5
93
100
AcDbEntity
100
AcDbLine
  8
0
 62
256
370
-1
  6
ByLayer
 10
5.532
 20
6.8179999999999996
 30
0.0
 11
5.532
 21
6.8634999999999993
 31
0.0
  0
LINE
  5
94
100
AcDbEntity
100
AcDbLine
  8
0
 62
256
370
-1
  6
ByLayer
 10
5.202
 20
6.4879999999999995
 30
0.0
 11
5.202
 21
6.5334999999999992
 31
0.0
  0
LINE
  5
95
100
AcDbEntity
100
AcDbLine
  8
0
 62
256
370
-1
  6
ByLayer
 10
5.8620000000000001
 20
6.4879999999999995
 30
0.0
 11
5.8620000000000001
 21
6.5334999999999992
 31
0.0
  0
LINE
  5
96
100
AcDbEntity
100
AcDbLine
  8
0
 62
256
370
-1
  6
ByLayer
 10
8.9000000000000004
 20
6.8300000000000001
 30
0.0
 11
8.9000000000000004
 21
6.8754999999999997
 31
0.0
  0
LINE
  5
97
100
AcDbEntity
100
AcDbLine
  8
0
 62
256
370
-1
  6
ByLayer
 10
8.9000000000000004
 20
6.1699999999999999
 30
0.0
 11
8.9000000000000004
 21
6.2154999999999996
 31
0.0
  0
MTEXT
  5
98
100
AcDbEntity
100
AcDbMText
  8
0
 62
256
370
-1
  6
ByLayer
 10
7.8000000000000007
 20
5.4000000000000004
 30
0.0
 40
0.08
 41
100.0
 71
1
 72
2
  1
Dual\~Hole\~Pattern
  7
courier
 50
0.0
 73
1
 44
1.0
  0
LINE
  5
99
100
AcDbEntity
100
AcDbLine
  8
0
 62
256
370
-1
  6
ByLayer
 10
1.4879999999999998
 20
6.4879999999999995
 30
0.0
 11
1.6454999999999997
 21
6.4879999999999995
 31
0.0
  0
LINE
  5
9A
100
AcDbEntity
100
AcDbLine
  8
0
 62
256
370
-1
  6
ByLayer
 10
3.5099999999999998
 20
6.4879999999999995
 30
0.0
 11
3.6675
 21
6.4879999999999995
 31
0.0
  0
LINE
  5
9B
100
AcDbEntity
100
AcDbLine
  8
0
 62
256
370
-1
  6
ByLayer
 10
5.532
 20
6.4879999999999995
 30
0.0
 11
5.6894999999999998
 21
6.4879999999999995
 31
0.0
  0
LINE
  5
9C
100
AcDbEntity
100
AcDbLine
  8
0
 62
256
370
-1
  6
ByLayer
 10
1.488
 20
6.4879999999999995
 30
0.0
 11
1.488
 21
6.6454999999999993
 31
0.0
  0
LINE
  5
9D
100
AcDbEntity
100
AcDbLine
  8
0
 62
256
370
-1
  6
ByLayer
 10
3.5099999999999998
 20
6.4879999999999995
 30
0.0
 11
3.5099999999999998
 21
6.6454999999999993
 31
0.0
  0
LINE
  5
9E
100
AcDbEntity
100
AcDbLine
  8
0
 62
256
370
-1
  6
ByLayer
 10
5.532
 20
6.4879999999999995
 30
0.0
 11
5.532
 21
6.6454999999999993
 31
0.0
  0
MTEXT
  5
9F
100
AcDbEntity
100
AcDbMText
  8
0
 62
256
370
-1
  6
ByLayer
 10
8.1000000000000014
 20
7.1000000000000005
 30
0.0
 40
0.08
 41
100.0
 71
1
 72
2
  1
Single\~Hole\~Pattern
  7
courier
 50
0.0
 73
1
 44
1.0
  0
LINE
  5
A0
100
AcDbEntity
100
AcDbLine
  8
0
 62
256
370
-1
  6
ByLayer
 10
8.6579999999999995
 20
2.4119999999999999
 30
0.0
 11
8.6579999999999995
 21
3.3879999999999999
 31
0.0
  0
ARC
  5
A1
100
AcDbEntity
  8
0
 62
256
370
-1
  6
ByLayer
100
AcDbCircle
 10
8.1319999999999997
 20
2.8999999999999995
 30
0.0
 40
0.4879999999999995
100
AcDbArc
 50
90.0
 51
270.0
  0
ARC
  5
A2
100
AcDbEntity
  8
0
 62
256
370
-1
  6
ByLayer
100
AcDbCircle
 10
9.4999999999999982
 20
2.8999999999999999
 30
0.0
 40
0.488
100
AcDbArc
 50
270.0000000000002274
 51
89.999999999999801
  0
CIRCLE
  5
A3
100
AcDbEntity
100
AcDbCircle
  8
0
 62
256
370
-1
  6
ByLayer
 10
8.1319999999999997
 20
2.8999999999999999
 30
0.0
 40
0.1575
  0
CIRCLE
  5
A4
100
AcDbEntity
100
AcDbCircle
  8
0
 62
256
370
-1
  6
ByLayer
 10
8.4619999999999997
 20
2.8999999999999999
 30
0.0
 40
0.0455
  0
LINE
  5
A5
100
AcDbEntity
100
AcDbLine
  8
0
 62
256
370
-1
  6
ByLayer
 10
7.8019999999999996
 20
2.8999999999999999
 30
0.0
 11
7.8019999999999996
 21
2.9454999999999996
 31
0.0
  0
LINE
  5
A6
100
AcDbEntity
100
AcDbLine
  8
0
 62
256
370
-1
  6
ByLayer
 10
8.4619999999999997
 20
2.8999999999999999
 30
0.0
 11
8.4619999999999997
 21
2.9454999999999996
 31
0.0
  0
LINE
  5
A7
100
AcDbEntity
100
AcDbLine
  8
0
 62
256
370
-1
  6
ByLayer
 10
8.1319999999999997
 20
2.5699999999999998
 30
0.0
 11
8.1775000000000002
 21
2.5699999999999998
 31
0.0
  0
LINE
  5
A8
100
AcDbEntity
100
AcDbLine
  8
0
 62
256
370
-1
  6
ByLayer
 10
8.1319999999999997
 20
3.23
 30
0.0
 11
8.1775000000000002
 21
3.23
 31
0.0
  0
LINE
  5
A9
100
AcDbEntity
100
AcDbLine
  8
0
 62
256
370
-1
  6
ByLayer
 10
7.8019999999999996
 20
2.8999999999999999
 30
0.0
 11
7.8474999999999993
 21
2.8999999999999999
 31
0.0
  0
CIRCLE
  5
AA
100
AcDbEntity
100
AcDbCircle
  8
0
 62
256
370
-1
  6
ByLayer
 10
9.5
 20
2.8999999999999999
 30
0.0
 40
0.1575
  0
LINE
  5
AB
100
AcDbEntity
100
AcDbLine
  8
0
 62
256
370
-1
  6
ByLayer
 10
9.1699999999999999
 20
2.8999999999999999
 30
0.0
 11
9.1699999999999999
 21
2.9454999999999996
 31
0.0
  0
LINE
  5
AC
100
AcDbEntity
100
AcDbLine
  8
0
 62
256
370
-1
  6
ByLayer
 10
9.8300000000000001
 20
2.8999999999999999
 30
0.0
 11
9.8300000000000001
 21
2.9454999999999996
 31
0.0
  0
LINE
  5
AD
100
AcDbEntity
100
AcDbLine
  8
0
 62
256
370
-1
  6
ByLayer
 10
9.5
 20
2.5699999999999998
 30
0.0
 11
9.5455000000000005
 21
2.5699999999999998
 31
0.0
  0
LINE
  5
AE
100
AcDbEntity
100
AcDbLine
  8
0
 62
256
370
-1
  6
ByLayer
 10
9.5
 20
3.23
 30
0.0
 11
9.5455000000000005
 21
3.23
 31
0.0
  0
LINE
  5
AF
100
AcDbEntity
100
AcDbLine
  8
0
 62
256
370
-1
  6
ByLayer
 10
9.1699999999999999
 20
2.8999999999999999
 30
0.0
 11
9.2154999999999987
 21
2.8999999999999999
 31
0.0
  0
LINE
  5
B0
100
AcDbEntity
100
AcDbLine
  8
0
 62
256
370
-1
  6
ByLayer
 10
8.1319999999999997
 20
3.3879999999999999
 30
0.0
 11
8.6579999999999995
 21
3.3879999999999999
 31
0.0
  0
LINE
  5
B1
100
AcDbEntity
100
AcDbLine
  8
0
 62
256
370
-1
  6
ByLayer
 10
8.1319999999999997
 20
2.4119999999999999
 30
0.0
 11
8.6579999999999995
 21
2.4119999999999999
 31
0.0
  0
LINE
  5
B2
100
AcDbEntity
100
AcDbLine
  8
0
 62
256
370
-1
  6
ByLayer
 10
8.6579999999999995
 20
3.3879999999999999
 30
0.0
 11
9.4999999999999982
 21
3.3879999999999999
 31
0.0
  0
LINE
  5
B3
100
AcDbEntity
100
AcDbLine
  8
0
 62
256
370
-1
  6
ByLayer
 10
8.6579999999999995
 20
2.4119999999999999
 30
0.0
 11
9.4999999999999982
 21
2.4119999999999999
 31
0.0
  0
LINE
  5
B4
100
AcDbEntity
100
AcDbLine
  8
0
 62
256
370
-1
  6
ByLayer
 10
8.4619999999999997
 20
2.8999999999999999
 30
0.0
 11
8.5075000000000003
 21
2.8999999999999999
 31
0.0
  0
LINE
  5
B5
100
AcDbEntity
100
AcDbLine
  8
0
 62
256
370
-1
  6
ByLayer
 10
9.8300000000000001
 20
2.8999999999999999
 30
0.0
 11
9.8755000000000006
 21
2.8999999999999999
 31
0.0
  0
LINE
  5
B6
100
AcDbEntity
100
AcDbLine
  8
0
 62
256
370
-1
  6
ByLayer
 10
8.1319999999999997
 20
3.23
 30
0.0
 11
8.1319999999999997
 21
3.2755000000000001
 31
0.0
  0
LINE
  5
B7
100
AcDbEntity
100
AcDbLine
  8
0
 62
256
370
-1
  6
ByLayer
 10
8.1319999999999997
 20
2.5699999999999998
 30
0.0
 11
8.1319999999999997
 21
2.6154999999999999
 31
0.0
  0
LINE
  5
B8
100
AcDbEntity
100
AcDbLine
  8
0
 62
256
370
-1
  6
ByLayer
 10
9.5
 20
3.23
 30
0.0
 11
9.5
 21
3.2755000000000001
 31
0.0
  0
LINE
  5
B9
100
AcDbEntity
100
AcDbLine
  8
0
 62
256
370
-1
  6
ByLayer
 10
9.5
 20
2.5699999999999998
 30
0.0
 11
9.5
 21
2.6154999999999999
 31
0.0
  0
LINE
  5
BA
100
AcDbEntity
100
AcDbLine
  8
0
 62
256
370
-1
  6
ByLayer
 10
8.1319999999999997
 20
2.8999999999999999
 30
0.0
 11
8.2895000000000003
 21
2.8999999999999999
 31
0.0
  0
LINE
  5
BB
100
AcDbEntity
100
AcDbLine
  8
0
 62
256
370
-1
  6
ByLayer
 10
9.5
 20
2.8999999999999999
 30
0.0
 11
9.6575000000000006
 21
2.8999999999999999
 31
0.0
  0
LINE
  5
BC
100
AcDbEntity
100
AcDbLine
  8
0
 62
256
370
-1
  6
ByLayer
 10
8.1319999999999997
 20
2.8999999999999999
 30
0.0
 11
8.1319999999999997
 21
3.0575000000000001
 31
0.0
  0
LINE
  5
BD
100
AcDbEntity
100
AcDbLine
  8
0
 62
256
370
-1
  6
ByLayer
 10
9.5
 20
2.8999999999999999
 30
0.0
 11
9.5
 21
3.0575000000000001
 31
0.0
  0
LINE
  5
BE
100
AcDbEntity
100
AcDbLine
  8
0
 62
256
370
-1
  6
ByLayer
 10
3.125
 20
1.4160000000000008
 30
0.0
 11
3.9399999999999995
 21
1.4160000000000008
 31
0.0
  0
LINE
  5
BF
100
AcDbEntity
100
AcDbLine
  8
0
 62
256
370
-1
  6
ByLayer
 10
3.125
 20
1.4160000000000008
 30
0.0
 11
2.3099999999999996
 21
1.4160000000000008
 31
0.0
  0
LINE
  5
C0
100
AcDbEntity
100
AcDbLine
  8
0
 62
256
370
-1
  6
ByLayer
 10
2.0
 20
2.5085000000000006
 30
0.0
 11
2.3099999999999996
 21
2.5085000000000006
 31
0.0
  0
LINE
  5
C1
100
AcDbEntity
100
AcDbLine
  8
0
 62
256
370
-1
  6
ByLayer
 10
4.25
 20
2.5085000000000006
 30
0.0
 11
3.9400000000000004
 21
2.5085000000000006
 31
0.0
  0
LINE
  5
C2
100
AcDbEntity
100
AcDbLine
  8
0
 62
256
370
-1
  6
ByLayer
 10
2.3099999999999996
 20
2.5085000000000006
 30
0.0
 11
2.3099999999999996
 21
2.3675000000000006
 31
0.0
  0
LINE
  5
C3
100
AcDbEntity
100
AcDbLine
  8
0
 62
256
370
-1
  6
ByLayer
 10
3.9400000000000004
 20
2.5085000000000006
 30
0.0
 11
3.9400000000000004
 21
2.3675000000000006
 31
0.0
  0
LINE
  5
C4
100
AcDbEntity
100
AcDbLine
  8
0
 62
256
370
-1
  6
ByLayer
 10
2.3099999999999996
 20
2.3675000000000006
 30
0.0
 11
2.4349999999999996
 21
2.3675000000000006
 31
0.0
  0
LINE
  5
C5
100
AcDbEntity
100
AcDbLine
  8
0
 62
256
370
-1
  6
ByLayer
 10
3.9400000000000004
 20
2.3675000000000006
 30
0.0
 11
3.8150000000000004
 21
2.3675000000000006
 31
0.0
  0
CIRCLE
  5
C6
100
AcDbEntity
100
AcDbCircle
  8
0
 62
256
370
-1
  6
ByLayer
 10
3.4550000000000001
 20
2.2780000000000005
 30
0.0
 40
0.1575
  0
CIRCLE
  5
C7
100
AcDbEntity
100
AcDbCircle
  8
0
 62
256
370
-1
  6
ByLayer
 10
2.7949999999999999
 20
2.2780000000000005
 30
0.0
 40
0.1575
  0
LINE
  5
C8
100
AcDbEntity
100
AcDbLine
  8
0
 62
256
370
-1
  6
ByLayer
 10
2.4649999999999999
 20
2.2780000000000005
 30
0.0
 11
2.4649999999999999
 21
2.3235000000000001
 31
0.0
  0
LINE
  5
C9
100
AcDbEntity
100
AcDbLine
  8
0
 62
256
370
-1
  6
ByLayer
 10
3.125
 20
2.2780000000000005
 30
0.0
 11
3.125
 21
2.3235000000000001
 31
0.0
  0
LINE
  5
CA
100
AcDbEntity
100
AcDbLine
  8
0
 62
256
370
-1
  6
ByLayer
 10
3.7850000000000001
 20
2.2780000000000005
 30
0.0
 11
3.7850000000000001
 21
2.3235000000000001
 31
0.0
  0
LINE
  5
CB
100
AcDbEntity
100
AcDbLine
  8
0
 62
256
370
-1
  6
ByLayer
 10
2.7949999999999999
 20
1.9480000000000004
 30
0.0
 11
2.8405000000000005
 21
1.9480000000000004
 31
0.0
  0
LINE
  5
CC
100
AcDbEntity
100
AcDbLine
  8
0
 62
256
370
-1
  6
ByLayer
 10
2.7949999999999999
 20
2.6080000000000005
 30
0.0
 11
2.8405000000000005
 21
2.6080000000000005
 31
0.0
  0
LINE
  5
CD
100
AcDbEntity
100
AcDbLine
  8
0
 62
256
370
-1
  6
ByLayer
 10
3.4550000000000001
 20
1.9480000000000004
 30
0.0
 11
3.5005000000000006
 21
1.9480000000000004
 31
0.0
  0
LINE
  5
CE
100
AcDbEntity
100
AcDbLine
  8
0
 62
256
370
-1
  6
ByLayer
 10
3.4550000000000001
 20
2.6080000000000005
 30
0.0
 11
3.5005000000000006
 21
2.6080000000000005
 31
0.0
  0
LINE
  5
CF
100
AcDbEntity
100
AcDbLine
  8
0
 62
256
370
-1
  6
ByLayer
 10
3.7850000000000001
 20
2.2780000000000005
 30
0.0
 11
3.8305000000000007
 21
2.2780000000000005
 31
0.0
  0
LINE
  5
D0
100
AcDbEntity
100
AcDbLine
  8
0
 62
256
370
-1
  6
ByLayer
 10
2.4649999999999999
 20
2.2780000000000005
 30
0.0
 11
2.5104999999999995
 21
2.2780000000000005
 31
0.0
  0
CIRCLE
  5
D1
100
AcDbEntity
100
AcDbCircle
  8
0
 62
256
370
-1
  6
ByLayer
 10
3.5174999999999992
 20
0.9190000000000009
 30
0.0
 40
0.0625
  0
CIRCLE
  5
D2
100
AcDbEntity
100
AcDbCircle
  8
0
 62
256
370
-1
  6
ByLayer
 10
2.7324999999999999
 20
0.9190000000000009
 30
0.0
 40
0.0625
  0
CIRCLE
  5
D3
100
AcDbEntity
100
AcDbCircle
  8
0
 62
256
370
-1
  6
ByLayer
 10
2.1550000000000002
 20
3.2055000000000002
 30
0.0
 40
0.087
  0
CIRCLE
  5
D4
100
AcDbEntity
100
AcDbCircle
  8
0
 62
256
370
-1
  6
ByLayer
 10
2.1550000000000002
 20
2.8335000000000004
 30
0.0
 40
0.087
  0
CIRCLE
  5
D5
100
AcDbEntity
100
AcDbCircle
  8
0
 62
256
370
-1
  6
ByLayer
 10
4.0950000000000006
 20
3.2055000000000002
 30
0.0
 40
0.087
  0
CIRCLE
  5
D6
100
AcDbEntity
100
AcDbCircle
  8
0
 62
256
370
-1
  6
ByLayer
 10
4.0950000000000006
 20
2.8335000000000004
 30
0.0
 40
0.087
  0
LINE
  5
D7
100
AcDbEntity
100
AcDbLine
  8
0
 62
256
370
-1
  6
ByLayer
 10
2.0
 20
2.0397500000000006
 30
0.0
 11
2.0
 21
2.1807500000000006
 31
0.0
  0
LINE
  5
D8
100
AcDbEntity
100
AcDbLine
  8
0
 62
256
370
-1
  6
ByLayer
 10
2.1550000000000002
 20
2.5085000000000006
 30
0.0
 11
2.2960000000000003
 21
2.5085000000000006
 31
0.0
  0
CIRCLE
  5
D9
100
AcDbEntity
100
AcDbCircle
  8
0
 62
256
370
-1
  6
ByLayer
 10
2.141
 20
2.2005000000000008
 30
0.0
 40
0.087
  0
CIRCLE
  5
DA
100
AcDbEntity
100
AcDbCircle
  8
0
 62
256
370
-1
  6
ByLayer
 10
2.141
 20
1.8095000000000008
 30
0.0
 40
0.087
  0
CIRCLE
  5
DB
100
AcDbEntity
100
AcDbCircle
  8
0
 62
256
370
-1
  6
ByLayer
 10
4.109
 20
2.2005000000000008
 30
0.0
 40
0.087
  0
CIRCLE
  5
DC
100
AcDbEntity
100
AcDbCircle
  8
0
 62
256
370
-1
  6
ByLayer
 10
4.109
 20
1.8095000000000008
 30
0.0
 40
0.087
  0
LINE
  5
DD
100
AcDbEntity
100
AcDbLine
  8
0
 62
256
370
-1
  6
ByLayer
 10
2.1550000000000002
 20
3.2055000000000002
 30
0.0
 11
2.242
 21
3.2055000000000002
 31
0.0
  0
LINE
  5
DE
100
AcDbEntity
100
AcDbLine
  8
0
 62
256
370
-1
  6
ByLayer
 10
2.1550000000000002
 20
2.8335000000000004
 30
0.0
 11
2.242
 21
2.8335000000000004
 31
0.0
  0
LINE
  5
DF
100
AcDbEntity
100
AcDbLine
  8
0
 62
256
370
-1
  6
ByLayer
 10
2.141
 20
2.2005000000000008
 30
0.0
 11
2.2280000000000006
 21
2.2005000000000008
 31
0.0
  0
LINE
  5
E0
100
AcDbEntity
100
AcDbLine
  8
0
 62
256
370
-1
  6
ByLayer
 10
2.141
 20
1.8095000000000008
 30
0.0
 11
2.2280000000000006
 21
1.8095000000000008
 31
0.0
  0
LINE
  5
E1
100
AcDbEntity
100
AcDbLine
  8
0
 62
256
370
-1
  6
ByLayer
 10
4.109
 20
1.8095000000000008
 30
0.0
 11
4.1959999999999997
 21
1.8095000000000008
 31
0.0
  0
LINE
  5
E2
100
AcDbEntity
100
AcDbLine
  8
0
 62
256
370
-1
  6
ByLayer
 10
4.109
 20
2.2005000000000008
 30
0.0
 11
4.1959999999999997
 21
2.2005000000000008
 31
0.0
  0
LINE
  5
E3
100
AcDbEntity
100
AcDbLine
  8
0
 62
256
370
-1
  6
ByLayer
 10
4.0950000000000006
 20
2.8335000000000004
 30
0.0
 11
4.1820000000000004
 21
2.8335000000000004
 31
0.0
  0
LINE
  5
E4
100
AcDbEntity
100
AcDbLine
  8
0
 62
256
370
-1
  6
ByLayer
 10
4.0950000000000006
 20
3.2055000000000002
 30
0.0
 11
4.1820000000000004
 21
3.2055000000000002
 31
0.0
  0
LINE
  5
E5
100
AcDbEntity
100
AcDbLine
  8
0
 62
256
370
-1
  6
ByLayer
 10
2.1550000000000002
 20
3.2055000000000002
 30
0.0
 11
2.1550000000000002
 21
3.2925000000000004
 31
0.0
  0
LINE
  5
E6
100
AcDbEntity
100
AcDbLine
  8
0
 62
256
370
-1
  6
ByLayer
 10
2.1550000000000002
 20
2.8335000000000004
 30
0.0
 11
2.1550000000000002
 21
2.9205000000000005
 31
0.0
  0
LINE
  5
E7
100
AcDbEntity
100
AcDbLine
  8
0
 62
256
370
-1
  6
ByLayer
 10
2.141
 20
2.2005000000000008
 30
0.0
 11
2.141
 21
2.287500000000001
 31
0.0
  0
LINE
  5
E8
100
AcDbEntity
100
AcDbLine
  8
0
 62
256
370
-1
  6
ByLayer
 10
2.141
 20
1.8095000000000008
 30
0.0
 11
2.141
 21
1.896500000000001
 31
0.0
  0
LINE
  5
E9
100
AcDbEntity
100
AcDbLine
  8
0
 62
256
370
-1
  6
ByLayer
 10
4.109
 20
1.8095000000000008
 30
0.0
 11
4.109
 21
1.896500000000001
 31
0.0
  0
LINE
  5
EA
100
AcDbEntity
100
AcDbLine
  8
0
 62
256
370
-1
  6
ByLayer
 10
4.109
 20
2.2005000000000008
 30
0.0
 11
4.109
 21
2.287500000000001
 31
0.0
  0
LINE
  5
EB
100
AcDbEntity
100
AcDbLine
  8
0
 62
256
370
-1
  6
ByLayer
 10
4.0950000000000006
 20
2.8335000000000004
 30
0.0
 11
4.0950000000000006
 21
2.9205000000000005
 31
0.0
  0
LINE
  5
EC
100
AcDbEntity
100
AcDbLine
  8
0
 62
256
370
-1
  6
ByLayer
 10
4.0950000000000006
 20
3.2055000000000002
 30
0.0
 11
4.0950000000000006
 21
3.2925000000000004
 31
0.0
  0
LINE
  5
ED
100
AcDbEntity
100
AcDbLine
  8
0
 62
256
370
-1
  6
ByLayer
 10
2.7949999999999999
 20
2.6080000000000005
 30
0.0
 11
2.7949999999999999
 21
2.6535000000000006
 31
0.0
  0
LINE
  5
EE
100
AcDbEntity
100
AcDbLine
  8
0
 62
256
370
-1
  6
ByLayer
 10
3.4550000000000001
 20
2.6080000000000005
 30
0.0
 11
3.4550000000000001
 21
2.6535000000000006
 31
0.0
  0
LINE
  5
EF
100
AcDbEntity
100
AcDbLine
  8
0
 62
256
370
-1
  6
ByLayer
 10
3.4550000000000001
 20
1.9480000000000004
 30
0.0
 11
3.4550000000000001
 21
1.9935000000000005
 31
0.0
  0
LINE
  5
F0
100
AcDbEntity
100
AcDbLine
  8
0
 62
256
370
-1
  6
ByLayer
 10
2.7949999999999999
 20
1.9480000000000004
 30
0.0
 11
2.7949999999999999
 21
1.9935000000000005
 31
0.0
  0
LINE
  5
F1
100
AcDbEntity
100
AcDbLine
  8
0
 62
256
370
-1
  6
ByLayer
 10
3.125
 20
2.2780000000000005
 30
0.0
 11
3.1704999999999997
 21
2.2780000000000005
 31
0.0
  0
LINE
  5
F2
100
AcDbEntity
100
AcDbLine
  8
0
 62
256
370
-1
  6
ByLayer
 10
3.7850000000000001
 20
2.2780000000000005
 30
0.0
 11
3.8304999999999998
 21
2.2780000000000005
 31
0.0
  0
LINE
  5
F3
100
AcDbEntity
100
AcDbLine
  8
0
 62
256
370
-1
  6
ByLayer
 10
2.7324999999999999
 20
0.9190000000000009
 30
0.0
 11
2.7949999999999999
 21
0.9190000000000009
 31
0.0
  0
LINE
  5
F4
100
AcDbEntity
100
AcDbLine
  8
0
 62
256
370
-1
  6
ByLayer
 10
3.5174999999999992
 20
0.9190000000000009
 30
0.0
 11
3.5799999999999992
 21
0.9190000000000009
 31
0.0
  0
LINE
  5
F5
100
AcDbEntity
100
AcDbLine
  8
0
 62
256
370
-1
  6
ByLayer
 10
2.7324999999999999
 20
0.9190000000000009
 30
0.0
 11
2.7324999999999999
 21
0.9815000000000009
 31
0.0
  0
LINE
  5
F6
100
AcDbEntity
100
AcDbLine
  8
0
 62
256
370
-1
  6
ByLayer
 10
3.5174999999999992
 20
0.9190000000000009
 30
0.0
 11
3.5174999999999992
 21
0.9815000000000009
 31
0.0
  0
LINE
  5
F7
100
AcDbEntity
100
AcDbLine
  8
0
 62
256
370
-1
  6
ByLayer
 10
3.4550000000000001
 20
2.2780000000000005
 30
0.0
 11
3.6124999999999998
 21
2.2780000000000005
 31
0.0
  0
LINE
  5
F8
100
AcDbEntity
100
AcDbLine
  8
0
 62
256
370
-1
  6
ByLayer
 10
2.7949999999999999
 20
2.2780000000000005
 30
0.0
 11
2.9524999999999997
 21
2.2780000000000005
 31
0.0
  0
LINE
  5
F9
100
AcDbEntity
100
AcDbLine
  8
0
 62
256
370
-1
  6
ByLayer
 10
3.4550000000000001
 20
2.2780000000000005
 30
0.0
 11
3.4550000000000001
 21
2.4355000000000007
 31
0.0
  0
LINE
  5
FA
100
AcDbEntity
100
AcDbLine
  8
0
 62
256
370
-1
  6
ByLayer
 10
2.7949999999999999
 20
2.2780000000000005
 30
0.0
 11
2.7949999999999999
 21
2.4355000000000007
 31
0.0
  0
LEADER
  5
FB
  8
0
 62
256
370
-1
  6
ByLayer
100
AcDbEntity
100
AcDbLeader
  3
Standard
 71
1
 72
0
 73
3
 74
0
 75
0
 40
1.0
 41
10.0
 76
2
 10
4.2000000000000002
 20
3.2000000000000002
 10
4.7000000000000002
 20
3.2000000000000002
  0
MTEXT
  5
FC
100
AcDbEntity
100
AcDbMText
  8
0
 62
256
370
-1
  6
ByLayer
 10
4.7000000000000002
 20
3.2000000000000002
 30
0.0
 40
0.08
 41
100.0
 71
1
 72
2
  1
0.175\~drills\~x\~8
  7
courier
 50
0.0
 73
1
 44
1.0
  0
DIMENSION
  5
FD
100
AcDbEntity
  8
0
 62
256
370
-1
  6
ByLayer
100
AcDbDimension
 10
2.6926255667252845
 20
0.8708722577818137
 30
0.0
 11
2.6747467093381752
 21
0.9668493199296592
 31
0.0
 70
3
 71
5
 72
1
 41
1.0
 42
0.0
  1

  3
Standard
100
AcDbDiametricDimension
 15
2.7723744332747149
 25
0.9671277422181882
 35
0.0
 40
0.0
  0
DIMENSION
  5
FE
100
AcDbEntity
  8
0
 62
256
370
-1
  6
ByLayer
100
AcDbDimension
 10
3.5552328019644071
 20
0.9688245487276589
 30
0.0
 11
3.4577105415268097
 21
0.9642793623572905
 31
0.0
 70
3
 71
5
 72
1
 41
1.0
 42
0.0
  1

  3
Standard
100
AcDbDiametricDimension
 15
3.4797671980355913
 25
0.869175451272343
 35
0.0
 40
0.0
  0
LINE
  5
FF
100
AcDbEntity
100
AcDbLine
  8
0
 62
256
370
-1
  6
ByLayer
 10
2.0
 20
2.5085000000000006
 30
0.0
 11
2.0
 21
3.3375000000000004
 31
0.0
  0
ARC
  5
100
100
AcDbEntity
  8
0
 62
256
370
-1
  6
ByLayer
100
AcDbCircle
 10
2.0625
 20
3.3375000000000004
 30
0.0
 40
0.0625
100
AcDbArc
 50
90.0
 51
180.0
  0
LINE
  5
101
100
AcDbEntity
100
AcDbLine
  8
0
 62
256
370
-1
  6
ByLayer
 10
2.3099999999999996
 20
2.5085000000000006
 30
0.0
 11
2.3099999999999996
 21
3.3375000000000004
 31
0.0
  0
LINE
  5
102
100
AcDbEntity
100
AcDbLine
  8
0
 62
256
370
-1
  6
ByLayer
 10
2.0625
 20
3.4000000000000004
 30
0.0
 11
2.2474999999999996
 21
3.4000000000000004
 31
0.0
  0
ARC
  5
103
100
AcDbEntity
  8
0
 62
256
370
-1
  6
ByLayer
100
AcDbCircle
 10
2.2474999999999996
 20
3.3375000000000004
 30
0.0
 40
0.0625
100
AcDbArc
 50
0.0
 51
90.0
  0
LINE
  5
104
100
AcDbEntity
100
AcDbLine
  8
0
 62
256
370
-1
  6
ByLayer
 10
3.9400000000000004
 20
2.5085000000000006
 30
0.0
 11
3.9400000000000004
 21
3.3375000000000004
 31
0.0
  0
ARC
  5
105
100
AcDbEntity
  8
0
 62
256
370
-1
  6
ByLayer
100
AcDbCircle
 10
4.0025000000000004
 20
3.3375000000000004
 30
0.0
 40
0.0625
100
AcDbArc
 50
90.0
 51
180.0
  0
LINE
  5
106
100
AcDbEntity
100
AcDbLine
  8
0
 62
256
370
-1
  6
ByLayer
 10
4.25
 20
2.5085000000000006
 30
0.0
 11
4.25
 21
3.3375000000000004
 31
0.0
  0
LINE
  5
107
100
AcDbEntity
100
AcDbLine
  8
0
 62
256
370
-1
  6
ByLayer
 10
4.0025000000000004
 20
3.4000000000000004
 30
0.0
 11
4.1875
 21
3.4000000000000004
 31
0.0
  0
ARC
  5
108
100
AcDbEntity
  8
0
 62
256
370
-1
  6
ByLayer
100
AcDbCircle
 10
4.1875
 20
3.3375000000000004
 30
0.0
 40
0.0625
100
AcDbArc
 50
0.0
 51
90.0
  0
LINE
  5
109
100
AcDbEntity
100
AcDbLine
  8
0
 62
256
370
-1
  6
ByLayer
 10
4.25
 20
1.6335000000000006
 30
0.0
 11
4.25
 21
2.5085000000000006
 31
0.0
  0
ARC
  5
10A
100
AcDbEntity
  8
0
 62
256
370
-1
  6
ByLayer
100
AcDbCircle
 10
4.1875
 20
1.6335000000000006
 30
0.0
 40
0.0625
100
AcDbArc
 50
270.0
 51
0.0
  0
LINE
  5
10B
100
AcDbEntity
100
AcDbLine
  8
0
 62
256
370
-1
  6
ByLayer
 10
2.0
 20
1.6335000000000006
 30
0.0
 11
2.0
 21
2.5085000000000006
 31
0.0
  0
ARC
  5
10C
100
AcDbEntity
  8
0
 62
256
370
-1
  6
ByLayer
100
AcDbCircle
 10
2.0625
 20
1.6335000000000006
 30
0.0
 40
0.0625
100
AcDbArc
 50
180.0
 51
270.0
  0
LINE
  5
10D
100
AcDbEntity
100
AcDbLine
  8
0
 62
256
370
-1
  6
ByLayer
 10
4.0024999999999995
 20
1.5710000000000006
 30
0.0
 11
4.1875
 21
1.5710000000000006
 31
0.0
  0
LINE
  5
10E
100
AcDbEntity
100
AcDbLine
  8
0
 62
256
370
-1
  6
ByLayer
 10
3.9399999999999995
 20
1.5085000000000006
 30
0.0
 11
3.9399999999999995
 21
1.4160000000000008
 31
0.0
  0
ARC
  5
10F
100
AcDbEntity
  8
0
 62
256
370
-1
  6
ByLayer
100
AcDbCircle
 10
4.0024999999999995
 20
1.5085000000000006
 30
0.0
 40
0.0625
100
AcDbArc
 50
90.0
 51
180.0
  0
LINE
  5
110
100
AcDbEntity
100
AcDbLine
  8
0
 62
256
370
-1
  6
ByLayer
 10
2.0625
 20
1.5710000000000006
 30
0.0
 11
2.2474999999999996
 21
1.5710000000000006
 31
0.0
  0
LINE
  5
111
100
AcDbEntity
100
AcDbLine
  8
0
 62
256
370
-1
  6
ByLayer
 10
2.3099999999999996
 20
1.5085000000000006
 30
0.0
 11
2.3099999999999996
 21
1.4160000000000008
 31
0.0
  0
ARC
  5
112
100
AcDbEntity
  8
0
 62
256
370
-1
  6
ByLayer
100
AcDbCircle
 10
2.2474999999999996
 20
1.5085000000000006
 30
0.0
 40
0.0625
100
AcDbArc
 50
0.0
 51
90.0
  0
LINE
  5
113
100
AcDbEntity
100
AcDbLine
  8
0
 62
256
370
-1
  6
ByLayer
 10
2.3099999999999996
 20
1.4160000000000008
 30
0.0
 11
2.3099999999999996
 21
0.5875000000000008
 31
0.0
  0
ARC
  5
114
100
AcDbEntity
  8
0
 62
256
370
-1
  6
ByLayer
100
AcDbCircle
 10
2.3724999999999996
 20
0.5875000000000008
 30
0.0
 40
0.0625
100
AcDbArc
 50
180.0
 51
270.0
  0
LINE
  5
115
100
AcDbEntity
100
AcDbLine
  8
0
 62
256
370
-1
  6
ByLayer
 10
3.9399999999999995
 20
1.4160000000000008
 30
0.0
 11
3.9399999999999995
 21
0.5875000000000008
 31
0.0
  0
LINE
  5
116
100
AcDbEntity
100
AcDbLine
  8
0
 62
256
370
-1
  6
ByLayer
 10
2.3724999999999996
 20
0.5250000000000008
 30
0.0
 11
3.8774999999999995
 21
0.5250000000000008
 31
0.0
  0
ARC
  5
117
100
AcDbEntity
  8
0
 62
256
370
-1
  6
ByLayer
100
AcDbCircle
 10
3.8774999999999995
 20
0.5875000000000008
 30
0.0
 40
0.0625
100
AcDbArc
 50
270.0
 51
0.0
  0
LINE
  5
118
100
AcDbEntity
100
AcDbLine
  8
0
 62
256
370
-1
  6
ByLayer
 10
2.4349999999999996
 20
2.3675000000000006
 30
0.0
 11
2.4349999999999996
 21
2.6815000000000007
 31
0.0
  0
ARC
  5
119
100
AcDbEntity
  8
0
 62
256
370
-1
  6
ByLayer
100
AcDbCircle
 10
2.4974999999999996
 20
2.6815000000000007
 30
0.0
 40
0.0625
100
AcDbArc
 50
90.0
 51
180.0
  0
LINE
  5
11A
100
AcDbEntity
100
AcDbLine
  8
0
 62
256
370
-1
  6
ByLayer
 10
2.4974999999999996
 20
2.7440000000000007
 30
0.0
 11
3.7525000000000004
 21
2.7440000000000007
 31
0.0
  0
LINE
  5
11B
100
AcDbEntity
100
AcDbLine
  8
0
 62
256
370
-1
  6
ByLayer
 10
3.8150000000000004
 20
2.3675000000000006
 30
0.0
 11
3.8150000000000004
 21
2.6815000000000007
 31
0.0
  0
ARC
  5
11C
100
AcDbEntity
  8
0
 62
256
370
-1
  6
ByLayer
100
AcDbCircle
 10
3.7525000000000004
 20
2.6815000000000007
 30
0.0
 40
0.0625
100
AcDbArc
 50
0.0
 51
90.0
  0
MTEXT
  5
11D
100
AcDbEntity
100
AcDbMText
  8
0
 62
256
370
-1
  6
ByLayer
 10
3.0892827004219461
 20
7.3235443037974806
 30
0.0
 40
0.1
 41
100.0
 71
1
 72
2
  1
"U"\~Bracket
  7
normallatin1
 50
0.0
 73
0
 44
1.0
  0
MTEXT
  5
11E
100
AcDbEntity
100
AcDbMText
  8
0
 62
256
370
-1
  6
ByLayer
 10
2.4195780590717342
 20
0.3132489451476799
 30
0.0
 40
0.1
 41
100.0
 71
1
 72
2
  1
Servo\~Mount\~Bracket
  7
normallatin1
 50
0.0
 73
0
 44
1.0
  0
MTEXT
  5
11F
100
AcDbEntity
100
AcDbMText
  8
0
 62
256
370
-1
  6
ByLayer
 10
7.9824472573839795
 20
3.6941772151898795
 30
0.0
 40
0.1
 41
100.0
 71
1
 72
2
  1
90\~Degree\~Angle\~Bracket
  7
normallatin1
 50
0.0
 73
0
 44
1.0
  0
MTEXT
  5
120
100
AcDbEntity
100
AcDbMText
  8
0
 62
256
370
-1
  6
ByLayer
 10
3.0
 20
5.2000000000000002
 30
0.0
 40
0.08
 41
100.0
 71
1
 72
2
  3
1.\~\~Print\~fresh\~pattern\P2.\~\~Cut\~out\~pattern\~with\~scissors\P3.\~\~Glue\~pattern\~to\~metal\~with\~spray\~adhesive\P4.\~\~Rough\~cut\~pattern\~with\~saw\P5.\~\~Punch\~drill\~holes\P6.\~\~Drill\~out\~drill\~holes\P7.\~\~Deburr\~holes\P8.\~\~F
  1
inal\~cut\~along\~pattern\~lines\~with\~saw\P9.\~\~File\~edges\~with\~metal\~file\P10.\~\~Bend\~on\~bend\~lines\P11.\~\~Remove\~paper\~with\~"Goo\~Gone"\P12.\~\~Clean\~with\~dish\~soap\~and\~hot\~water
  7
courier
 50
0.0
 73
1
 44
1.0
  0
MTEXT
  5
121
100
AcDbEntity
100
AcDbMText
  8
0
 62
256
370
-1
  6
ByLayer
 10
5.1000000000000005
 20
7.5
 30
0.0
 40
0.08
 41
100.0
 71
1
 72
0
  1
Drill\~one\~side\~to\~0.125\U+00f8\~to\~use\~4-40\~screw\PDrill\~to\~0.315\U+00f8\~to\~use\~Lynxmotion\~bearing
  7
normallatin1
 50
0.0
 73
1
 44
1.0
  0
CIRCLE
  5
122
100
AcDbEntity
100
AcDbCircle
  8
0
 62
256
370
-1
  6
ByLayer
 10
7.9100000000000001
 20
4.7000000000000002
 30
0.0
 40
0.046875
  0
CIRCLE
  5
123
100
AcDbEntity
100
AcDbCircle
  8
0
 62
256
370
-1
  6
ByLayer
 10
8.2400000000000002
 20
5.0300000000000002
 30
0.0
 40
0.046875
  0
CIRCLE
  5
124
100
AcDbEntity
100
AcDbCircle
  8
0
 62
256
370
-1
  6
ByLayer
 10
8.2400000000000002
 20
4.3700000000000001
 30
0.0
 40
0.046875
  0
CIRCLE
  5
125
100
AcDbEntity
100
AcDbCircle
  8
0
 62
256
370
-1
  6
ByLayer
 10
8.9000000000000004
 20
4.3700000000000001
 30
0.0
 40
0.046875
  0
CIRCLE
  5
126
100
AcDbEntity
100
AcDbCircle
  8
0
 62
256
370
-1
  6
ByLayer
 10
8.5700000000000003
 20
4.7000000000000002
 30
0.0
 40
0.046875
  0
CIRCLE
  5
127
100
AcDbEntity
100
AcDbCircle
  8
0
 62
256
370
-1
  6
ByLayer
 10
8.9000000000000004
 20
5.0300000000000002
 30
0.0
 40
0.046875
  0
CIRCLE
  5
128
100
AcDbEntity
100
AcDbCircle
  8
0
 62
256
370
-1
  6
ByLayer
 10
9.2300000000000004
 20
4.7000000000000002
 30
0.0
 40
0.046875
  0
CIRCLE
  5
129
100
AcDbEntity
100
AcDbCircle
  8
0
 62
256
370
-1
  6
ByLayer
 10
9.2300000000000004
 20
6.5
 30
0.0
 40
0.046875
  0
CIRCLE
  5
12A
100
AcDbEntity
100
AcDbCircle
  8
0
 62
256
370
-1
  6
ByLayer
 10
8.5700000000000003
 20
6.5
 30
0.0
 40
0.046875
  0
CIRCLE
  5
12B
100
AcDbEntity
100
AcDbCircle
  8
0
 62
256
370
-1
  6
ByLayer
 10
8.9000000000000004
 20
6.8300000000000001
 30
0.0
 40
0.046875
  0
CIRCLE
  5
12C
100
AcDbEntity
100
AcDbCircle
  8
0
 62
256
370
-1
  6
ByLayer
 10
8.9000000000000004
 20
6.1699999999999999
 30
0.0
 40
0.046875
  0
CIRCLE
  5
12D
100
AcDbEntity
100
AcDbCircle
  8
0
 62
256
370
-1
  6
ByLayer
 10
5.8620000000000001
 20
6.4879999999999995
 30
0.0
 40
0.046875
  0
CIRCLE
  5
12E
100
AcDbEntity
100
AcDbCircle
  8
0
 62
256
370
-1
  6
ByLayer
 10
5.532
 20
6.8179999999999996
 30
0.0
 40
0.046875
  0
CIRCLE
  5
12F
100
AcDbEntity
100
AcDbCircle
  8
0
 62
256
370
-1
  6
ByLayer
 10
5.202
 20
6.4879999999999995
 30
0.0
 40
0.046875
  0
CIRCLE
  5
130
100
AcDbEntity
100
AcDbCircle
  8
0
 62
256
370
-1
  6
ByLayer
 10
5.532
 20
6.1579999999999995
 30
0.0
 40
0.046875
  0
CIRCLE
  5
131
100
AcDbEntity
100
AcDbCircle
  8
0
 62
256
370
-1
  6
ByLayer
 10
3.5099999999999998
 20
6.8179999999999996
 30
0.0
 40
0.046875
  0
CIRCLE
  5
132
100
AcDbEntity
100
AcDbCircle
  8
0
 62
256
370
-1
  6
ByLayer
 10
3.1799999999999997
 20
6.4879999999999995
 30
0.0
 40
0.046875
  0
CIRCLE
  5
133
100
AcDbEntity
100
AcDbCircle
  8
0
 62
256
370
-1
  6
ByLayer
 10
3.5099999999999998
 20
6.1579999999999995
 30
0.0
 40
0.046875
  0
CIRCLE
  5
134
100
AcDbEntity
100
AcDbCircle
  8
0
 62
256
370
-1
  6
ByLayer
 10
3.8399999999999999
 20
6.4879999999999995
 30
0.0
 40
0.046875
  0
CIRCLE
  5
135
100
AcDbEntity
100
AcDbCircle
  8
0
 62
256
370
-1
  6
ByLayer
 10
1.8180000000000001
 20
6.4879999999999995
 30
0.0
 40
0.046875
  0
CIRCLE
  5
136
100
AcDbEntity
100
AcDbCircle
  8
0
 62
256
370
-1
  6
ByLayer
 10
1.488
 20
6.8179999999999996
 30
0.0
 40
0.046875
  0
CIRCLE
  5
137
100
AcDbEntity
100
AcDbCircle
  8
0
 62
256
370
-1
  6
ByLayer
 10
1.1579999999999999
 20
6.4879999999999995
 30
0.0
 40
0.046875
  0
CIRCLE
  5
138
100
AcDbEntity
100
AcDbCircle
  8
0
 62
256
370
-1
  6
ByLayer
 10
1.488
 20
6.1579999999999995
 30
0.0
 40
0.046875
  0
CIRCLE
  5
139
100
AcDbEntity
100
AcDbCircle
  8
0
 62
256
370
-1
  6
ByLayer
 10
3.4550000000000001
 20
1.9480000000000004
 30
0.0
 40
0.046875
  0
CIRCLE
  5
13A
100
AcDbEntity
100
AcDbCircle
  8
0
 62
256
370
-1
  6
ByLayer
 10
3.125
 20
2.2780000000000005
 30
0.0
 40
0.046875
  0
CIRCLE
  5
13B
100
AcDbEntity
100
AcDbCircle
  8
0
 62
256
370
-1
  6
ByLayer
 10
3.4550000000000001
 20
2.6080000000000005
 30
0.0
 40
0.046875
  0
CIRCLE
  5
13C
100
AcDbEntity
100
AcDbCircle
  8
0
 62
256
370
-1
  6
ByLayer
 10
3.7850000000000001
 20
2.2780000000000005
 30
0.0
 40
0.046875
  0
CIRCLE
  5
13D
100
AcDbEntity
100
AcDbCircle
  8
0
 62
256
370
-1
  6
ByLayer
 10
2.7949999999999999
 20
1.9480000000000004
 30
0.0
 40
0.046875
  0
CIRCLE
  5
13E
100
AcDbEntity
100
AcDbCircle
  8
0
 62
256
370
-1
  6
ByLayer
 10
2.4649999999999999
 20
2.2780000000000005
 30
0.0
 40
0.046875
  0
CIRCLE
  5
13F
100
AcDbEntity
100
AcDbCircle
  8
0
 62
256
370
-1
  6
ByLayer
 10
2.7949999999999999
 20
2.6080000000000005
 30
0.0
 40
0.046875
  0
CIRCLE
  5
140
100
AcDbEntity
100
AcDbCircle
  8
0
 62
256
370
-1
  6
ByLayer
 10
9.5
 20
2.5699999999999998
 30
0.0
 40
0.046875
  0
CIRCLE
  5
141
100
AcDbEntity
100
AcDbCircle
  8
0
 62
256
370
-1
  6
ByLayer
 10
8.1319999999999997
 20
2.5699999999999998
 30
0.0
 40
0.046875
  0
CIRCLE
  5
142
100
AcDbEntity
100
AcDbCircle
  8
0
 62
256
370
-1
  6
ByLayer
 10
7.8019999999999996
 20
2.8999999999999999
 30
0.0
 40
0.046875
  0
CIRCLE
  5
143
100
AcDbEntity
100
AcDbCircle
  8
0
 62
256
370
-1
  6
ByLayer
 10
8.1319999999999997
 20
3.23
 30
0.0
 40
0.046875
  0
CIRCLE
  5
144
100
AcDbEntity
100
AcDbCircle
  8
0
 62
256
370
-1
  6
ByLayer
 10
9.5
 20
3.23
 30
0.0
 40
0.046875
  0
CIRCLE
  5
145
100
AcDbEntity
100
AcDbCircle
  8
0
 62
256
370
-1
  6
ByLayer
 10
9.1699999999999999
 20
2.8999999999999999
 30
0.0
 40
0.046875
  0
CIRCLE
  5
146
100
AcDbEntity
100
AcDbCircle
  8
0
 62
256
370
-1
  6
ByLayer
 10
9.8300000000000001
 20
2.8999999999999999
 30
0.0
 40
0.046875
  0
DIMENSION
  5
147
100
AcDbEntity
  8
0
 62
256
370
-1
  6
ByLayer
100
AcDbDimension
 10
8.9468744329184755
 20
6.1697694277308628
 30
0.0
 11
8.9003689156306169
 21
6.2449990926695618
 31
0.0
 70
3
 71
5
 72
1
 41
1.0
 42
0.0
  1

  3
Standard
100
AcDbDiametricDimension
 15
8.8531255670815252
 25
6.1702305722691371
 35
0.0
 40
0.0
  0
CIRCLE
  5
148
100
AcDbEntity
100
AcDbCircle
  8
0
 62
256
370
-1
  6
ByLayer
 10
5.532
 20
6.4879999999999995
 30
0.0
 40
0.0625
  0
MTEXT
  5
149
100
AcDbEntity
100
AcDbMText
  8
0
 62
256
370
-1
  6
ByLayer
 10
5.5
 20
1.8
 30
0.0
 40
0.08
 41
100.0
 71
1
 72
0
  3
Decimal\~\~\~\~\~\~\~\~Appx\~Fractional\~Size\P0.93\~\~\~\~\~\~\~\~\~\~\~\~\~\~\~\~\~\~\~\~\~3/32"\P\P0.315\~\~\~\~\~\~\~\~\~\~\~\~\~\~\~\~\~\~\~21/64"\P\P0.175\~\~\~\~\~\~\~\~\~\~\~\~\~\~\~\~\~\~\~11/64"\P\P0.125\~\~\~\~\~\~\~\~\~\~\~\~\~\~\~\~\~\~\
  1
~1/8"
  7
normallatin1
 50
0.0
 73
1
 44
1.0
  0
CIRCLE
  5
14A
100
AcDbEntity
100
AcDbCircle
  8
0
 62
256
370
-1
  6
ByLayer
 10
1.4879999999999998
 20
6.4879999999999995
 30
0.0
 40
0.0625
  0
CIRCLE
  5
14B
100
AcDbEntity
100
AcDbCircle
  8
0
 62
256
370
-1
  6
ByLayer
 10
5.532
 20
6.4879999999999995
 30
0.0
 40
0.0625
  0
MTEXT
  5
14C
100
AcDbEntity
100
AcDbMText
  8
0
 62
256
370
-1
  6
ByLayer
 10
9.322451228656977
 20
0.1801439850948208
 30
0.0
 40
0.08
 41
100.0
 71
1
 72
2
  1
Rev\~B
  7
courier
 50
0.0
 73
1
 44
1.0
  0
ENDSEC
  0
SECTION
  2
OBJECTS
  0
DICTIONARY
  5
C
100
AcDbDictionary
280
0
281
1
  3
ACAD_GROUP
350
D
  3
ACAD_LAYOUT
350
1A
  3
ACAD_MLINESTYLE
350
17
  3
ACAD_PLOTSETTINGS
350
19
  3
ACAD_PLOTSTYLENAME
350
E
  3
AcDbVariableDictionary
350
14D
  0
DICTIONARY
  5
D
100
AcDbDictionary
280
0
281
1
  0
ACDBDICTIONARYWDFLT
  5
E
100
AcDbDictionary
281
1
  3
Normal
350
F
100
AcDbDictionaryWithDefault
340
F
  0
ACDBPLACEHOLDER
  5
F
  0
DICTIONARY
  5
17
100
AcDbDictionary
280
0
281
1
  3
Standard
350
18
  0
MLINESTYLE
  5
18
100
AcDbMlineStyle
  2
STANDARD
 70
0
  3

 62
256
 51
90.0
 52
90.0
 71
2
 49
0.5
 62
256
  6
BYLAYER
 49
-0.5
 62
256
  6
BYLAYER
  0
DICTIONARY
  5
19
100
AcDbDictionary
280
0
281
1
  0
DICTIONARY
  5
1A
100
AcDbDictionary
281
1
  3
Layout1
350
1E
  3
Layout2
350
26
  3
Model
350
22
  0
LAYOUT
  5
1E
100
AcDbPlotSettings
  1

  2
C:\Program Files\AutoCAD 2002\plotters\DWF ePlot (optimized for plotting).pc3
  4

  6

 40
0.0
 41
0.0
 42
0.0
 43
0.0
 44
0.0
 45
0.0
 46
0.0
 47
0.0
 48
0.0
 49
0.0
140
0.0
141
0.0
142
1.0
143
1.0
 70
688
 72
0
 73
0
 74
5
  7

 75
16
147
1.0
148
0.0
149
0.0
100
AcDbLayout
  1
Layout1
 70
1
 71
1
 10
0.0
 20
0.0
 11
420.0
 21
297.0
 12
0.0
 22
0.0
 32
0.0
 14
100000000000000000000.0
 24
100000000000000000000.0
 34
100000000000000000000.0
 15
-100000000000000000000.0
 25
-100000000000000000000.0
 35
-100000000000000000000.0
146
0.0
 13
0.0
 23
0.0
 33
0.0
 16
1.0
 26
0.0
 36
0.0
 17
0.0
 27
1.0
 37
0.0
 76
0
330
1B
  0
LAYOUT
  5
22
100
AcDbPlotSettings
  1

  2
C:\Program Files\AutoCAD 2002\plotters\DWF ePlot (optimized for plotting).pc3
  4

  6

 40
0.0
 41
0.0
 42
0.0
 43
0.0
 44
0.0
 45
0.0
 46
0.0
 47
0.0
 48
0.0
 49
0.0
140
0.0
141
0.0
142
1.0
143
1.0
 70
1712
 72
0
 73
0
 74
0
  7

 75
0
147
1.0
148
0.0
149
0.0
100
AcDbLayout
  1
Model
 70
1
 71
0
 10
0.0
 20
0.0
 11
12.0
 21
9.0
 12
0.0
 22
0.0
 32
0.0
 14
0.0
 24
0.0
 34
0.0
 15
0.0
 25
0.0
 35
0.0
146
0.0
 13
0.0
 23
0.0
 33
0.0
 16
1.0
 26
0.0
 36
0.0
 17
0.0
 27
1.0
 37
0.0
 76
0
330
1F
  0
LAYOUT
  5
26
100
AcDbPlotSettings
  1

  2
C:\Program Files\AutoCAD 2002\plotters\DWF ePlot (optimized for plotting).pc3
  4

  6

 40
0.0
 41
0.0
 42
0.0
 43
0.0
 44
0.0
 45
0.0
 46
0.0
 47
0.0
 48
0.0
 49
0.0
140
0.0
141
0.0
142
1.0
143
1.0
 70
688
 72
0
 73
0
 74
5
  7

 75
16
147
1.0
148
0.0
149
0.0
100
AcDbLayout
  1
Layout2
 70
1
 71
2
 10
0.0
 20
0.0
 11
12.0
 21
9.0
 12
0.0
 22
0.0
 32
0.0
 14
0.0
 24
0.0
 34
0.0
 15
0.0
 25
0.0
 35
0.0
146
0.0
 13
0.0
 23
0.0
 33
0.0
 16
1.0
 26
0.0
 36
0.0
 17
0.0
 27
1.0
 37
0.0
 76
0
330
23
  0
DICTIONARY
  5
14D
100
AcDbDictionary
281
1
  3
DIMASSOC
350
14F
  3
HIDETEXT
350
14E
  0
DICTIONARYVAR
  5
14E
100
DictionaryVariables
280
0
  1
2
  0
DICTIONARYVAR
  5
14F
100
DictionaryVariables
280
0
  1
1
  0
ENDSEC
  0
EOF
