999
dxflib 2.0.4.8
  0
SECTION
  2
HEADER
  9
$ACADVER
  1
AC1015
  9
$HANDSEED
  5
FFFF
  9
$DIMASZ
 40
0.1
  9
$GRIDUNIT
 10
0.01
 20
0.01
  9
$DIMADEC
 70
2
  9
$DIMGAP
 40
0.025
  9
$SPLINESEGS
 70
8
  9
$AUPREC
 70
2
  9
$LUNITS
 70
2
  9
$DIMEXO
 40
0.025
  9
$INSUNITS
 70
1
  9
$DIMLUNIT
 70
2
  9
$DIMTXT
 40
0.1
  9
$GRIDMODE
 70
1
  9
$LUPREC
 70
4
  9
$DIMSTYLE
  2
Standard
  9
$PLIMMAX
 10
11.0
 20
8.5
  9
$PLIMMIN
 10
0.0
 20
0.0
  9
$DIMEXE
 40
0.05
  9
$PINSBASE
 10
0.25
 20
0.25
 30
0.0
  9
$DIMAUNIT
 70
0
  9
$AUNITS
 70
0
  0
ENDSEC
  0
SECTION
  2
TABLES
  0
TABLE
  2
VPORT
  5
8
100
AcDbSymbolTable
 70
1
  0
VPORT
  5
30
100
AcDbSymbolTableRecord
100
AcDbViewportTableRecord
  2
*Active
 70
0
 10
0.0
 20
0.0
 11
1.0
 21
1.0
 12
286.3055555555554861
 22
148.5
 13
0.0
 23
0.0
 14
10.0
 24
10.0
 15
10.0
 25
10.0
 16
0.0
 26
0.0
 36
1.0
 17
0.0
 27
0.0
 37
0.0
 40
297.0
 41
1.92798353909465
 42
50.0
 43
0.0
 44
0.0
 50
0.0
 51
0.0
 71
0
 72
100
 73
1
 74
3
 75
1
 76
1
 77
0
 78
0
281
0
 65
1
110
0.0
120
0.0
130
0.0
111
1.0
121
0.0
131
0.0
112
0.0
122
1.0
132
0.0
 79
0
146
0.0
  0
ENDTAB
  0
TABLE
  2
LTYPE
  5
5
100
AcDbSymbolTable
 70
21
  0
LTYPE
  5
14
100
AcDbSymbolTableRecord
100
AcDbLinetypeTableRecord
  2
ByBlock
 70
0
  3

 72
65
 73
0
 40
0.0
  0
LTYPE
  5
15
100
AcDbSymbolTableRecord
100
AcDbLinetypeTableRecord
  2
ByLayer
 70
0
  3

 72
65
 73
0
 40
0.0
  0
LTYPE
  5
16
100
AcDbSymbolTableRecord
100
AcDbLinetypeTableRecord
  2
CONTINUOUS
 70
0
  3
Solid line
 72
65
 73
0
 40
0.0
  0
LTYPE
  5
31
100
AcDbSymbolTableRecord
100
AcDbLinetypeTableRecord
  2
DOT
 70
0
  3
Dot . . . . . . . . . . . . . . . . . . . . . .
 72
65
 73
2
 40
6.3499999999999996
 49
0.0
 74
0
 49
-6.3499999999999996
 74
0
  0
LTYPE
  5
32
100
AcDbSymbolTableRecord
100
AcDbLinetypeTableRecord
  2
DOT2
 70
0
  3
Dot (.5x) .....................................
 72
65
 73
2
 40
3.1749999999999998
 49
0.0
 74
0
 49
-3.1749999999999998
 74
0
  0
LTYPE
  5
33
100
AcDbSymbolTableRecord
100
AcDbLinetypeTableRecord
  2
DOTX2
 70
0
  3
Dot (2x) .  .  .  .  .  .  .  .  .  .  .  .  .
 72
65
 73
2
 40
12.6999999999999993
 49
0.0
 74
0
 49
-12.6999999999999993
 74
0
  0
LTYPE
  5
34
100
AcDbSymbolTableRecord
100
AcDbLinetypeTableRecord
  2
DASHED
 70
0
  3
Dashed __ __ __ __ __ __ __ __ __ __ __ __ __ _
 72
65
 73
2
 40
19.0500000000000007
 49
12.6999999999999993
 74
0
 49
-6.3499999999999996
 74
0
  0
LTYPE
  5
35
100
AcDbSymbolTableRecord
100
AcDbLinetypeTableRecord
  2
DASHED2
 70
0
  3
Dashed (.5x) _ _ _ _ _ _ _ _ _ _ _ _ _ _ _ _ _
 72
65
 73
2
 40
9.5250000000000004
 49
6.3499999999999996
 74
0
 49
-3.1749999999999998
 74
0
  0
LTYPE
  5
36
100
AcDbSymbolTableRecord
100
AcDbLinetypeTableRecord
  2
DASHEDX2
 70
0
  3
Dashed (2x) ____  ____  ____  ____  ____  ___
 72
65
 73
2
 40
38.1000000000000014
 49
25.3999999999999986
 74
0
 49
-12.6999999999999993
 74
0
  0
LTYPE
  5
37
100
AcDbSymbolTableRecord
100
AcDbLinetypeTableRecord
  2
DASHDOT
 70
0
  3
Dash dot __ . __ . __ . __ . __ . __ . __ . __
 72
65
 73
4
 40
25.3999999999999986
 49
12.6999999999999993
 74
0
 49
-6.3499999999999996
 74
0
 49
0.0
 74
0
 49
-6.3499999999999996
 74
0
  0
LTYPE
  5
38
100
AcDbSymbolTableRecord
100
AcDbLinetypeTableRecord
  2
DASHDOT2
 70
0
  3
Dash dot (.5x) _._._._._._._._._._._._._._._.
 72
65
 73
4
 40
12.6999999999999993
 49
6.3499999999999996
 74
0
 49
-3.1749999999999998
 74
0
 49
0.0
 74
0
 49
-3.1749999999999998
 74
0
  0
LTYPE
  5
39
100
AcDbSymbolTableRecord
100
AcDbLinetypeTableRecord
  2
DASHDOTX2
 70
0
  3
Dash dot (2x) ____  .  ____  .  ____  .  ___
 72
65
 73
4
 40
50.7999999999999972
 49
25.3999999999999986
 74
0
 49
-12.6999999999999993
 74
0
 49
0.0
 74
0
 49
-12.6999999999999993
 74
0
  0
LTYPE
  5
3A
100
AcDbSymbolTableRecord
100
AcDbLinetypeTableRecord
  2
DIVIDE
 70
0
  3
Divide ____ . . ____ . . ____ . . ____ . . ____
 72
65
 73
6
 40
31.75
 49
12.6999999999999993
 74
0
 49
-6.3499999999999996
 74
0
 49
0.0
 74
0
 49
-6.3499999999999996
 74
0
 49
0.0
 74
0
 49
-6.3499999999999996
 74
0
  0
LTYPE
  5
3B
100
AcDbSymbolTableRecord
100
AcDbLinetypeTableRecord
  2
DIVIDE2
 70
0
  3
Divide (.5x) __..__..__..__..__..__..__..__.._
 72
65
 73
6
 40
15.875
 49
6.3499999999999996
 74
0
 49
-3.1749999999999998
 74
0
 49
0.0
 74
0
 49
-3.1749999999999998
 74
0
 49
0.0
 74
0
 49
-3.1749999999999998
 74
0
  0
LTYPE
  5
3C
100
AcDbSymbolTableRecord
100
AcDbLinetypeTableRecord
  2
DIVIDEX2
 70
0
  3
Divide (2x) ________  .  .  ________  .  .  _
 72
65
 73
6
 40
63.5
 49
25.3999999999999986
 74
0
 49
-12.6999999999999993
 74
0
 49
0.0
 74
0
 49
-12.6999999999999993
 74
0
 49
0.0
 74
0
 49
-12.6999999999999993
 74
0
  0
LTYPE
  5
3D
100
AcDbSymbolTableRecord
100
AcDbLinetypeTableRecord
  2
CENTER
 70
0
  3
Center ____ _ ____ _ ____ _ ____ _ ____ _ ____
 72
65
 73
4
 40
50.7999999999999972
 49
31.75
 74
0
 49
-6.3499999999999996
 74
0
 49
6.3499999999999996
 74
0
 49
-6.3499999999999996
 74
0
  0
LTYPE
  5
3E
100
AcDbSymbolTableRecord
100
AcDbLinetypeTableRecord
  2
CENTER2
 70
0
  3
Center (.5x) ___ _ ___ _ ___ _ ___ _ ___ _ ___
 72
65
 73
4
 40
28.5749999999999993
 49
19.0500000000000007
 74
0
 49
-3.1749999999999998
 74
0
 49
3.1749999999999998
 74
0
 49
-3.1749999999999998
 74
0
  0
LTYPE
  5
3F
100
AcDbSymbolTableRecord
100
AcDbLinetypeTableRecord
  2
CENTERX2
 70
0
  3
Center (2x) ________  __  ________  __  _____
 72
65
 73
4
 40
101.5999999999999943
 49
63.5
 74
0
 49
-12.6999999999999993
 74
0
 49
12.6999999999999993
 74
0
 49
-12.6999999999999993
 74
0
  0
LTYPE
  5
40
100
AcDbSymbolTableRecord
100
AcDbLinetypeTableRecord
  2
BORDER
 70
0
  3
Border __ __ . __ __ . __ __ . __ __ . __ __ .
 72
65
 73
6
 40
44.4500000000000028
 49
12.6999999999999993
 74
0
 49
-6.3499999999999996
 74
0
 49
12.6999999999999993
 74
0
 49
-6.3499999999999996
 74
0
 49
0.0
 74
0
 49
-6.3499999999999996
 74
0
  0
LTYPE
  5
41
100
AcDbSymbolTableRecord
100
AcDbLinetypeTableRecord
  2
BORDER2
 70
0
  3
Border (.5x) __.__.__.__.__.__.__.__.__.__.__.
 72
65
 73
6
 40
22.2250000000000014
 49
6.3499999999999996
 74
0
 49
-3.1749999999999998
 74
0
 49
6.3499999999999996
 74
0
 49
-3.1749999999999998
 74
0
 49
0.0
 74
0
 49
-3.1749999999999998
 74
0
  0
LTYPE
  5
42
100
AcDbSymbolTableRecord
100
AcDbLinetypeTableRecord
  2
BORDERX2
 70
0
  3
Border (2x) ____  ____  .  ____  ____  .  ___
 72
65
 73
6
 40
88.9000000000000057
 49
25.3999999999999986
 74
0
 49
-12.6999999999999993
 74
0
 49
25.3999999999999986
 74
0
 49
-12.6999999999999993
 74
0
 49
0.0
 74
0
 49
-12.6999999999999993
 74
0
  0
ENDTAB
  0
TABLE
  2
LAYER
  5
2
100
AcDbSymbolTable
 70
1
  0
LAYER
  5
10
100
AcDbSymbolTableRecord
100
AcDbLayerTableRecord
  2
0
 70
0
 62
7
  6
CONTINUOUS
370
0
390
F
  0
ENDTAB
  0
TABLE
  2
STYLE
  5
3
100
AcDbSymbolTable
 70
1
  0
STYLE
  5
11
100
AcDbSymbolTableRecord
100
AcDbTextStyleTableRecord
  2
Standard
 70
0
 40
0.0
 41
0.75
 50
0.0
 71
0
 42
2.5
  3
txt
  4

  0
ENDTAB
  0
TABLE
  2
VIEW
  5
6
100
AcDbSymbolTable
 70
0
  0
ENDTAB
  0
TABLE
  2
UCS
  5
7
100
AcDbSymbolTable
 70
0
  0
ENDTAB
  0
TABLE
  2
APPID
  5
9
100
AcDbSymbolTable
 70
1
  0
APPID
  5
12
100
AcDbSymbolTableRecord
100
AcDbRegAppTableRecord
  2
ACAD
 70
0
  0
ENDTAB
  0
TABLE
  2
DIMSTYLE
  5
A
100
AcDbSymbolTable
 70
1
100
AcDbDimStyleTable
 71
0
  0
DIMSTYLE
105
27
100
AcDbSymbolTableRecord
100
AcDbDimStyleTableRecord
  2
Standard
 41
0.1
 42
0.025
 43
3.75
 44
0.05
 70
0
 73
0
 74
0
 77
1
 78
8
140
0.1
141
2.5
143
0.03937007874016
147
0.025
171
3
172
1
271
2
272
2
274
3
278
44
283
0
284
8
340
11
  0
ENDTAB
  0
TABLE
  2
BLOCK_RECORD
  5
1
100
AcDbSymbolTable
 70
1
  0
BLOCK_RECORD
  5
1F
100
AcDbSymbolTableRecord
100
AcDbBlockTableRecord
  2
*Model_Space
340
22
  0
BLOCK_RECORD
  5
1B
100
AcDbSymbolTableRecord
100
AcDbBlockTableRecord
  2
*Paper_Space
340
1E
  0
BLOCK_RECORD
  5
23
100
AcDbSymbolTableRecord
100
AcDbBlockTableRecord
  2
*Paper_Space0
340
26
  0
BLOCK_RECORD
  5
43
100
AcDbSymbolTableRecord
100
AcDbBlockTableRecord
  2
Servo Bracket
340
0
  0
ENDTAB
  0
ENDSEC
  0
SECTION
  2
BLOCKS
  0
BLOCK
  5
20
100
AcDbEntity
  8
0
100
AcDbBlockBegin
  2
*Model_Space
 70
0
 10
0.0
 20
0.0
 30
0.0
  3
*Model_Space
  1

  0
ENDBLK
  5
21
100
AcDbEntity
  8
0
100
AcDbBlockEnd
  0
BLOCK
  5
1C
100
AcDbEntity
 67
1
  8
0
100
AcDbBlockBegin
  2
*Paper_Space
 70
0
 10
0.0
 20
0.0
 30
0.0
  3
*Paper_Space
  1

  0
ENDBLK
  5
1D
100
AcDbEntity
 67
1
  8
0
100
AcDbBlockEnd
  0
BLOCK
  5
24
100
AcDbEntity
  8
0
100
AcDbBlockBegin
  2
*Paper_Space0
 70
0
 10
0.0
 20
0.0
 30
0.0
  3
*Paper_Space0
  1

  0
ENDBLK
  5
25
100
AcDbEntity
  8
0
100
AcDbBlockEnd
  0
BLOCK
  5
44
100
AcDbEntity
  8
0
100
AcDbBlockBegin
  2
Servo Bracket
 70
0
 10
0.0
 20
0.0
 30
0.0
  3
Servo Bracket
  1

  0
LINE
  5
45
100
AcDbEntity
100
AcDbLine
  8
0
 62
256
370
-1
  6
ByLayer
 10
0.9699999999999998
 20
-1.7894999999999994
 30
0.0
 11
1.7849999999999993
 21
-1.7894999999999994
 31
0.0
  0
LINE
  5
46
100
AcDbEntity
100
AcDbLine
  8
0
 62
256
370
-1
  6
ByLayer
 10
0.9699999999999998
 20
-1.7894999999999994
 30
0.0
 11
0.1549999999999994
 21
-1.7894999999999994
 31
0.0
  0
LINE
  5
47
100
AcDbEntity
100
AcDbLine
  8
0
 62
256
370
-1
  6
ByLayer
 10
-0.1550000000000002
 20
-0.6969999999999996
 30
0.0
 11
0.1549999999999994
 21
-0.6969999999999996
 31
0.0
  0
LINE
  5
48
100
AcDbEntity
100
AcDbLine
  8
0
 62
256
370
-1
  6
ByLayer
 10
2.0949999999999998
 20
-0.6969999999999996
 30
0.0
 11
1.7850000000000001
 21
-0.6969999999999996
 31
0.0
  0
LINE
  5
49
100
AcDbEntity
100
AcDbLine
  8
0
 62
256
370
-1
  6
ByLayer
 10
0.1549999999999994
 20
-0.6969999999999996
 30
0.0
 11
0.1549999999999994
 21
-0.8379999999999996
 31
0.0
  0
LINE
  5
4A
100
AcDbEntity
100
AcDbLine
  8
0
 62
256
370
-1
  6
ByLayer
 10
1.7850000000000001
 20
-0.6969999999999996
 30
0.0
 11
1.7850000000000001
 21
-0.8379999999999996
 31
0.0
  0
LINE
  5
4B
100
AcDbEntity
100
AcDbLine
  8
0
 62
256
370
-1
  6
ByLayer
 10
0.1549999999999994
 20
-0.8379999999999996
 30
0.0
 11
0.2799999999999994
 21
-0.8379999999999996
 31
0.0
  0
LINE
  5
4C
100
AcDbEntity
100
AcDbLine
  8
0
 62
256
370
-1
  6
ByLayer
 10
1.7850000000000001
 20
-0.8379999999999996
 30
0.0
 11
1.6600000000000001
 21
-0.8379999999999996
 31
0.0
  0
CIRCLE
  5
4D
100
AcDbEntity
100
AcDbCircle
  8
0
 62
256
370
-1
  6
ByLayer
 10
1.2999999999999998
 20
-0.9274999999999998
 30
0.0
 40
0.1575
  0
CIRCLE
  5
4E
100
AcDbEntity
100
AcDbCircle
  8
0
 62
256
370
-1
  6
ByLayer
 10
0.6399999999999997
 20
-0.9274999999999998
 30
0.0
 40
0.1575
  0
LINE
  5
4F
100
AcDbEntity
100
AcDbLine
  8
0
 62
256
370
-1
  6
ByLayer
 10
0.3099999999999996
 20
-0.9274999999999998
 30
0.0
 11
0.3099999999999996
 21
-0.8820000000000001
 31
0.0
  0
LINE
  5
50
100
AcDbEntity
100
AcDbLine
  8
0
 62
256
370
-1
  6
ByLayer
 10
0.9699999999999998
 20
-0.9274999999999998
 30
0.0
 11
0.9699999999999998
 21
-0.8820000000000001
 31
0.0
  0
LINE
  5
51
100
AcDbEntity
100
AcDbLine
  8
0
 62
256
370
-1
  6
ByLayer
 10
1.6299999999999999
 20
-0.9274999999999998
 30
0.0
 11
1.6299999999999999
 21
-0.8820000000000001
 31
0.0
  0
LINE
  5
52
100
AcDbEntity
100
AcDbLine
  8
0
 62
256
370
-1
  6
ByLayer
 10
0.6399999999999997
 20
-1.2574999999999998
 30
0.0
 11
0.6855000000000002
 21
-1.2574999999999998
 31
0.0
  0
LINE
  5
53
100
AcDbEntity
100
AcDbLine
  8
0
 62
256
370
-1
  6
ByLayer
 10
0.6399999999999997
 20
-0.5974999999999997
 30
0.0
 11
0.6855000000000002
 21
-0.5974999999999997
 31
0.0
  0
LINE
  5
54
100
AcDbEntity
100
AcDbLine
  8
0
 62
256
370
-1
  6
ByLayer
 10
1.2999999999999998
 20
-1.2574999999999998
 30
0.0
 11
1.3455000000000004
 21
-1.2574999999999998
 31
0.0
  0
LINE
  5
55
100
AcDbEntity
100
AcDbLine
  8
0
 62
256
370
-1
  6
ByLayer
 10
1.2999999999999998
 20
-0.5974999999999997
 30
0.0
 11
1.3455000000000004
 21
-0.5974999999999997
 31
0.0
  0
LINE
  5
56
100
AcDbEntity
100
AcDbLine
  8
0
 62
256
370
-1
  6
ByLayer
 10
1.6299999999999999
 20
-0.9274999999999998
 30
0.0
 11
1.6755000000000004
 21
-0.9274999999999998
 31
0.0
  0
LINE
  5
57
100
AcDbEntity
100
AcDbLine
  8
0
 62
256
370
-1
  6
ByLayer
 10
0.3099999999999996
 20
-0.9274999999999998
 30
0.0
 11
0.3554999999999993
 21
-0.9274999999999998
 31
0.0
  0
CIRCLE
  5
58
100
AcDbEntity
100
AcDbCircle
  8
0
 62
256
370
-1
  6
ByLayer
 10
1.3624999999999989
 20
-2.2864999999999993
 30
0.0
 40
0.0625
  0
CIRCLE
  5
59
100
AcDbEntity
100
AcDbCircle
  8
0
 62
256
370
-1
  6
ByLayer
 10
0.5774999999999997
 20
-2.2864999999999993
 30
0.0
 40
0.0625
  0
CIRCLE
  5
5A
100
AcDbEntity
100
AcDbCircle
  8
0
 62
256
370
-1
  6
ByLayer
 10
0.0
 20
0.0
 30
0.0
 40
0.087
  0
CIRCLE
  5
5B
100
AcDbEntity
100
AcDbCircle
  8
0
 62
256
370
-1
  6
ByLayer
 10
0.0
 20
-0.3719999999999999
 30
0.0
 40
0.087
  0
CIRCLE
  5
5C
100
AcDbEntity
100
AcDbCircle
  8
0
 62
256
370
-1
  6
ByLayer
 10
1.9400000000000004
 20
0.0
 30
0.0
 40
0.087
  0
CIRCLE
  5
5D
100
AcDbEntity
100
AcDbCircle
  8
0
 62
256
370
-1
  6
ByLayer
 10
1.9400000000000004
 20
-0.3719999999999999
 30
0.0
 40
0.087
  0
LINE
  5
5E
100
AcDbEntity
100
AcDbLine
  8
0
 62
256
370
-1
  6
ByLayer
 10
-0.1550000000000002
 20
-1.1657499999999996
 30
0.0
 11
-0.1550000000000002
 21
-1.0247499999999996
 31
0.0
  0
LINE
  5
5F
100
AcDbEntity
100
AcDbLine
  8
0
 62
256
370
-1
  6
ByLayer
 10
0.0
 20
-0.6969999999999996
 30
0.0
 11
0.141
 21
-0.6969999999999996
 31
0.0
  0
CIRCLE
  5
60
100
AcDbEntity
100
AcDbCircle
  8
0
 62
256
370
-1
  6
ByLayer
 10
-0.0140000000000002
 20
-1.0049999999999994
 30
0.0
 40
0.087
  0
CIRCLE
  5
61
100
AcDbEntity
100
AcDbCircle
  8
0
 62
256
370
-1
  6
ByLayer
 10
-0.0140000000000002
 20
-1.3959999999999995
 30
0.0
 40
0.087
  0
CIRCLE
  5
62
100
AcDbEntity
100
AcDbCircle
  8
0
 62
256
370
-1
  6
ByLayer
 10
1.9539999999999997
 20
-1.0049999999999994
 30
0.0
 40
0.087
  0
CIRCLE
  5
63
100
AcDbEntity
100
AcDbCircle
  8
0
 62
256
370
-1
  6
ByLayer
 10
1.9539999999999997
 20
-1.3959999999999995
 30
0.0
 40
0.087
  0
LINE
  5
64
100
AcDbEntity
100
AcDbLine
  8
0
 62
256
370
-1
  6
ByLayer
 10
0.0
 20
0.0
 30
0.0
 11
0.0869999999999997
 21
0.0
 31
0.0
  0
LINE
  5
65
100
AcDbEntity
100
AcDbLine
  8
0
 62
256
370
-1
  6
ByLayer
 10
0.0
 20
-0.3719999999999999
 30
0.0
 11
0.0869999999999997
 21
-0.3719999999999999
 31
0.0
  0
LINE
  5
66
100
AcDbEntity
100
AcDbLine
  8
0
 62
256
370
-1
  6
ByLayer
 10
-0.0140000000000002
 20
-1.0049999999999994
 30
0.0
 11
0.0730000000000004
 21
-1.0049999999999994
 31
0.0
  0
LINE
  5
67
100
AcDbEntity
100
AcDbLine
  8
0
 62
256
370
-1
  6
ByLayer
 10
-0.0140000000000002
 20
-1.3959999999999995
 30
0.0
 11
0.0730000000000004
 21
-1.3959999999999995
 31
0.0
  0
LINE
  5
68
100
AcDbEntity
100
AcDbLine
  8
0
 62
256
370
-1
  6
ByLayer
 10
1.9539999999999997
 20
-1.3959999999999995
 30
0.0
 11
2.0409999999999995
 21
-1.3959999999999995
 31
0.0
  0
LINE
  5
69
100
AcDbEntity
100
AcDbLine
  8
0
 62
256
370
-1
  6
ByLayer
 10
1.9539999999999997
 20
-1.0049999999999994
 30
0.0
 11
2.0409999999999995
 21
-1.0049999999999994
 31
0.0
  0
LINE
  5
6A
100
AcDbEntity
100
AcDbLine
  8
0
 62
256
370
-1
  6
ByLayer
 10
1.9400000000000004
 20
-0.3719999999999999
 30
0.0
 11
2.0270000000000001
 21
-0.3719999999999999
 31
0.0
  0
LINE
  5
6B
100
AcDbEntity
100
AcDbLine
  8
0
 62
256
370
-1
  6
ByLayer
 10
1.9400000000000004
 20
0.0
 30
0.0
 11
2.0270000000000001
 21
0.0
 31
0.0
  0
LINE
  5
6C
100
AcDbEntity
100
AcDbLine
  8
0
 62
256
370
-1
  6
ByLayer
 10
0.0
 20
0.0
 30
0.0
 11
0.0
 21
0.0870000000000002
 31
0.0
  0
LINE
  5
6D
100
AcDbEntity
100
AcDbLine
  8
0
 62
256
370
-1
  6
ByLayer
 10
0.0
 20
-0.3719999999999999
 30
0.0
 11
0.0
 21
-0.2849999999999997
 31
0.0
  0
LINE
  5
6E
100
AcDbEntity
100
AcDbLine
  8
0
 62
256
370
-1
  6
ByLayer
 10
-0.0140000000000002
 20
-1.0049999999999994
 30
0.0
 11
-0.0140000000000002
 21
-0.9179999999999993
 31
0.0
  0
LINE
  5
6F
100
AcDbEntity
100
AcDbLine
  8
0
 62
256
370
-1
  6
ByLayer
 10
-0.0140000000000002
 20
-1.3959999999999995
 30
0.0
 11
-0.0140000000000002
 21
-1.3089999999999993
 31
0.0
  0
LINE
  5
70
100
AcDbEntity
100
AcDbLine
  8
0
 62
256
370
-1
  6
ByLayer
 10
1.9539999999999997
 20
-1.3959999999999995
 30
0.0
 11
1.9539999999999997
 21
-1.3089999999999993
 31
0.0
  0
LINE
  5
71
100
AcDbEntity
100
AcDbLine
  8
0
 62
256
370
-1
  6
ByLayer
 10
1.9539999999999997
 20
-1.0049999999999994
 30
0.0
 11
1.9539999999999997
 21
-0.9179999999999993
 31
0.0
  0
LINE
  5
72
100
AcDbEntity
100
AcDbLine
  8
0
 62
256
370
-1
  6
ByLayer
 10
1.9400000000000004
 20
-0.3719999999999999
 30
0.0
 11
1.9400000000000004
 21
-0.2849999999999997
 31
0.0
  0
LINE
  5
73
100
AcDbEntity
100
AcDbLine
  8
0
 62
256
370
-1
  6
ByLayer
 10
1.9400000000000004
 20
0.0
 30
0.0
 11
1.9400000000000004
 21
0.0870000000000002
 31
0.0
  0
LINE
  5
74
100
AcDbEntity
100
AcDbLine
  8
0
 62
256
370
-1
  6
ByLayer
 10
0.6399999999999997
 20
-0.5974999999999997
 30
0.0
 11
0.6399999999999997
 21
-0.5519999999999996
 31
0.0
  0
LINE
  5
75
100
AcDbEntity
100
AcDbLine
  8
0
 62
256
370
-1
  6
ByLayer
 10
1.2999999999999998
 20
-0.5974999999999997
 30
0.0
 11
1.2999999999999998
 21
-0.5519999999999996
 31
0.0
  0
LINE
  5
76
100
AcDbEntity
100
AcDbLine
  8
0
 62
256
370
-1
  6
ByLayer
 10
1.2999999999999998
 20
-1.2574999999999998
 30
0.0
 11
1.2999999999999998
 21
-1.2119999999999997
 31
0.0
  0
LINE
  5
77
100
AcDbEntity
100
AcDbLine
  8
0
 62
256
370
-1
  6
ByLayer
 10
0.6399999999999997
 20
-1.2574999999999998
 30
0.0
 11
0.6399999999999997
 21
-1.2119999999999997
 31
0.0
  0
LINE
  5
78
100
AcDbEntity
100
AcDbLine
  8
0
 62
256
370
-1
  6
ByLayer
 10
0.9699999999999998
 20
-0.9274999999999998
 30
0.0
 11
1.0154999999999994
 21
-0.9274999999999998
 31
0.0
  0
LINE
  5
79
100
AcDbEntity
100
AcDbLine
  8
0
 62
256
370
-1
  6
ByLayer
 10
1.6299999999999999
 20
-0.9274999999999998
 30
0.0
 11
1.6754999999999995
 21
-0.9274999999999998
 31
0.0
  0
LINE
  5
7A
100
AcDbEntity
100
AcDbLine
  8
0
 62
256
370
-1
  6
ByLayer
 10
0.5774999999999997
 20
-2.2864999999999993
 30
0.0
 11
0.6399999999999997
 21
-2.2864999999999993
 31
0.0
  0
LINE
  5
7B
100
AcDbEntity
100
AcDbLine
  8
0
 62
256
370
-1
  6
ByLayer
 10
1.3624999999999989
 20
-2.2864999999999993
 30
0.0
 11
1.4249999999999989
 21
-2.2864999999999993
 31
0.0
  0
LINE
  5
7C
100
AcDbEntity
100
AcDbLine
  8
0
 62
256
370
-1
  6
ByLayer
 10
0.5774999999999997
 20
-2.2864999999999993
 30
0.0
 11
0.5774999999999997
 21
-2.2239999999999993
 31
0.0
  0
LINE
  5
7D
100
AcDbEntity
100
AcDbLine
  8
0
 62
256
370
-1
  6
ByLayer
 10
1.3624999999999989
 20
-2.2864999999999993
 30
0.0
 11
1.3624999999999989
 21
-2.2239999999999993
 31
0.0
  0
LINE
  5
7E
100
AcDbEntity
100
AcDbLine
  8
0
 62
256
370
-1
  6
ByLayer
 10
1.2999999999999998
 20
-0.9274999999999998
 30
0.0
 11
1.4574999999999996
 21
-0.9274999999999998
 31
0.0
  0
LINE
  5
7F
100
AcDbEntity
100
AcDbLine
  8
0
 62
256
370
-1
  6
ByLayer
 10
0.6399999999999997
 20
-0.9274999999999998
 30
0.0
 11
0.7974999999999994
 21
-0.9274999999999998
 31
0.0
  0
LINE
  5
80
100
AcDbEntity
100
AcDbLine
  8
0
 62
256
370
-1
  6
ByLayer
 10
1.2999999999999998
 20
-0.9274999999999998
 30
0.0
 11
1.2999999999999998
 21
-0.7699999999999996
 31
0.0
  0
LINE
  5
81
100
AcDbEntity
100
AcDbLine
  8
0
 62
256
370
-1
  6
ByLayer
 10
0.6399999999999997
 20
-0.9274999999999998
 30
0.0
 11
0.6399999999999997
 21
-0.7699999999999996
 31
0.0
  0
DIMENSION
  5
82
100
AcDbEntity
  8
0
 62
256
370
-1
  6
ByLayer
100
AcDbDimension
 10
0.5376255667252843
 20
-2.3346277422181867
 30
0.0
 11
0.5197467093381749
 21
-2.2386506800703412
 31
0.0
 70
3
 71
5
 72
0
 41
1.0
 42
0.0
  1

  3
Standard
100
AcDbDiametricDimension
 15
0.6173744332747146
 25
-2.2383722577818119
 35
0.0
 40
0.0
  0
DIMENSION
  5
83
100
AcDbEntity
  8
0
 62
256
370
-1
  6
ByLayer
100
AcDbDimension
 10
1.4002328019644068
 20
-2.2366754512723412
 30
0.0
 11
1.3027105415268094
 21
-2.2412206376427095
 31
0.0
 70
3
 71
5
 72
0
 41
1.0
 42
0.0
  1

  3
Standard
100
AcDbDiametricDimension
 15
1.3247671980355911
 25
-2.3363245487276574
 35
0.0
 40
0.0
  0
LINE
  5
84
100
AcDbEntity
100
AcDbLine
  8
0
 62
256
370
-1
  6
ByLayer
 10
-0.1550000000000002
 20
-0.6969999999999996
 30
0.0
 11
-0.1550000000000002
 21
0.1320000000000001
 31
0.0
  0
ARC
  5
85
100
AcDbEntity
  8
0
 62
256
370
-1
  6
ByLayer
100
AcDbCircle
 10
-0.0925000000000002
 20
0.1320000000000001
 30
0.0
 40
0.0625
100
AcDbArc
 50
90.0
 51
180.0
  0
LINE
  5
86
100
AcDbEntity
100
AcDbLine
  8
0
 62
256
370
-1
  6
ByLayer
 10
0.1549999999999994
 20
-0.6969999999999996
 30
0.0
 11
0.1549999999999994
 21
0.1320000000000001
 31
0.0
  0
LINE
  5
87
100
AcDbEntity
100
AcDbLine
  8
0
 62
256
370
-1
  6
ByLayer
 10
-0.0925000000000002
 20
0.1945000000000001
 30
0.0
 11
0.0924999999999994
 21
0.1945000000000001
 31
0.0
  0
ARC
  5
88
100
AcDbEntity
  8
0
 62
256
370
-1
  6
ByLayer
100
AcDbCircle
 10
0.0924999999999994
 20
0.1320000000000001
 30
0.0
 40
0.0625
100
AcDbArc
 50
0.0
 51
90.0
  0
LINE
  5
89
100
AcDbEntity
100
AcDbLine
  8
0
 62
256
370
-1
  6
ByLayer
 10
1.7850000000000001
 20
-0.6969999999999996
 30
0.0
 11
1.7850000000000001
 21
0.1320000000000001
 31
0.0
  0
ARC
  5
8A
100
AcDbEntity
  8
0
 62
256
370
-1
  6
ByLayer
100
AcDbCircle
 10
1.8475000000000001
 20
0.1320000000000001
 30
0.0
 40
0.0625
100
AcDbArc
 50
90.0
 51
180.0
  0
LINE
  5
8B
100
AcDbEntity
100
AcDbLine
  8
0
 62
256
370
-1
  6
ByLayer
 10
2.0949999999999998
 20
-0.6969999999999996
 30
0.0
 11
2.0949999999999998
 21
0.1320000000000001
 31
0.0
  0
LINE
  5
8C
100
AcDbEntity
100
AcDbLine
  8
0
 62
256
370
-1
  6
ByLayer
 10
1.8475000000000001
 20
0.1945000000000001
 30
0.0
 11
2.0324999999999998
 21
0.1945000000000001
 31
0.0
  0
ARC
  5
8D
100
AcDbEntity
  8
0
 62
256
370
-1
  6
ByLayer
100
AcDbCircle
 10
2.0324999999999998
 20
0.1320000000000001
 30
0.0
 40
0.0625
100
AcDbArc
 50
0.0
 51
90.0
  0
LINE
  5
8E
100
AcDbEntity
100
AcDbLine
  8
0
 62
256
370
-1
  6
ByLayer
 10
2.0949999999999998
 20
-1.5719999999999996
 30
0.0
 11
2.0949999999999998
 21
-0.6969999999999996
 31
0.0
  0
ARC
  5
8F
100
AcDbEntity
  8
0
 62
256
370
-1
  6
ByLayer
100
AcDbCircle
 10
2.0324999999999998
 20
-1.5719999999999996
 30
0.0
 40
0.0625
100
AcDbArc
 50
270.0
 51
0.0
  0
LINE
  5
90
100
AcDbEntity
100
AcDbLine
  8
0
 62
256
370
-1
  6
ByLayer
 10
-0.1550000000000002
 20
-1.5719999999999996
 30
0.0
 11
-0.1550000000000002
 21
-0.6969999999999996
 31
0.0
  0
ARC
  5
91
100
AcDbEntity
  8
0
 62
256
370
-1
  6
ByLayer
100
AcDbCircle
 10
-0.0925000000000002
 20
-1.5719999999999996
 30
0.0
 40
0.0625
100
AcDbArc
 50
180.0
 51
270.0
  0
LINE
  5
92
100
AcDbEntity
100
AcDbLine
  8
0
 62
256
370
-1
  6
ByLayer
 10
1.8474999999999993
 20
-1.6344999999999996
 30
0.0
 11
2.0324999999999998
 21
-1.6344999999999996
 31
0.0
  0
LINE
  5
93
100
AcDbEntity
100
AcDbLine
  8
0
 62
256
370
-1
  6
ByLayer
 10
1.7849999999999993
 20
-1.6969999999999996
 30
0.0
 11
1.7849999999999993
 21
-1.7894999999999994
 31
0.0
  0
ARC
  5
94
100
AcDbEntity
  8
0
 62
256
370
-1
  6
ByLayer
100
AcDbCircle
 10
1.8474999999999993
 20
-1.6969999999999996
 30
0.0
 40
0.0625
100
AcDbArc
 50
90.0
 51
180.0
  0
LINE
  5
95
100
AcDbEntity
100
AcDbLine
  8
0
 62
256
370
-1
  6
ByLayer
 10
-0.0925000000000002
 20
-1.6344999999999996
 30
0.0
 11
0.0924999999999994
 21
-1.6344999999999996
 31
0.0
  0
LINE
  5
96
100
AcDbEntity
100
AcDbLine
  8
0
 62
256
370
-1
  6
ByLayer
 10
0.1549999999999994
 20
-1.6969999999999996
 30
0.0
 11
0.1549999999999994
 21
-1.7894999999999994
 31
0.0
  0
ARC
  5
97
100
AcDbEntity
  8
0
 62
256
370
-1
  6
ByLayer
100
AcDbCircle
 10
0.0924999999999994
 20
-1.6969999999999996
 30
0.0
 40
0.0625
100
AcDbArc
 50
0.0
 51
90.0
  0
LINE
  5
98
100
AcDbEntity
100
AcDbLine
  8
0
 62
256
370
-1
  6
ByLayer
 10
0.1549999999999994
 20
-1.7894999999999994
 30
0.0
 11
0.1549999999999994
 21
-2.6179999999999994
 31
0.0
  0
ARC
  5
99
100
AcDbEntity
  8
0
 62
256
370
-1
  6
ByLayer
100
AcDbCircle
 10
0.2174999999999994
 20
-2.6179999999999994
 30
0.0
 40
0.0625
100
AcDbArc
 50
180.0
 51
270.0
  0
LINE
  5
9A
100
AcDbEntity
100
AcDbLine
  8
0
 62
256
370
-1
  6
ByLayer
 10
1.7849999999999993
 20
-1.7894999999999994
 30
0.0
 11
1.7849999999999993
 21
-2.6179999999999994
 31
0.0
  0
LINE
  5
9B
100
AcDbEntity
100
AcDbLine
  8
0
 62
256
370
-1
  6
ByLayer
 10
0.2174999999999994
 20
-2.6804999999999994
 30
0.0
 11
1.7224999999999993
 21
-2.6804999999999994
 31
0.0
  0
ARC
  5
9C
100
AcDbEntity
  8
0
 62
256
370
-1
  6
ByLayer
100
AcDbCircle
 10
1.7224999999999993
 20
-2.6179999999999994
 30
0.0
 40
0.0625
100
AcDbArc
 50
270.0
 51
0.0
  0
LINE
  5
9D
100
AcDbEntity
100
AcDbLine
  8
0
 62
256
370
-1
  6
ByLayer
 10
0.2799999999999994
 20
-0.8379999999999996
 30
0.0
 11
0.2799999999999994
 21
-0.5239999999999996
 31
0.0
  0
ARC
  5
9E
100
AcDbEntity
  8
0
 62
256
370
-1
  6
ByLayer
100
AcDbCircle
 10
0.3424999999999994
 20
-0.5239999999999996
 30
0.0
 40
0.0625
100
AcDbArc
 50
90.0
 51
180.0
  0
LINE
  5
9F
100
AcDbEntity
100
AcDbLine
  8
0
 62
256
370
-1
  6
ByLayer
 10
0.3424999999999994
 20
-0.4614999999999996
 30
0.0
 11
1.5975000000000001
 21
-0.4614999999999996
 31
0.0
  0
LINE
  5
A0
100
AcDbEntity
100
AcDbLine
  8
0
 62
256
370
-1
  6
ByLayer
 10
1.6600000000000001
 20
-0.8379999999999996
 30
0.0
 11
1.6600000000000001
 21
-0.5239999999999996
 31
0.0
  0
ARC
  5
A1
100
AcDbEntity
  8
0
 62
256
370
-1
  6
ByLayer
100
AcDbCircle
 10
1.5975000000000001
 20
-0.5239999999999996
 30
0.0
 40
0.0625
100
AcDbArc
 50
0.0
 51
90.0
  0
CIRCLE
  5
A2
100
AcDbEntity
100
AcDbCircle
  8
0
 62
256
370
-1
  6
ByLayer
 10
1.2999999999999998
 20
-1.2574999999999998
 30
0.0
 40
0.046875
  0
CIRCLE
  5
A3
100
AcDbEntity
100
AcDbCircle
  8
0
 62
256
370
-1
  6
ByLayer
 10
0.9699999999999998
 20
-0.9274999999999998
 30
0.0
 40
0.046875
  0
CIRCLE
  5
A4
100
AcDbEntity
100
AcDbCircle
  8
0
 62
256
370
-1
  6
ByLayer
 10
1.2999999999999998
 20
-0.5974999999999997
 30
0.0
 40
0.046875
  0
CIRCLE
  5
A5
100
AcDbEntity
100
AcDbCircle
  8
0
 62
256
370
-1
  6
ByLayer
 10
1.6299999999999999
 20
-0.9274999999999998
 30
0.0
 40
0.046875
  0
CIRCLE
  5
A6
100
AcDbEntity
100
AcDbCircle
  8
0
 62
256
370
-1
  6
ByLayer
 10
0.6399999999999997
 20
-1.2574999999999998
 30
0.0
 40
0.046875
  0
CIRCLE
  5
A7
100
AcDbEntity
100
AcDbCircle
  8
0
 62
256
370
-1
  6
ByLayer
 10
0.3099999999999996
 20
-0.9274999999999998
 30
0.0
 40
0.046875
  0
CIRCLE
  5
A8
100
AcDbEntity
100
AcDbCircle
  8
0
 62
256
370
-1
  6
ByLayer
 10
0.6399999999999997
 20
-0.5974999999999997
 30
0.0
 40
0.046875
  0
DIMENSION
  5
A9
100
AcDbEntity
  8
0
 62
256
370
-1
  6
ByLayer
100
AcDbDimension
 10
2.0269999212722265
 20
0.0001170411316123
 30
0.0
 11
1.9398991024727419
 21
0.0749999321312291
 31
0.0
 70
3
 71
5
 72
1
 41
1.0
 42
0.0
  1

  3
Standard
100
AcDbDiametricDimension
 15
1.8530000787277743
 25
-0.0001170411316123
 35
0.0
 40
0.0
  0
ENDBLK
  5
AA
100
AcDbEntity
  8
0
100
AcDbBlockEnd
  0
ENDSEC
  0
SECTION
  2
ENTITIES
  0
LINE
  5
AB
100
AcDbEntity
100
AcDbLine
  8
0
 62
256
370
-1
  6
ByLayer
 10
0.0
 20
0.0
 30
0.0
 11
10.5
 21
0.0
 31
0.0
  0
LINE
  5
AC
100
AcDbEntity
100
AcDbLine
  8
0
 62
256
370
-1
  6
ByLayer
 10
10.5
 20
0.0
 30
0.0
 11
10.5
 21
8.0
 31
0.0
  0
LINE
  5
AD
100
AcDbEntity
100
AcDbLine
  8
0
 62
256
370
-1
  6
ByLayer
 10
0.0
 20
0.0
 30
0.0
 11
0.0000000000000005
 21
8.0
 31
0.0
  0
LINE
  5
AE
100
AcDbEntity
100
AcDbLine
  8
0
 62
256
370
-1
  6
ByLayer
 10
0.0000000000000005
 20
8.0
 30
0.0
 11
10.5
 21
8.0
 31
0.0
  0
LINE
  5
AF
100
AcDbEntity
100
AcDbLine
  8
0
 62
256
370
-1
  6
ByLayer
 10
10.5
 20
0.0
 30
0.0
 11
10.5
 21
1.0
 31
0.0
  0
LINE
  5
B0
100
AcDbEntity
100
AcDbLine
  8
0
 62
256
370
-1
  6
ByLayer
 10
10.5
 20
1.0
 30
0.0
 11
8.5
 21
1.0
 31
0.0
  0
LINE
  5
B1
100
AcDbEntity
100
AcDbLine
  8
0
 62
256
370
-1
  6
ByLayer
 10
8.5
 20
1.0
 30
0.0
 11
8.5
 21
0.0
 31
0.0
  0
LINE
  5
B2
100
AcDbEntity
100
AcDbLine
  8
0
 62
256
370
-1
  6
ByLayer
 10
8.5
 20
0.25
 30
0.0
 11
10.5
 21
0.25
 31
0.0
  0
LINE
  5
B3
100
AcDbEntity
100
AcDbLine
  8
0
 62
256
370
-1
  6
ByLayer
 10
8.5
 20
0.5
 30
0.0
 11
10.5
 21
0.5
 31
0.0
  0
LINE
  5
B4
100
AcDbEntity
100
AcDbLine
  8
0
 62
256
370
-1
  6
ByLayer
 10
8.5
 20
0.75
 30
0.0
 11
10.5
 21
0.75
 31
0.0
  0
MTEXT
  5
B5
100
AcDbEntity
100
AcDbMText
  8
0
 62
256
370
-1
  6
ByLayer
 10
8.8101667710435745
 20
0.9359042975629357
 30
0.0
 40
0.1
 41
100.0
 71
1
 72
2
  1
Jesse\~Merritt
  7
courier
 50
0.0
 73
0
 44
1.0
  0
MTEXT
  5
B6
100
AcDbEntity
100
AcDbMText
  8
0
 62
256
370
-1
  6
ByLayer
 10
8.939645260330483
 20
0.4323455642275699
 30
0.0
 40
0.08
 41
100.0
 71
1
 72
2
  1
March\~12,\~2010
  7
courier
 50
0.0
 73
0
 44
1.0
  0
MTEXT
  5
B7
100
AcDbEntity
100
AcDbMText
  8
0
 62
256
370
-1
  6
ByLayer
 10
8.579357290140841
 20
0.675539944105578
 30
0.0
 40
0.08
 41
100.0
 71
1
 72
2
  1
Hitec\~Servo\~Bracket
  7
courier
 50
0.0
 73
0
 44
1.0
  0
MTEXT
  5
B8
100
AcDbEntity
100
AcDbMText
  8
0
 62
256
370
-1
  6
ByLayer
 10
9.322451228656977
 20
0.1801439850948208
 30
0.0
 40
0.08
 41
100.0
 71
1
 72
2
  1
Rev\~A
  7
courier
 50
0.0
 73
0
 44
1.0
  0
CIRCLE
  5
B9
100
AcDbEntity
100
AcDbCircle
  8
0
 62
256
370
-1
  6
ByLayer
 10
3.971111111111111
 20
0.5
 30
0.0
 40
0.1575
  0
LINE
  5
BA
100
AcDbEntity
100
AcDbLine
  8
0
 62
256
370
-1
  6
ByLayer
 10
3.971111111111111
 20
0.5
 30
0.0
 11
3.971111111111111
 21
0.8300000000000001
 31
0.0
  0
LINE
  5
BB
100
AcDbEntity
100
AcDbLine
  8
0
 62
256
370
-1
  6
ByLayer
 10
3.971111111111111
 20
0.5
 30
0.0
 11
3.971111111111111
 21
0.1699999999999999
 31
0.0
  0
LINE
  5
BC
100
AcDbEntity
100
AcDbLine
  8
0
 62
256
370
-1
  6
ByLayer
 10
3.971111111111111
 20
0.5
 30
0.0
 11
3.641111111111111
 21
0.5
 31
0.0
  0
LINE
  5
BD
100
AcDbEntity
100
AcDbLine
  8
0
 62
256
370
-1
  6
ByLayer
 10
3.971111111111111
 20
0.5
 30
0.0
 11
4.3011111111111111
 21
0.5
 31
0.0
  0
LEADER
  5
BE
  8
0
 62
256
370
-1
  6
ByLayer
100
AcDbEntity
100
AcDbLeader
  3
Standard
 71
1
 72
0
 73
3
 74
0
 75
0
 40
1.0
 41
10.0
 76
3
 10
4.0874788430015565
 20
0.6061357667078973
 10
4.2629579505744131
 20
0.7734138395653147
 10
4.5917207233724637
 20
0.7734138395653147
  0
MTEXT
  5
BF
100
AcDbEntity
100
AcDbMText
  8
0
 62
256
370
-1
  6
ByLayer
 10
4.6187423211366871
 20
0.8364642343485018
 30
0.0
 40
0.08
 41
100.0
 71
1
 72
2
  1
0.315
  7
courier
 50
0.0
 73
0
 44
1.0
  0
LINE
  5
C0
100
AcDbEntity
100
AcDbLine
  8
0
 62
256
370
-1
  6
ByLayer
 10
3.641111111111111
 20
0.5
 30
0.0
 11
3.641111111111111
 21
0.5454999999999997
 31
0.0
  0
LINE
  5
C1
100
AcDbEntity
100
AcDbLine
  8
0
 62
256
370
-1
  6
ByLayer
 10
4.3011111111111111
 20
0.5
 30
0.0
 11
4.3011111111111111
 21
0.5454999999999997
 31
0.0
  0
LINE
  5
C2
100
AcDbEntity
100
AcDbLine
  8
0
 62
256
370
-1
  6
ByLayer
 10
3.971111111111111
 20
0.1699999999999999
 30
0.0
 11
4.0166111111111116
 21
0.1699999999999999
 31
0.0
  0
LINE
  5
C3
100
AcDbEntity
100
AcDbLine
  8
0
 62
256
370
-1
  6
ByLayer
 10
4.3011111111111111
 20
0.5
 30
0.0
 11
4.3466111111111116
 21
0.5
 31
0.0
  0
LINE
  5
C4
100
AcDbEntity
100
AcDbLine
  8
0
 62
256
370
-1
  6
ByLayer
 10
3.971111111111111
 20
0.8300000000000001
 30
0.0
 11
4.0166111111111116
 21
0.8300000000000001
 31
0.0
  0
LINE
  5
C5
100
AcDbEntity
100
AcDbLine
  8
0
 62
256
370
-1
  6
ByLayer
 10
3.641111111111111
 20
0.5
 30
0.0
 11
3.6866111111111115
 21
0.5
 31
0.0
  0
LINE
  5
C6
100
AcDbEntity
100
AcDbLine
  8
0
 62
256
370
-1
  6
ByLayer
 10
3.971111111111111
 20
0.8300000000000001
 30
0.0
 11
3.971111111111111
 21
0.8754999999999997
 31
0.0
  0
LINE
  5
C7
100
AcDbEntity
100
AcDbLine
  8
0
 62
256
370
-1
  6
ByLayer
 10
3.971111111111111
 20
0.1699999999999999
 30
0.0
 11
3.971111111111111
 21
0.2154999999999996
 31
0.0
  0
MTEXT
  5
C8
100
AcDbEntity
100
AcDbMText
  8
0
 62
256
370
-1
  6
ByLayer
 10
3.1711111111111121
 20
1.1000000000000005
 30
0.0
 40
0.08
 41
100.0
 71
1
 72
2
  1
Single\~Hole\~Pattern
  7
courier
 50
0.0
 73
0
 44
1.0
  0
CIRCLE
  5
C9
100
AcDbEntity
100
AcDbCircle
  8
0
 62
256
370
-1
  6
ByLayer
 10
4.3011111111111111
 20
0.5
 30
0.0
 40
0.046875
  0
CIRCLE
  5
CA
100
AcDbEntity
100
AcDbCircle
  8
0
 62
256
370
-1
  6
ByLayer
 10
3.641111111111111
 20
0.5
 30
0.0
 40
0.046875
  0
CIRCLE
  5
CB
100
AcDbEntity
100
AcDbCircle
  8
0
 62
256
370
-1
  6
ByLayer
 10
3.971111111111111
 20
0.8300000000000001
 30
0.0
 40
0.046875
  0
CIRCLE
  5
CC
100
AcDbEntity
100
AcDbCircle
  8
0
 62
256
370
-1
  6
ByLayer
 10
3.971111111111111
 20
0.1699999999999999
 30
0.0
 40
0.046875
  0
DIMENSION
  5
CD
100
AcDbEntity
  8
0
 62
256
370
-1
  6
ByLayer
100
AcDbDimension
 10
4.0179855440295862
 20
0.1697694277308628
 30
0.0
 11
3.9714800267417276
 21
0.2449990926695618
 31
0.0
 70
3
 71
5
 72
0
 41
1.0
 42
0.0
  1

  3
Standard
100
AcDbDiametricDimension
 15
3.9242366781926359
 25
0.1702305722691371
 35
0.0
 40
0.0
  0
INSERT
  5
CE
100
AcDbEntity
100
AcDbBlockReference
  8
0
 62
256
370
-1
  6
ByLayer
  2
Servo Bracket
 10
0.1999999999999999
 20
7.6000000000000014
 30
0.0
  0
INSERT
  5
CF
100
AcDbEntity
100
AcDbBlockReference
  8
0
 62
256
370
-1
  6
ByLayer
  2
Servo Bracket
 10
2.8049999999999993
 20
7.5735000000000019
 30
0.0
  0
INSERT
  5
D0
100
AcDbEntity
100
AcDbBlockReference
  8
0
 62
256
370
-1
  6
ByLayer
  2
Servo Bracket
 10
5.4000000000000004
 20
7.6000000000000014
 30
0.0
  0
INSERT
  5
D1
100
AcDbEntity
100
AcDbBlockReference
  8
0
 62
256
370
-1
  6
ByLayer
  2
Servo Bracket
 10
8.0
 20
7.6000000000000005
 30
0.0
  0
INSERT
  5
D2
100
AcDbEntity
100
AcDbBlockReference
  8
0
 62
256
370
-1
  6
ByLayer
  2
Servo Bracket
 10
0.1999999999999998
 20
4.2000000000000002
 30
0.0
  0
INSERT
  5
D3
100
AcDbEntity
100
AcDbBlockReference
  8
0
 62
256
370
-1
  6
ByLayer
  2
Servo Bracket
 10
2.8000000000000007
 20
4.1719999999999988
 30
0.0
  0
INSERT
  5
D4
100
AcDbEntity
100
AcDbBlockReference
  8
0
 62
256
370
-1
  6
ByLayer
  2
Servo Bracket
 10
5.4000000000000004
 20
4.1719999999999997
 30
0.0
  0
MTEXT
  5
D5
100
AcDbEntity
100
AcDbMText
  8
0
 62
256
370
-1
  6
ByLayer
 10
5.7000008888888898
 20
1.0999999999999999
 30
0.0
 40
0.08
 41
100.0
 71
1
 72
2
  3
Decimal\~\~\~\~\~\~\~\~Appx\~Fractional\~Size\P0.93\~\~\~\~\~\~\~\~\~\~\~\~\~\~\~\~\~\~\~\~\~3/32"\P\P0.315\~\~\~\~\~\~\~\~\~\~\~\~\~\~\~\~\~\~\~21/64"\P\P0.175\~\~\~\~\~\~\~\~\~\~\~\~\~\~\~\~\~\~\~11/64"\P\P0.125\~\~\~\~\~\~\~\~\~\~\~\~\~\~\~\~\~\~\
  1
~1/8"
  7
normallatin1
 50
0.0
 73
0
 44
1.0
  0
INSERT
  5
D6
100
AcDbEntity
100
AcDbBlockReference
  8
0
 62
256
370
-1
  6
ByLayer
  2
Servo Bracket
 10
8.0
 20
4.2000000000000002
 30
0.0
  0
ENDSEC
  0
SECTION
  2
OBJECTS
  0
DICTIONARY
  5
C
100
AcDbDictionary
280
0
281
1
  3
ACAD_GROUP
350
D
  3
ACAD_LAYOUT
350
1A
  3
ACAD_MLINESTYLE
350
17
  3
ACAD_PLOTSETTINGS
350
19
  3
ACAD_PLOTSTYLENAME
350
E
  3
AcDbVariableDictionary
350
D7
  0
DICTIONARY
  5
D
100
AcDbDictionary
280
0
281
1
  0
ACDBDICTIONARYWDFLT
  5
E
100
AcDbDictionary
281
1
  3
Normal
350
F
100
AcDbDictionaryWithDefault
340
F
  0
ACDBPLACEHOLDER
  5
F
  0
DICTIONARY
  5
17
100
AcDbDictionary
280
0
281
1
  3
Standard
350
18
  0
MLINESTYLE
  5
18
100
AcDbMlineStyle
  2
STANDARD
 70
0
  3

 62
256
 51
90.0
 52
90.0
 71
2
 49
0.5
 62
256
  6
BYLAYER
 49
-0.5
 62
256
  6
BYLAYER
  0
DICTIONARY
  5
19
100
AcDbDictionary
280
0
281
1
  0
DICTIONARY
  5
1A
100
AcDbDictionary
281
1
  3
Layout1
350
1E
  3
Layout2
350
26
  3
Model
350
22
  0
LAYOUT
  5
1E
100
AcDbPlotSettings
  1

  2
C:\Program Files\AutoCAD 2002\plotters\DWF ePlot (optimized for plotting).pc3
  4

  6

 40
0.0
 41
0.0
 42
0.0
 43
0.0
 44
0.0
 45
0.0
 46
0.0
 47
0.0
 48
0.0
 49
0.0
140
0.0
141
0.0
142
1.0
143
1.0
 70
688
 72
0
 73
0
 74
5
  7

 75
16
147
1.0
148
0.0
149
0.0
100
AcDbLayout
  1
Layout1
 70
1
 71
1
 10
0.0
 20
0.0
 11
420.0
 21
297.0
 12
0.0
 22
0.0
 32
0.0
 14
100000000000000000000.0
 24
100000000000000000000.0
 34
100000000000000000000.0
 15
-100000000000000000000.0
 25
-100000000000000000000.0
 35
-100000000000000000000.0
146
0.0
 13
0.0
 23
0.0
 33
0.0
 16
1.0
 26
0.0
 36
0.0
 17
0.0
 27
1.0
 37
0.0
 76
0
330
1B
  0
LAYOUT
  5
22
100
AcDbPlotSettings
  1

  2
C:\Program Files\AutoCAD 2002\plotters\DWF ePlot (optimized for plotting).pc3
  4

  6

 40
0.0
 41
0.0
 42
0.0
 43
0.0
 44
0.0
 45
0.0
 46
0.0
 47
0.0
 48
0.0
 49
0.0
140
0.0
141
0.0
142
1.0
143
1.0
 70
1712
 72
0
 73
0
 74
0
  7

 75
0
147
1.0
148
0.0
149
0.0
100
AcDbLayout
  1
Model
 70
1
 71
0
 10
0.0
 20
0.0
 11
12.0
 21
9.0
 12
0.0
 22
0.0
 32
0.0
 14
0.0
 24
0.0
 34
0.0
 15
0.0
 25
0.0
 35
0.0
146
0.0
 13
0.0
 23
0.0
 33
0.0
 16
1.0
 26
0.0
 36
0.0
 17
0.0
 27
1.0
 37
0.0
 76
0
330
1F
  0
LAYOUT
  5
26
100
AcDbPlotSettings
  1

  2
C:\Program Files\AutoCAD 2002\plotters\DWF ePlot (optimized for plotting).pc3
  4

  6

 40
0.0
 41
0.0
 42
0.0
 43
0.0
 44
0.0
 45
0.0
 46
0.0
 47
0.0
 48
0.0
 49
0.0
140
0.0
141
0.0
142
1.0
143
1.0
 70
688
 72
0
 73
0
 74
5
  7

 75
16
147
1.0
148
0.0
149
0.0
100
AcDbLayout
  1
Layout2
 70
1
 71
2
 10
0.0
 20
0.0
 11
12.0
 21
9.0
 12
0.0
 22
0.0
 32
0.0
 14
0.0
 24
0.0
 34
0.0
 15
0.0
 25
0.0
 35
0.0
146
0.0
 13
0.0
 23
0.0
 33
0.0
 16
1.0
 26
0.0
 36
0.0
 17
0.0
 27
1.0
 37
0.0
 76
0
330
23
  0
DICTIONARY
  5
D7
100
AcDbDictionary
281
1
  3
DIMASSOC
350
D9
  3
HIDETEXT
350
D8
  0
DICTIONARYVAR
  5
D8
100
DictionaryVariables
280
0
  1
2
  0
DICTIONARYVAR
  5
D9
100
DictionaryVariables
280
0
  1
1
  0
ENDSEC
  0
EOF
